<?xml version="1.0" encoding="utf-8"?>
<!-- Generator: Adobe Illustrator 16.0.0, SVG Export Plug-In . SVG Version: 6.00 Build 0)  -->
<!DOCTYPE svg PUBLIC "-//W3C//DTD SVG 1.1//EN" "http://www.w3.org/Graphics/SVG/1.1/DTD/svg11.dtd">
<svg version="1.1" id="Layer_1" xmlns="http://www.w3.org/2000/svg" xmlns:xlink="http://www.w3.org/1999/xlink" x="0px" y="0px"
	 width="200px" height="200px" viewBox="104 25 200 200" enable-background="new 104 25 200 200" xml:space="preserve">
<g>
	<path d="M289.99,101.818c0-25.572-20.801-46.376-46.37-46.376c-11.278,0-22.14,4.088-30.62,11.54l-8.193,7.49l-7.075-6.624
		c-8.566-7.88-19.71-12.22-31.376-12.22c-25.568,0-46.37,20.796-46.37,46.362c0,12.784,5.09,24.69,14.354,33.546l11.878,11.092
		c-0.146,3.435,1.098,6.876,3.8,9.328c2.15,1.962,4.912,3.026,7.832,3.026c0.19,0,0.376-0.004,0.566-0.015
		c0.088-0.004,0.172-0.032,0.258-0.04c-0.904,1.84-1.386,3.862-1.29,5.963c0.15,3.195,1.518,6.123,3.854,8.247
		c2.174,1.982,5.018,3.074,8.004,3.074c2.576,0,5.072-0.817,7.142-2.298c0.14,3.172,1.458,6.294,3.924,8.55
		c2.266,2.058,5.128,3.072,8,3.072c2.994,0,5.964-1.16,8.312-3.332c0.196,3.262,1.608,6.332,3.912,8.434
		c2.192,1.994,5.008,3.07,7.989,3.07c0.236,0,0.475-0.006,0.717-0.019c3.229-0.189,6.207-1.611,8.398-4.021l3.857-4.296
		c0.974,0.243,1.958,0.412,2.939,0.412c2.902,0,5.75-1.058,7.986-3.08c2.396-2.196,3.668-5.16,3.826-8.2
		c2.141,1.559,4.676,2.364,7.208,2.364c2.876,0,5.746-1.019,8.017-3.089c2.363-2.159,3.729-5.137,3.842-8.383
		c0.082-2.301-0.502-4.524-1.643-6.511c0.076,0.002,0.154,0.007,0.23,0.007c2.986,0,5.808-1.084,7.994-3.084
		c3.119-2.841,4.342-6.99,3.655-10.921l9.738-9.208C284.773,126.586,289.99,114.56,289.99,101.818z M158.236,155.036
		c-2.062,0.112-4.048-0.61-5.566-1.99c-3.28-2.978-3.456-8.16-0.38-11.548l12.154-13.418c1.482-1.628,3.508-2.598,5.704-2.722
		c2.136-0.098,4.248,0.598,5.824,2.037c3.234,2.951,3.452,7.791,0.564,11.131l-12.694,13.938
		C162.324,154.014,160.356,154.938,158.236,155.036z M163.894,170.229c-1.556-1.414-2.468-3.377-2.57-5.522
		c-0.106-2.228,0.672-4.368,2.178-6.026l3.22-3.535c0.092-0.095,0.2-0.164,0.288-0.263c0.042-0.048,0.056-0.11,0.094-0.157
		l12.126-13.318c0.026-0.026,0.058-0.036,0.084-0.062c0.048-0.056,0.08-0.119,0.128-0.176l3.896-4.275
		c1.584-1.734,3.832-2.73,6.174-2.73c2.004,0,3.906,0.73,5.358,2.05c1.576,1.435,2.49,3.429,2.57,5.61
		c0.08,2.195-0.696,4.304-2.18,5.934l-19.834,21.784C172.496,172.77,167.044,173.098,163.894,170.229z M182.968,179.552
		c-3.332-3.042-3.596-8.42-0.574-11.743c0.056-0.064,0.078-0.145,0.126-0.211l12.598-13.84c0.07-0.054,0.15-0.086,0.212-0.152
		c1.446-1.592,3.468-2.521,5.698-2.625c2.284-0.059,4.43,0.676,6.02,2.127c3.288,2.99,3.466,8.177,0.4,11.553l-7.654,8.396
		c-0.018,0.019-0.042,0.024-0.06,0.042c-0.032,0.036-0.052,0.082-0.084,0.116l-5.146,5.644
		C191.426,182.229,186.252,182.536,182.968,179.552z M214.721,187.034c-1.482,1.632-3.507,2.602-5.705,2.726
		c-2.182,0.141-4.252-0.598-5.824-2.031c-1.574-1.435-2.54-3.57-2.654-5.854c-0.112-2.263,0.636-4.448,2.042-6.036l4.641-5.084
		c0.012-0.01,0.021-0.014,0.031-0.025c2.95-3.234,8.284-3.391,11.645-0.328c1.576,1.434,2.49,3.428,2.569,5.609
		c0.076,2.2-0.7,4.311-2.196,5.956L214.721,187.034z M259.248,152.902c-1.548,1.416-3.592,2.178-5.725,2.043
		c-2.229-0.102-4.291-1.069-5.795-2.719l-18.853-20.914c-0.726-0.807-1.97-0.871-2.78-0.143c-0.806,0.727-0.873,1.973-0.142,2.779
		l18.858,20.923c0.035,0.038,0.08,0.065,0.115,0.104c0.07,0.102,0.112,0.213,0.204,0.303l4.062,4.045
		c1.492,1.63,2.271,3.738,2.192,5.936c-0.071,2.182-0.983,4.174-2.558,5.616c-3.288,2.987-8.458,2.687-11.542-0.69l-4.132-4.472
		c-0.032-0.036-0.053-0.076-0.084-0.112c-0.019-0.021-0.043-0.027-0.062-0.043l-21.562-23.324c-0.741-0.805-1.989-0.853-2.783-0.114
		c-0.801,0.741-0.85,1.985-0.112,2.784l21.69,23.468c2.968,3.358,2.771,8.456-0.465,11.424c-1.588,1.435-3.644,2.112-5.719,2.01
		c0.918-1.823,1.418-3.842,1.346-5.934c-0.116-3.252-1.486-6.226-3.854-8.384c-2.624-2.385-5.976-3.424-9.22-3.205
		c2.242-4.707,1.359-10.459-2.624-14.088c-2.356-2.149-5.506-3.26-8.856-3.149c-0.202,0.01-0.384,0.062-0.582,0.084
		c0.764-1.7,1.18-3.54,1.11-5.448c-0.116-3.252-1.486-6.228-3.854-8.378c-4.032-3.674-10.532-3.832-15.04-0.792
		c-0.178-2.956-1.458-5.84-3.858-8.03c-2.368-2.156-5.448-3.252-8.704-3.054c-3.234,0.184-6.212,1.604-8.394,4.006l-12.084,13.343
		c-8.534-7.912-17.848-16.857-19.428-27.808c-0.07-0.486-0.49-0.84-1.014-0.756c-0.486,0.07-0.828,0.526-0.754,1.014
		c1.674,11.624,11.328,20.844,20.116,28.992c-0.436,0.634-0.802,1.3-1.108,1.988l-10.208-9.532
		c-8.458-8.092-13.12-18.986-13.12-30.684c0-23.392,19.036-42.426,42.432-42.426c10.676,0,20.872,3.972,28.698,11.172l6.84,6.402
		L178.81,98.25c-2.5,2.332-3.628,4.374-3.558,6.426c0.094,2.646,2.196,4.562,4.16,6.154c6.296,5.092,16.942,6.212,26.472-2.738
		l12.771-11.518l40.97,44.776C262.704,144.727,262.536,149.908,259.248,152.902z M264.094,140.855
		c-0.322-0.558-0.72-1.08-1.138-1.594l8.235-7.792c8.33-8,12.918-18.566,12.918-29.76c0-0.492-0.401-0.894-0.896-0.894
		c-0.491,0-0.894,0.402-0.894,0.894c0,10.7-4.391,20.808-12.362,28.462l-8.16,7.716l-36.442-39.822
		c9.248,2.13,25.311,2.63,37.935-13.876c0.662-0.864,0.498-2.098-0.368-2.758c-0.859-0.658-2.094-0.5-2.758,0.368
		c-16.742,21.878-39.546,10.748-40.51,10.262l-1.206-0.604l-15.232,13.734c-6.884,6.476-15.256,7.482-21.328,2.574
		c-1.316-1.066-2.666-2.284-2.702-3.232c-0.02-0.55,0.366-1.594,2.294-3.39l34.148-31.23c7.729-6.792,17.672-10.534,27.99-10.534
		c23.396,0,42.432,19.04,42.432,42.438c0,11.658-4.792,22.676-13.472,31.012L264.094,140.855z"/>
	<path d="M253.4,83.86c-8.519,8.084-21.293,9.972-32.545,4.804c-0.451-0.206-0.983-0.01-1.189,0.442
		c-0.208,0.452-0.008,0.982,0.439,1.188c4.463,2.046,9.148,3.046,13.742,3.046c7.69,0,15.12-2.8,20.786-8.18
		c0.36-0.342,0.374-0.908,0.036-1.266C254.324,83.54,253.758,83.518,253.4,83.86z"/>
	<path d="M202.728,100.05c-6.804,6.67-11.68,8.102-16.838,4.898c-0.418-0.256-0.966-0.128-1.234,0.29
		c-0.258,0.42-0.128,0.972,0.292,1.234c2.048,1.27,4.07,1.916,6.146,1.916c3.92,0,8.034-2.302,12.886-7.058
		c0.352-0.346,0.36-0.912,0.014-1.266C203.648,99.71,203.082,99.704,202.728,100.05z"/>
	<path d="M165.954,146.594c0.246,0,0.486-0.098,0.664-0.292l7.56-8.344c2.594-2.872,2.958-6.179,0.948-8.628
		c-0.314-0.385-0.88-0.438-1.258-0.126c-0.384,0.313-0.442,0.878-0.126,1.26c2.12,2.584-0.146,5.47-0.89,6.292l-7.56,8.344
		c-0.332,0.368-0.304,0.935,0.062,1.266C165.524,146.518,165.74,146.594,165.954,146.594z"/>
	<path d="M205.434,164.062c2.221-2.459,2.631-5.885,1.017-8.528c-0.261-0.425-0.816-0.556-1.228-0.296
		c-0.423,0.254-0.557,0.806-0.297,1.226c1.196,1.96,0.868,4.532-0.818,6.394l-7.56,8.345c-0.332,0.368-0.302,0.934,0.064,1.266
		c0.17,0.154,0.386,0.229,0.602,0.229c0.244,0,0.484-0.098,0.664-0.291L205.434,164.062z"/>
	<path d="M217.052,172.49c-0.422,0.258-0.554,0.806-0.298,1.229c1.196,1.964,0.868,4.536-0.822,6.402l-3.709,4.144
		c-0.328,0.37-0.297,0.934,0.069,1.266c0.172,0.15,0.384,0.227,0.599,0.227c0.246,0,0.489-0.102,0.668-0.296l3.707-4.14
		c2.221-2.459,2.633-5.885,1.022-8.532C218.025,172.368,217.471,172.246,217.052,172.49z"/>
	<path d="M192.96,138.279c-0.408,0.272-0.518,0.832-0.24,1.24c1.544,2.297,0.576,4.795-0.836,6.358l-12.716,13.767
		c-0.336,0.365-0.314,0.932,0.048,1.266c0.174,0.162,0.39,0.238,0.608,0.238c0.242,0,0.482-0.099,0.658-0.289l12.724-13.773
		c2.354-2.604,2.744-5.964,0.996-8.566C193.928,138.111,193.372,138,192.96,138.279z"/>
	<path d="M155.292,63.41c-12.074,4.132-20.352,11.586-25.298,22.78c-0.2,0.454,0.004,0.982,0.454,1.182
		c0.12,0.052,0.242,0.076,0.364,0.076c0.342,0,0.67-0.2,0.818-0.532c4.738-10.714,12.668-17.85,24.242-21.814
		c0.468-0.158,0.716-0.668,0.556-1.136C156.272,63.5,155.776,63.248,155.292,63.41z"/>
</g>
<style>
	path {
		fill: white; 
		stroke: white;
	}
</style>
</svg>
