<?xml version="1.0" encoding="utf-8"?>
<!-- Generator: Adobe Illustrator 16.0.0, SVG Export Plug-In . SVG Version: 6.00 Build 0)  -->
<!DOCTYPE svg PUBLIC "-//W3C//DTD SVG 1.1//EN" "http://www.w3.org/Graphics/SVG/1.1/DTD/svg11.dtd">
<svg version="1.1" id="Layer_1" xmlns="http://www.w3.org/2000/svg" xmlns:xlink="http://www.w3.org/1999/xlink" x="0px" y="0px"
	 width="200px" height="200px" viewBox="104 25 200 200" enable-background="new 104 25 200 200" xml:space="preserve">
<g>
	<path d="M202.672,165.494c1.088,0,1.97-0.883,1.97-1.969v-6.914c0-1.086-0.882-1.968-1.97-1.968c-1.086,0-1.968,0.882-1.968,1.968
		v6.914C200.704,164.611,201.586,165.494,202.672,165.494z"/>
	<path d="M202.672,146.002c1.088,0,1.97-0.883,1.97-1.973v-6.914c0-1.086-0.882-1.968-1.97-1.968c-1.086,0-1.968,0.882-1.968,1.968
		v6.914C200.704,145.119,201.586,146.002,202.672,146.002z"/>
	<path d="M208.22,144.896c-1.088,0-1.968,0.878-1.968,1.968v6.91c0,1.09,0.88,1.969,1.968,1.969s1.968-0.879,1.968-1.969v-6.908
		C210.189,145.775,209.308,144.896,208.22,144.896z"/>
	<path d="M253.105,170.857c0-16.66-11.068-23.582-21.771-30.277c-2.209-1.379-4.432-2.771-6.6-4.271l-17.23-11.678l17.214-11.668
		c2.046-1.358,4.118-2.634,6.155-3.886c11.433-7.038,22.23-13.684,22.23-30.68V61.146h8.568l0.008-10.31
		c0-5.974-4.859-10.834-10.834-10.834h-93.693c-5.971,0-10.83,4.86-10.83,10.834v10.31h8.556v17.25
		c0,17.002,10.708,23.594,22.05,30.568c2.076,1.276,4.208,2.588,6.322,3.986l17.229,11.68l-17.258,11.698
		c-2.292,1.609-4.647,3.098-6.97,4.562c-10.508,6.624-21.376,13.476-21.376,29.964v18h-8.548l-0.008,10.305
		c0,5.979,4.859,10.84,10.83,10.84h93.695c5.975,0,10.834-4.86,10.834-10.84v-10.305h-8.576v-17.996H253.105z M161.372,206.063
		l13.596-13.266h11.41l-13.59,13.266H161.372z M165.176,188.857l38.8-14.238l37.257,14.238H165.176z M257.742,50.833l-0.006,6.374
		H238.67l2.142-2.092h10.265c0.492,0,0.894-0.402,0.894-0.896c0-0.496-0.401-0.896-0.894-0.896h-8.426l9.487-9.252
		C255.326,44.68,257.742,47.476,257.742,50.833z M246.632,43.942l-9.62,9.384h-11.414l9.612-9.382h11.422V43.942z M235.172,55.116
		l-2.145,2.092h-11.406l2.141-2.092H235.172z M150.262,50.836c0-3.8,3.092-6.894,6.891-6.894h72.418l-9.613,9.382h-57.289
		c-0.492,0-0.894,0.4-0.894,0.896c0,0.494,0.401,0.896,0.894,0.896h55.457l-2.143,2.092h-65.721V50.836z M185.446,109.68
		c-2.172-1.434-4.341-2.77-6.454-4.068c-11.271-6.936-20.176-12.414-20.176-27.212V61.146h90.35v17.25
		c0,14.796-9.434,20.602-20.358,27.322c-2.073,1.28-4.185,2.578-6.286,3.972l-18.529,12.56L185.446,109.68z M178.356,144.224
		c2.378-1.5,4.792-3.024,7.107-4.651l18.532-12.562l18.516,12.55c2.204,1.524,4.477,2.95,6.736,4.364
		c10.689,6.684,19.92,12.458,19.92,26.934v16.816l-45.16-17.258l-41.275,15.14v-14.935c0-10.191,6.313-15.039,13.002-20.172
		c0.392-0.299,0.464-0.867,0.164-1.258c-0.301-0.394-0.858-0.464-1.257-0.164c-6.735,5.172-13.701,10.521-13.701,21.594v15.305
		c0,0.098,0.073,0.16,0.105,0.25l-2.228,0.816v-16.137C158.816,156.541,167.874,150.834,178.356,144.224z M150.262,199.162
		l0.006-6.364h19.061l-13.462,13.136C152.678,205.326,150.262,202.529,150.262,199.162z M257.742,199.162
		c0,3.808-3.092,6.901-6.895,6.901h-72.426l13.59-13.266h65.73V199.162L257.742,199.162z"/>
	<path d="M243.402,77.54V66.875l-36.425,9.946c-1.562,0.326-4.657,0.306-6.033,0.024l-36.358-9.464v10.16
		c0,13.702,8.58,18.986,17.664,24.58c1.652,1.018,3.348,2.06,5.028,3.172l16.718,11.33l16.654-11.316
		c1.605-1.058,3.228-2.052,4.825-3.032C234.289,96.87,243.402,91.284,243.402,77.54z M218.464,102.032L204,111.858l-14.526-9.836
		c-1.735-1.152-3.466-2.218-5.155-3.256c-8.822-5.432-15.79-9.724-15.79-21.226v-5.062l31.521,8.204
		c2.101,0.434,5.51,0.464,7.846-0.032l27.589-7.53c0.008,7.448-0.351,13.422-7.736,18.334c-11.156,7.418-14.196,9.272-14.223,9.29
		c-0.424,0.258-0.556,0.808-0.3,1.23c0.168,0.278,0.464,0.432,0.767,0.432c0.16,0,0.317-0.042,0.463-0.13
		c0.121-0.072,3.078-1.876,14.287-9.332c8.332-5.538,8.556-12.4,8.535-20.312l2.19-0.598v5.504c0,11.536-7.437,16.098-16.044,21.372
		C221.785,99.917,220.123,100.934,218.464,102.032z"/>
	<path d="M170.81,47.108c0-0.496-0.401-0.896-0.894-0.896h-9.892c-3.084,0-7.185,0.598-7.185,5.766v1.224
		c0,0.496,0.402,0.896,0.895,0.896c0.493,0,0.896-0.4,0.896-0.896v-1.224c0-2.386,0.916-3.976,5.392-3.976h9.893
		C170.408,48.004,170.81,47.602,170.81,47.108z"/>
	<path d="M238.82,204.128h9.894c3.086,0,7.185-0.599,7.185-5.763v-1.222c0-0.491-0.402-0.894-0.895-0.894
		c-0.494,0-0.895,0.402-0.895,0.894v1.222c0,2.383-0.918,3.973-5.394,3.973h-9.894c-0.494,0-0.896,0.402-0.896,0.895
		C237.926,203.724,238.326,204.128,238.82,204.128z"/>
	<path d="M187.45,80.444l-14.914-4.032c-0.49-0.126-0.964,0.154-1.099,0.63c-0.128,0.478,0.154,0.968,0.629,1.098l14.916,4.032
		c0.079,0.02,0.155,0.032,0.233,0.032c0.395,0,0.754-0.262,0.864-0.662C188.21,81.062,187.926,80.574,187.45,80.444z"/>
	<path d="M231.625,150.666c0.152,0.102,0.324,0.152,0.496,0.152c0.293,0,0.574-0.141,0.744-0.402
		c0.274-0.41,0.162-0.969-0.248-1.238l-27.312-18.132c-0.412-0.274-0.968-0.164-1.242,0.245c-0.272,0.414-0.159,0.969,0.248,1.242
		L231.625,150.666z"/>
	<path d="M164.942,181.006c0.132,0.363,0.476,0.59,0.844,0.59c0.102,0,0.204-0.016,0.304-0.05l22.33-8.058
		c0.464-0.168,0.706-0.685,0.538-1.148c-0.168-0.46-0.678-0.7-1.146-0.54l-22.329,8.058
		C165.016,180.025,164.774,180.541,164.942,181.006z"/>
</g>
<style>
	path {
		fill: white; 
		stroke: white;
	}
</style>
</svg>
