<?xml version="1.0" encoding="utf-8"?>
<!-- Generator: Adobe Illustrator 16.0.0, SVG Export Plug-In . SVG Version: 6.00 Build 0)  -->
<!DOCTYPE svg PUBLIC "-//W3C//DTD SVG 1.1//EN" "http://www.w3.org/Graphics/SVG/1.1/DTD/svg11.dtd">
<svg version="1.1" id="Layer_1" xmlns="http://www.w3.org/2000/svg" xmlns:xlink="http://www.w3.org/1999/xlink" x="0px" y="0px"
	 width="200.002px" height="200px" viewBox="103.999 0.25 200.002 200" enable-background="new 103.999 0.25 200.002 200"
	 xml:space="preserve">
<g>
	<path d="M276.305,81.75c-0.205-5.268-1.267-10.384-3.173-15.252l11.496-7.84l-11.942-17.504l-11.496,7.844
		c-3.838-3.55-8.211-6.408-13.047-8.518l2.584-13.696l-20.814-3.93l-2.588,13.69c-5.268,0.204-10.387,1.266-15.256,3.17
		l-7.844-11.492l-10.694,7.29c-1.032-0.426-2.088-0.818-3.196-1.134c-8.944-2.556-18.964-1.068-26.802,3.976
		c-22.508,14.476-13.408,37.682-11.798,41.316c-0.384,1.678-0.212,3.758,0.616,5.882c1.058,2.708,2.912,4.692,4.868,5.326
		c0.87,5.336,3.568,10.372,7.246,14.292c0.074,2.664-0.32,5.496-0.802,5.98c-1.184,0.618-12.28,4.188-22.076,7.218
		c-9.536,2.734-16.152,9.996-18.618,20.394l-2.946,11.286c-0.214,2.742,0.668,5.332,2.486,7.3c1.818,1.965,4.334,3.047,7.086,3.047
		h42.47l-0.778,7.598l9.6,10.464l9.284-10.488l-0.774-7.573h42.722c2.752,0,5.266-1.078,7.086-3.047
		c1.819-1.964,2.706-4.558,2.494-7.296l-3.328-11.155c-0.914-2.849-2.042-5.75-3.542-8.488c3.962-0.469,7.826-1.398,11.518-2.848
		l7.842,11.496l17.502-11.938l-7.84-11.496c3.555-3.838,6.408-8.214,8.519-13.048l13.688,2.588l3.936-20.82L276.305,81.75z
		 M165.652,41.644c6.908-4.446,15.73-5.754,23.61-3.502c0.852,0.244,1.672,0.528,2.466,0.846c0.022,0.03,0.022,0.064,0.042,0.094
		c0.454,0.664,1.24,0.958,1.984,0.818c4.302,2.182,7.644,5.52,9.624,9.696l0.262,0.548l0.524,0.304
		c2.29,1.334,3.912,4.928,4.529,9.492c-0.031,0.274,0.015,0.55,0.103,0.818c0.488,4.64-0.036,10.158-1.946,15.344
		c-0.543-0.096-1.107-0.12-1.664,0.018c0.553-3.022,1.765-11.458-0.952-15.618c-0.87-1.326-2.092-2.182-3.54-2.48l-1.824-0.376
		l-0.46,1.804c-1.062,4.128-4.81,4.418-16.502,4.714l-2.612,0.068c-8.912,0.246-22.382,0.618-22.382,10.928v1
		c-0.804-0.224-1.622-0.176-2.376,0.076C152.264,70.236,147.838,53.102,165.652,41.644z M209.588,85.554
		c0.973-2.488,1.042-4.914,0.366-6.706c2.416-5.79,3.319-12.206,2.84-17.834c0.532-0.384,1.052-0.786,1.606-1.128
		c5.976-3.726,13.084-5.058,20.008-3.752c15.16,2.864,25.168,17.534,22.304,32.702c-2.866,15.158-17.53,25.172-32.7,22.306
		c-9.06-1.71-16.596-7.73-20.346-16.13c0.46-1.344,0.822-2.722,1.052-4.124C206.684,90.268,208.508,88.31,209.588,85.554z
		 M160.71,86.702l-2.17,0.48c-0.396,0-1.694-0.878-2.542-3.05c-0.87-2.226-0.526-3.984-0.246-4.222c0.2,0,0.84,0.308,1.556,1.256
		l3.516,4.666v-10.67c0-5.44,6.814-6.692,18.582-7.018l2.602-0.068c10.2-0.258,16.45-0.416,19.158-5.068
		c1.442,2.87,0.788,9.568-0.004,13.29l-0.042,9.56l3.524-4.698c0.707-0.946,1.344-1.252,1.481-1.27
		c0.34,0.256,0.688,2.006-0.185,4.238c-0.848,2.174-2.146,3.052-2.542,3.052l-2.168-0.478l-0.206,2.21
		c-0.17,1.85-0.624,3.678-1.294,5.442c0,0.006-0.004,0.012-0.004,0.018c-1.224,3.222-3.192,6.208-5.594,8.638
		c-0.056,0.042-0.102,0.09-0.15,0.14c-3.632,3.61-8.224,5.966-12.722,5.966h-0.58c-9.204,0-18.81-9.82-19.768-20.206L160.71,86.702z
		 M164.704,114.942l10.576,11.652l-6.87,5.368l-6.436-16.024C163.114,115.542,164.044,115.208,164.704,114.942z M180.68,113.032
		h0.58c4.252,0,8.504-1.638,12.216-4.328c0.046,0.45,0.11,0.894,0.194,1.342c-5.834,4.944-11.694,4.44-11.746,4.436
		c-0.43-0.04-0.928,0.296-0.978,0.786c-0.056,0.488,0.294,0.926,0.782,0.98c0.058,0.008,0.376,0.04,0.894,0.04
		c1.932,0,6.684-0.484,11.576-4.352c0.026,0.07,0.048,0.14,0.078,0.208l-11.574,12.744h-3.684l-11.57-12.744
		c0.442-1.088,0.696-2.344,0.82-3.588C172.028,111.332,176.352,113.032,180.68,113.032z M197.016,114.946
		c0.658,0.262,1.59,0.598,2.728,0.992l-6.432,16.024l-6.876-5.372L197.016,114.946z M129.596,156.488
		c-1.648,0-3.144-0.641-4.214-1.797c-1.07-1.151-1.588-2.695-1.518-3.983l2.898-10.992c1.512-6.376,5.498-14.598,15.94-17.594
		c3.716-1.148,10.348-3.218,15.554-4.934l8.464,21.058l8.27-6.46l-2.524,24.704h-42.87V156.488z M180.84,172.618l-5.48-5.968
		l3.874-37.853h3l3.876,37.872L180.84,172.618z M236.334,154.691c-1.068,1.156-2.566,1.797-4.212,1.797h-43.124l-2.544-24.918
		l8.554,6.676l8.454-21.058c5.208,1.714,11.858,3.79,15.599,4.946c7.684,2.204,12.197,7.406,15.58,17.927l3.172,10.496
		C237.882,152.122,237.363,153.586,236.334,154.691z M282.938,100.594l-12.985-2.458l-0.599,1.502
		c-2.156,5.442-5.319,10.288-9.401,14.402l-1.134,1.144l7.436,10.906l-11.033,7.532l-7.445-10.902l-1.479,0.64
		c-4.37,1.882-9.012,3.012-13.8,3.369c-0.462-0.606-1.002-1.16-1.521-1.727c9.063-0.492,17.801-3.868,24.92-9.77
		c0.377-0.312,0.43-0.874,0.117-1.252c-0.318-0.38-0.882-0.432-1.25-0.116c-7.262,6.02-16.296,9.304-25.57,9.41
		c-2.387-2.09-5.289-3.82-9.012-4.89c-9.84-3.042-20.938-6.616-22.042-7.178c-0.54-0.52-0.928-3.208-0.882-5.802
		c1.664-1.738,3.132-3.69,4.332-5.806c4.624,8.006,12.479,13.648,21.7,15.388c1.989,0.376,3.974,0.558,5.93,0.558
		c15.028,0,28.452-10.692,31.339-25.982c3.266-17.288-8.141-34.008-25.42-37.272c-7.902-1.484-15.998,0.032-22.809,4.28
		c-0.068,0.042-0.13,0.098-0.202,0.142c-0.624-2.648-1.612-4.968-2.933-6.776c6.875-4.002,14.664-5.916,22.559-5.54
		c0.018,0.002,0.032,0.002,0.044,0.002c0.472,0,0.866-0.37,0.888-0.846c0.026-0.49-0.354-0.906-0.844-0.93
		c-8.39-0.418-16.588,1.648-23.818,5.934c-0.432-0.426-0.877-0.82-1.361-1.15c-2.049-4.072-5.2-7.424-9.152-9.868l5.69-3.878
		l7.445,10.904l1.478-0.64c5.317-2.294,10.985-3.472,16.846-3.502l1.612-0.006l2.456-12.988l13.124,2.479L243.706,42.9l1.5,0.596
		c5.444,2.162,10.288,5.326,14.399,9.404l1.148,1.136l10.906-7.442l7.529,11.042l-10.901,7.44l0.64,1.482
		c2.292,5.316,3.469,10.98,3.5,16.838l0.008,1.612l12.984,2.458L282.938,100.594z"/>
	<path d="M143.732,123.984c-7.624,2.165-12.326,5.758-15.348,18.5c-0.112,0.479,0.182,0.957,0.66,1.07
		c0.07,0.016,0.136,0.023,0.206,0.023c0.402,0,0.768-0.273,0.864-0.684c2.836-11.959,6.974-15.177,14.104-17.201
		c0.472-0.131,0.748-0.624,0.614-1.097C144.698,124.122,144.212,123.848,143.732,123.984z"/>
	<path d="M226.51,130.668c-0.355,0.336-0.369,0.902-0.029,1.258c3.653,3.832,6.894,16.672,6.93,16.801
		c0.102,0.401,0.462,0.672,0.861,0.672c0.07,0,0.143-0.004,0.215-0.028c0.476-0.118,0.768-0.603,0.646-1.074
		c-0.134-0.546-3.386-13.43-7.368-17.603C227.434,130.348,226.872,130.328,226.51,130.668z"/>
	<path d="M179.086,165.296l0.642-5.685c0.056-0.487-0.294-0.926-0.782-0.979c-0.548-0.054-0.93,0.292-0.982,0.782l-0.748,6.554
		l2.688,2.578c0.17,0.164,0.392,0.246,0.616,0.246c0.232,0,0.468-0.09,0.642-0.274c0.34-0.355,0.326-0.918-0.03-1.258
		L179.086,165.296z"/>
	<path d="M167.726,139.622c-0.378,0.312-0.438,0.876-0.128,1.254c0.312,0.382,0.872,0.435,1.254,0.128l1.89-1.54l-1.386,14.017
		c-0.048,0.487,0.308,0.926,0.798,0.972c0.028,0.004,0.058,0.004,0.086,0.004c0.452,0,0.84-0.345,0.886-0.8l1.802-18.266
		L167.726,139.622z"/>
	<path d="M159.12,52.878c0.284,0,0.562-0.138,0.736-0.39c4.664-6.886,14.254-13.08,25.192-11.382
		c0.478,0.082,0.938-0.256,1.014-0.742c0.076-0.486-0.258-0.94-0.744-1.016c-10.246-1.598-20.852,3.168-26.934,12.142
		c-0.274,0.406-0.17,0.958,0.236,1.234C158.772,52.828,158.946,52.878,159.12,52.878z"/>
	<path d="M261.08,107.308c-0.645,0.84-1.318,1.648-2.036,2.434c-0.33,0.364-0.3,0.926,0.062,1.258
		c0.172,0.152,0.387,0.23,0.599,0.23c0.244,0,0.481-0.1,0.66-0.292c0.743-0.82,1.452-1.668,2.124-2.546
		c0.298-0.386,0.226-0.946-0.162-1.246C261.941,106.848,261.382,106.914,261.08,107.308z"/>
	<path d="M242.562,31.928l-7.648-1.448l-0.866,4.548c-0.09,0.482,0.226,0.948,0.708,1.04c0.055,0.01,0.112,0.016,0.166,0.016
		c0.42,0,0.792-0.296,0.876-0.722l0.534-2.804l5.896,1.12c0.472,0.094,0.947-0.224,1.041-0.708
		C243.361,32.486,243.044,32.02,242.562,31.928z"/>
	<path d="M271.244,60.518c0.17,0,0.336-0.046,0.488-0.146l3.733-2.458c0.41-0.272,0.526-0.822,0.255-1.234
		c-0.272-0.41-0.82-0.522-1.232-0.252l-3.734,2.458c-0.41,0.271-0.525,0.822-0.254,1.232
		C270.67,60.376,270.956,60.518,271.244,60.518z"/>
	<path d="M275.664,97.392l5.273,1.08l0.778-3.764c0.099-0.48-0.21-0.95-0.692-1.048c-0.5-0.116-0.951,0.208-1.051,0.69l-0.416,2.026
		l-3.537-0.726c-0.468-0.104-0.949,0.214-1.047,0.694C274.874,96.824,275.182,97.294,275.664,97.392z"/>
	<path d="M254.502,130.352c0.174,0.25,0.45,0.383,0.73,0.383c0.178,0,0.354-0.051,0.506-0.16l5.96-4.145
		c0.401-0.281,0.504-0.836,0.222-1.238c-0.281-0.406-0.842-0.5-1.236-0.222l-5.959,4.148
		C254.322,129.398,254.221,129.95,254.502,130.352z"/>
</g>
<style>
	path {
		fill: white; 
		stroke: white;
	}
</style>
</svg>
