<?xml version="1.0" encoding="utf-8"?>
<!-- Generator: Adobe Illustrator 22.0.0, SVG Export Plug-In . SVG Version: 6.00 Build 0)  -->
<svg version="1.1" id="Layer_1" xmlns="http://www.w3.org/2000/svg" xmlns:xlink="http://www.w3.org/1999/xlink" x="0px" y="0px"
	 viewBox="0 0 1050 90" style="enable-background:new 0 0 1050 90;" xml:space="preserve">
<style type="text/css">
	.st0{fill:#FFFFFF;}
</style>
<g>
	<g>
		<g>
			<g>
				<path class="st0" d="M7,82.2c-1.4-0.7-1.5-1.1-1.5-3.9c0-5.2,0.4-9.3,0.5-10.9c0.1-1.1,0.3-1.6,0.8-1.6c0.6,0,0.7,0.3,0.7,1.1
					c0,0.9,0,2.4,0.3,3.8c1.5,7.6,8.3,10.5,15.3,10.5c9.9,0,14.7-7.1,14.7-13.7c0-7.1-3-11.2-11.8-18.5l-4.6-3.8
					C10.5,36.2,8,29.8,8,22.8c0-11,8.2-18.5,21.3-18.5c4,0,7,0.4,9.6,1.1c2,0.4,2.8,0.5,3.6,0.5c0.8,0,1.1,0.2,1.1,0.7
					s-0.4,3.9-0.4,10.9c0,1.6-0.2,2.4-0.7,2.4c-0.6,0-0.7-0.5-0.8-1.3c-0.1-1.2-0.7-4-1.3-5.2C39.6,12.3,36.8,8,27.3,8
					c-7.1,0-12.7,4.4-12.7,11.9c0,5.9,2.7,9.6,12.6,17.3l2.9,2.3c12.1,9.6,15,15.9,15,24.2c0,4.2-1.6,12-8.8,17.1
					c-4.4,3.1-10,4.3-15.5,4.3C16,84.9,11.3,84.2,7,82.2z"/>
			</g>
			<g>
				<path class="st0" d="M99,4.3c23.2,0,40.4,14.6,40.4,38.6c0,23.1-16.3,42.1-41.1,42.1c-28.2,0-39.9-21.9-39.9-40.4
					C58.5,27.8,70.6,4.3,99,4.3z M101.2,81c9.3,0,28.4-5.3,28.4-35.3c0-24.7-15-38-31.3-38c-17.2,0-30,11.3-30,33.9
					C68.2,65.6,82.7,81,101.2,81z"/>
			</g>
			<g>
				<path class="st0" d="M164.1,69.5c0.2,8.4,1.2,11.1,4,11.9c2,0.5,4.2,0.6,5.2,0.6c0.5,0,0.8,0.2,0.8,0.6c0,0.6-0.6,0.8-1.8,0.8
					c-5.9,0-10-0.3-10.9-0.3s-5.2,0.3-9.9,0.3c-1.1,0-1.6-0.1-1.6-0.8c0-0.4,0.3-0.6,0.8-0.6c0.8,0,2.7-0.1,4.2-0.6
					c2.6-0.7,3.1-3.7,3.1-13.1l0.1-58.9c0-4,0.3-5.2,1.1-5.2c0.8,0,2.6,2.3,3.6,3.3c1.5,1.7,16.9,18.3,32.7,35.3
					c10.2,10.9,21.4,23.5,24.7,26.9l-1.1-52.3c-0.1-6.7-0.8-9-4-9.8c-1.8-0.4-4.2-0.5-5.1-0.5c-0.7,0-0.8-0.3-0.8-0.7
					c0-0.6,0.8-0.7,2.1-0.7c4.6,0,9.6,0.3,10.7,0.3c1.1,0,4.5-0.3,8.8-0.3c1.1,0,1.8,0.1,1.8,0.7c0,0.4-0.4,0.7-1.1,0.7
					c-0.5,0-1.2,0-2.5,0.3c-3.4,0.7-3.8,3-3.8,9.2L225,76.9c0,6.8-0.2,7.3-0.9,7.3c-0.8,0-2.1-1.1-7.5-6.6
					c-1.1-1.1-15.9-16.1-26.9-27.9c-11.9-12.9-23.6-25.8-26.9-29.6L164.1,69.5z"/>
			</g>
			<g>
				<path class="st0" d="M256.7,35.5c0-16,0-18.9-0.2-22.2c-0.2-3.5-1.1-5.2-4.4-5.9c-0.8-0.2-2.6-0.3-3.5-0.3
					c-0.4,0-0.8-0.2-0.8-0.6c0-0.6,0.5-0.8,1.6-0.8C254,5.7,260.5,6,261,6c1.2,0,7.7-0.3,13.9-0.3c10.2,0,29-0.9,41.3,11.7
					c5.2,5.3,10,13.9,10,26.1c0,13-5.3,23-11.1,29c-4.4,4.6-13.7,11.8-31.2,11.8c-4.4,0-9.9-0.3-14.3-0.6c-4.5-0.3-8-0.6-8.5-0.6
					c-0.2,0-2,0-4.1,0.1c-2.1,0-4.4,0.2-6,0.2c-1.1,0-1.6-0.2-1.6-0.8c0-0.3,0.2-0.6,0.8-0.6c0.9,0,2.2-0.2,3.1-0.4
					c2.1-0.4,2.6-2.7,3-5.6c0.5-4.3,0.5-12.5,0.5-22.3V35.5z M265.3,46.7c0,10.9,0.1,20.4,0.2,22.3c0.1,2.6,0.3,6.7,1.1,7.8
					c1.3,2,5.3,4.1,17.5,4.1c9.6,0,18.4-3.5,24.5-9.6c5.3-5.2,8.2-15.1,8.2-24.6c0-13.1-5.6-21.5-9.9-25.9
					c-9.7-10.2-21.4-11.6-33.7-11.6c-2.1,0-5.9,0.3-6.7,0.7c-0.9,0.4-1.2,0.9-1.2,2.1c-0.1,3.5-0.1,14-0.1,21.9V46.7z"/>
			</g>
			<g>
				<path class="st0" d="M410.1,53.7c0,9.9,0,18,0.5,22.3c0.3,3,0.9,5.2,4,5.6c1.4,0.2,3.7,0.4,4.6,0.4c0.6,0,0.8,0.3,0.8,0.6
					c0,0.5-0.5,0.8-1.6,0.8c-5.6,0-12.1-0.3-12.7-0.3s-7,0.3-10.1,0.3c-1.1,0-1.6-0.2-1.6-0.8c0-0.3,0.2-0.6,0.8-0.6
					c0.9,0,2.2-0.2,3.1-0.4c2.1-0.4,2.6-2.7,3-5.6c0.5-4.3,0.5-12.5,0.5-22.3V42.9c0-0.4-0.3-0.6-0.6-0.6h-43.6
					c-0.3,0-0.6,0.1-0.6,0.6v10.8c0,9.9,0,18,0.5,22.3c0.3,3,0.9,5.2,4,5.6c1.4,0.2,3.7,0.4,4.6,0.4c0.6,0,0.8,0.3,0.8,0.6
					c0,0.5-0.5,0.8-1.6,0.8c-5.6,0-12.1-0.3-12.7-0.3s-7,0.3-10.1,0.3c-1.1,0-1.6-0.2-1.6-0.8c0-0.3,0.2-0.6,0.8-0.6
					c0.9,0,2.2-0.2,3.1-0.4c2.1-0.4,2.6-2.7,3-5.6c0.5-4.3,0.5-12.5,0.5-22.3V35.6c0-16,0-18.9-0.2-22.2c-0.2-3.5-1.1-5.2-4.4-5.9
					c-0.8-0.2-2.6-0.3-3.5-0.3c-0.4,0-0.8-0.2-0.8-0.6c0-0.6,0.5-0.8,1.6-0.8c4.6,0,11.1,0.3,11.6,0.3c0.5,0,7-0.3,10.1-0.3
					c1.1,0,1.6,0.2,1.6,0.8c0,0.4-0.4,0.6-0.8,0.6c-0.7,0-1.3,0.1-2.6,0.3c-2.8,0.5-3.6,2.3-3.8,5.9c-0.2,3.3-0.2,6.2-0.2,22.2v2.2
					c0,0.5,0.3,0.6,0.6,0.6H401c0.3,0,0.6-0.1,0.6-0.6v-2.2c0-16,0-18.9-0.2-22.2c-0.2-3.5-1.1-5.2-4.4-5.9
					c-0.8-0.2-2.6-0.3-3.5-0.3c-0.4,0-0.8-0.2-0.8-0.6c0-0.6,0.5-0.8,1.6-0.8c4.6,0,11.1,0.3,11.6,0.3c0.5,0,7-0.3,10.1-0.3
					c1.1,0,1.6,0.2,1.6,0.8c0,0.4-0.4,0.6-0.8,0.6c-0.7,0-1.3,0.1-2.6,0.3c-2.8,0.5-3.6,2.3-3.8,5.9c-0.2,3.3-0.2,6.2-0.2,22.2v18.1
					H410.1z"/>
			</g>
			<g>
				<path class="st0" d="M453.3,53.7c0,9.9,0,18,0.5,22.3c0.3,3,0.9,5.2,4,5.6c1.4,0.2,3.7,0.4,4.6,0.4c0.6,0,0.8,0.3,0.8,0.6
					c0,0.5-0.5,0.8-1.6,0.8c-5.6,0-12.1-0.3-12.7-0.3c-0.5,0-7,0.3-10.1,0.3c-1.1,0-1.6-0.2-1.6-0.8c0-0.3,0.2-0.6,0.8-0.6
					c0.9,0,2.2-0.2,3.1-0.4c2.1-0.4,2.6-2.7,3-5.6c0.5-4.3,0.5-12.5,0.5-22.3V35.6c0-16,0-18.9-0.2-22.2c-0.2-3.5-1.2-5.2-3.5-5.8
					c-1.1-0.3-2.5-0.4-3.2-0.4c-0.4,0-0.8-0.2-0.8-0.6c0-0.6,0.5-0.8,1.6-0.8c3.4,0,9.9,0.3,10.4,0.3s7-0.3,10.1-0.3
					c1.1,0,1.6,0.2,1.6,0.8c0,0.4-0.4,0.6-0.8,0.6c-0.7,0-1.3,0.1-2.6,0.3c-2.8,0.5-3.6,2.3-3.8,5.9c-0.2,3.3-0.2,6.2-0.2,22.2v18.1
					H453.3z"/>
			</g>
		</g>
	</g>
	<g>
		<g>
			<g>
				<path class="st0" d="M542.2,35.9c0-16,0-18.9-0.2-22.2c-0.2-3.5-1.1-5.2-4.4-5.9c-0.8-0.2-2.6-0.3-3.5-0.3
					c-0.4,0-0.8-0.2-0.8-0.6c0-0.6,0.5-0.8,1.6-0.8c4.6,0,11.1,0.3,11.6,0.3c1.2,0,7.7-0.3,13.9-0.3c10.2,0,29-0.9,41.3,11.7
					c5.2,5.3,10,13.9,10,26.1c0,13-5.3,23-11.1,29c-4.4,4.6-13.7,11.8-31.2,11.8c-4.4,0-9.9-0.3-14.3-0.6c-4.5-0.3-8-0.6-8.5-0.6
					c-0.2,0-2,0-4.1,0.1c-2.1,0-4.4,0.2-6,0.2c-1.1,0-1.6-0.2-1.6-0.8c0-0.3,0.2-0.6,0.8-0.6c0.9,0,2.2-0.2,3.1-0.4
					c2.1-0.4,2.6-2.7,3-5.6c0.5-4.3,0.5-12.5,0.5-22.3L542.2,35.9L542.2,35.9z M550.9,46.9c0,10.9,0.1,20.4,0.2,22.3
					c0.1,2.6,0.3,6.7,1.1,7.8c1.3,2,5.3,4.1,17.5,4.1c9.6,0,18.4-3.5,24.5-9.6c5.3-5.2,8.2-15.1,8.2-24.6c0-13.1-5.6-21.5-9.9-25.9
					c-9.7-10.2-21.4-11.6-33.7-11.6c-2.1,0-5.9,0.3-6.7,0.7c-0.9,0.4-1.2,0.9-1.2,2.1c-0.1,3.5-0.1,14-0.1,21.9V46.9z"/>
			</g>
			<g>
				<path class="st0" d="M635.5,35.9c0-16,0-18.9-0.2-22.2c-0.2-3.5-1.1-5.2-4.4-5.9c-0.8-0.2-2.6-0.3-3.5-0.3
					c-0.4,0-0.8-0.2-0.8-0.6c0-0.6,0.5-0.8,1.6-0.8c2.4,0,5.2,0,7.4,0.1l4.2,0.2c0.7,0,21.2,0,23.6-0.1c2-0.1,3.6-0.3,4.4-0.5
					c0.5-0.1,0.9-0.5,1.4-0.5c0.3,0,0.4,0.4,0.4,0.9c0,0.7-0.5,2-0.8,4.9c-0.1,1.1-0.3,5.5-0.5,6.8c-0.1,0.5-0.3,1.1-0.7,1.1
					c-0.6,0-0.8-0.5-0.8-1.3c0-0.7-0.1-2.5-0.6-3.7c-0.7-1.6-1.7-2.9-7.3-3.5c-1.7-0.2-13-0.3-14.1-0.3c-0.4,0-0.6,0.3-0.6,1.1v28.4
					c0,0.7,0.1,1.1,0.6,1.1c1.3,0,14,0,16.4-0.2c2.5-0.2,3.9-0.4,4.9-1.4c0.7-0.8,1.1-1.3,1.5-1.3c0.3,0,0.5,0.2,0.5,0.8
					s-0.5,2.4-0.8,5.8c-0.2,2.1-0.4,5.9-0.4,6.6c0,0.8,0,2-0.7,2c-0.5,0-0.7-0.4-0.7-0.9c0-1.1,0-2.1-0.4-3.4
					c-0.4-1.4-1.3-3.2-5.3-3.6c-2.8-0.3-13-0.5-14.7-0.5c-0.5,0-0.7,0.3-0.7,0.7v9.1c0,3.5-0.1,15.5,0,17.6
					c0.3,7.1,1.8,8.4,11.9,8.4c2.7,0,7.2,0,9.9-1.1c2.7-1.1,3.9-3.2,4.6-7.4c0.2-1.1,0.4-1.5,0.9-1.5c0.6,0,0.6,0.8,0.6,1.5
					c0,0.8-0.8,7.8-1.3,10c-0.7,2.7-1.5,2.7-5.5,2.7c-7.7,0-13.4-0.2-17.4-0.3c-4-0.2-6.5-0.3-8-0.3c-0.2,0-2,0-4.1,0.1
					c-2.1,0-4.4,0.2-6,0.2c-1.1,0-1.6-0.2-1.6-0.8c0-0.3,0.2-0.6,0.8-0.6c0.9,0,2.2-0.2,3.1-0.4c2.1-0.4,2.6-2.7,3-5.6
					c0.5-4.3,0.5-12.5,0.5-22.3L635.5,35.9L635.5,35.9z"/>
			</g>
			<g>
				<path class="st0" d="M702.4,35.9c0-16,0-18.9-0.2-22.2c-0.2-3.5-1.1-5.2-4.4-5.9c-0.8-0.2-2.6-0.3-3.5-0.3
					c-0.4,0-0.8-0.2-0.8-0.6c0-0.6,0.5-0.8,1.6-0.8c2.4,0,5.2,0,7.4,0.1l4.2,0.1c2.1,0,23,0.1,25.3,0c2-0.1,3.6-0.1,4.5-0.4
					c0.6-0.2,1-0.6,1.4-0.6c0.4,0,0.6,0.4,0.6,0.9c0,0.7-0.5,2-0.8,4.9c-0.1,1.1-0.3,5.5-0.5,6.8c-0.1,0.5-0.3,1.1-0.8,1.1
					s-0.7-0.5-0.7-1.2c0-0.8-0.3-2.6-0.9-3.9s-3-3.2-7-3.3l-15.8-0.3c-0.6,0-0.9,0.3-0.9,1.1v28.4c0,0.6,0.1,0.9,0.7,0.9l13.2-0.1
					c1.7,0,3.2,0,4.6-0.1c2.5-0.2,3.8-0.5,4.7-1.8c0.4-0.5,0.7-1.1,1.1-1.1s0.5,0.3,0.5,0.8c0,0.6-0.5,2.4-0.8,5.8
					c-0.2,2.1-0.4,6.2-0.4,6.9c0,0.9,0,2-0.7,2c-0.5,0-0.7-0.4-0.7-0.9c-0.1-1.1-0.2-2.5-0.6-3.7c-0.5-1.4-2.2-3.3-5.3-3.7
					c-2.6-0.3-13.8-0.3-15.5-0.3c-0.5,0-0.7,0.2-0.7,0.9V54c0,9.9,0,18,0.5,22.3c0.3,3,0.9,5.2,4,5.6c1.4,0.2,3.7,0.4,4.6,0.4
					c0.6,0,0.8,0.3,0.8,0.6c0,0.5-0.5,0.8-1.6,0.8c-5.6,0-12.1-0.3-12.7-0.3c-0.5,0-7,0.3-10.1,0.3c-1.1,0-1.6-0.2-1.6-0.8
					c0-0.3,0.2-0.6,0.8-0.6c0.9,0,2.2-0.2,3.1-0.4c2.1-0.4,2.6-2.7,3-5.6c0.5-4.3,0.5-12.5,0.5-22.3V35.9z"/>
			</g>
			<g>
				<path class="st0" d="M765.4,35.9c0-16,0-18.9-0.2-22.2c-0.2-3.5-1.1-5.2-4.4-5.9c-0.8-0.2-2.6-0.3-3.5-0.3
					c-0.4,0-0.8-0.2-0.8-0.6c0-0.6,0.5-0.8,1.6-0.8c2.4,0,5.2,0,7.4,0.1l4.2,0.2c0.7,0,21.2,0,23.6-0.1c2-0.1,3.6-0.3,4.4-0.5
					c0.5-0.1,0.9-0.5,1.4-0.5c0.3,0,0.4,0.4,0.4,0.9c0,0.7-0.5,2-0.8,4.9c-0.1,1.1-0.3,5.5-0.5,6.8c-0.1,0.5-0.3,1.1-0.7,1.1
					c-0.6,0-0.8-0.5-0.8-1.3c0-0.7-0.1-2.5-0.6-3.7c-0.7-1.6-1.7-2.9-7.3-3.5c-1.7-0.2-13-0.3-14.1-0.3c-0.4,0-0.6,0.3-0.6,1.1v28.4
					c0,0.7,0.1,1.1,0.6,1.1c1.3,0,14,0,16.4-0.2c2.5-0.2,3.9-0.4,4.9-1.4c0.7-0.8,1.1-1.3,1.5-1.3c0.3,0,0.5,0.2,0.5,0.8
					s-0.5,2.4-0.8,5.8c-0.2,2.1-0.4,5.9-0.4,6.6c0,0.8,0,2-0.7,2c-0.5,0-0.7-0.4-0.7-0.9c0-1.1,0-2.1-0.4-3.4
					c-0.4-1.4-1.3-3.2-5.3-3.6c-2.8-0.3-13-0.5-14.7-0.5c-0.5,0-0.7,0.3-0.7,0.7v9.1c0,3.5-0.1,15.5,0,17.6
					c0.3,7.1,1.8,8.4,11.9,8.4c2.7,0,7.2,0,9.9-1.1c2.7-1.1,3.9-3.2,4.6-7.4c0.2-1.1,0.4-1.5,0.9-1.5c0.6,0,0.6,0.8,0.6,1.5
					c0,0.8-0.8,7.8-1.3,10c-0.7,2.7-1.5,2.7-5.5,2.7c-7.7,0-13.4-0.2-17.4-0.3c-4-0.2-6.5-0.3-8-0.3c-0.2,0-2,0-4.1,0.1
					c-2.1,0-4.4,0.2-6,0.2c-1.1,0-1.6-0.2-1.6-0.8c0-0.3,0.2-0.6,0.8-0.6c0.9,0,2.2-0.2,3.1-0.4c2.1-0.4,2.6-2.7,3-5.6
					c0.5-4.3,0.5-12.5,0.5-22.3L765.4,35.9L765.4,35.9z"/>
			</g>
			<g>
				<path class="st0" d="M833,69.8c0.2,8.4,1.2,11.1,4,11.9c2,0.5,4.2,0.6,5.2,0.6c0.5,0,0.8,0.2,0.8,0.6c0,0.6-0.6,0.8-1.8,0.8
					c-5.9,0-10-0.3-10.9-0.3c-0.9,0-5.2,0.3-9.9,0.3c-1,0-1.6-0.1-1.6-0.8c0-0.4,0.3-0.6,0.8-0.6c0.8,0,2.7-0.1,4.2-0.6
					c2.6-0.7,3.1-3.7,3.1-13.1L827,9.7c0-4,0.3-5.2,1.1-5.2c0.8,0,2.6,2.3,3.6,3.3c1.5,1.7,16.9,18.3,32.7,35.3
					c10.2,10.9,21.4,23.5,24.7,26.9L888,17.6c-0.1-6.7-0.8-9-4-9.8c-1.8-0.4-4.2-0.5-5.1-0.5c-0.7,0-0.8-0.3-0.8-0.7
					c0-0.6,0.8-0.7,2.1-0.7c4.6,0,9.6,0.3,10.7,0.3c1.1,0,4.5-0.3,8.8-0.3c1.1,0,1.8,0.1,1.8,0.7c0,0.4-0.4,0.7-1.1,0.7
					c-0.5,0-1.2,0-2.5,0.3c-3.4,0.7-3.8,3-3.8,9.2l-0.2,60.3c0,6.8-0.2,7.3-0.9,7.3c-0.8,0-2.1-1.1-7.5-6.6
					c-1.1-1.1-15.9-16.1-26.9-27.9c-11.9-12.9-23.6-25.8-26.9-29.6L833,69.8z"/>
			</g>
			<g>
				<path class="st0" d="M926.9,74.1c-10-9-12.5-20.7-12.5-30.4c0-6.9,2.4-18.9,11.5-28.1c6.2-6.2,15.5-11,31.4-11
					c4.1,0,9.9,0.3,14.9,1.2c3.9,0.7,7.2,1.3,10.5,1.5c1.1,0.1,1.3,0.5,1.3,1.1c0,0.8-0.3,2.1-0.5,5.8c-0.2,3.4-0.2,9.1-0.3,10.6
					c-0.1,1.5-0.3,2.2-0.9,2.2c-0.7,0-0.8-0.7-0.8-2.2c0-4-1.6-8.2-4.3-10.5c-3.6-3.1-11.5-5.9-20.6-5.9c-13.7,0-20.1,4-23.7,7.5
					c-7.5,7.2-9.3,16.4-9.3,26.9c0,19.6,15.1,37.7,37.2,37.7c7.7,0,13.8-0.9,17.9-5.2c2.2-2.3,3.5-6.8,3.8-8.7
					c0.2-1.1,0.4-1.5,1.1-1.5c0.5,0,0.7,0.7,0.7,1.5c0,0.7-1.2,9.7-2.3,13.2c-0.6,2-0.8,2.2-2.7,3c-4.1,1.6-11.9,2.4-18.5,2.4
					C945.4,85.2,935,81.4,926.9,74.1z"/>
			</g>
			<g>
				<path class="st0" d="M1009,35.9c0-16,0-18.9-0.2-22.2c-0.2-3.5-1.1-5.2-4.4-5.9c-0.8-0.2-2.6-0.3-3.5-0.3
					c-0.4,0-0.8-0.2-0.8-0.6c0-0.6,0.5-0.8,1.6-0.8c2.4,0,5.2,0,7.4,0.1l4.2,0.2c0.7,0,21.2,0,23.6-0.1c2-0.1,3.6-0.3,4.4-0.5
					c0.5-0.1,0.9-0.5,1.4-0.5c0.3,0,0.4,0.4,0.4,0.9c0,0.7-0.5,2-0.8,4.9c-0.1,1.1-0.3,5.5-0.5,6.8c-0.1,0.5-0.3,1.1-0.7,1.1
					c-0.6,0-0.8-0.5-0.8-1.3c0-0.7-0.1-2.5-0.6-3.7c-0.7-1.6-1.7-2.9-7.3-3.5c-1.7-0.2-13-0.3-14.1-0.3c-0.4,0-0.6,0.3-0.6,1.1v28.4
					c0,0.7,0.1,1.1,0.6,1.1c1.3,0,14,0,16.4-0.2c2.5-0.2,3.9-0.4,4.9-1.4c0.7-0.8,1.1-1.3,1.5-1.3c0.3,0,0.5,0.2,0.5,0.8
					s-0.5,2.4-0.8,5.8c-0.2,2.1-0.4,5.9-0.4,6.6c0,0.8,0,2-0.7,2c-0.5,0-0.7-0.4-0.7-0.9c0-1.1,0-2.1-0.4-3.4
					c-0.4-1.4-1.3-3.2-5.3-3.6c-2.8-0.3-13-0.5-14.7-0.5c-0.5,0-0.7,0.3-0.7,0.7v9.1c0,3.5-0.1,15.5,0,17.6
					c0.3,7.1,1.8,8.4,11.9,8.4c2.7,0,7.2,0,9.9-1.1c2.7-1.1,3.9-3.2,4.6-7.4c0.2-1.1,0.4-1.5,0.9-1.5c0.6,0,0.6,0.8,0.6,1.5
					c0,0.8-0.8,7.8-1.3,10c-0.7,2.7-1.5,2.7-5.5,2.7c-7.7,0-13.4-0.2-17.4-0.3c-4-0.2-6.5-0.3-8-0.3c-0.2,0-2,0-4.1,0.1
					c-2.1,0-4.4,0.2-6,0.2c-1.1,0-1.6-0.2-1.6-0.8c0-0.3,0.2-0.6,0.8-0.6c0.9,0,2.2-0.2,3.1-0.4c2.1-0.4,2.6-2.7,3-5.6
					c0.5-4.3,0.5-12.5,0.5-22.3L1009,35.9L1009,35.9z"/>
			</g>
		</g>
	</g>
</g>
</svg>
