<?xml version="1.0" encoding="utf-8"?>
<!-- Generator: Adobe Illustrator 22.0.0, SVG Export Plug-In . SVG Version: 6.00 Build 0)  -->
<svg version="1.1" id="Layer_1" xmlns="http://www.w3.org/2000/svg" xmlns:xlink="http://www.w3.org/1999/xlink" x="0px" y="0px"
	 viewBox="0 0 454 121" style="enable-background:new 0 0 454 121;" xml:space="preserve">
<style type="text/css">
	.st0{fill:#FFFFFF;}
</style>
<g>
	<path class="st0" d="M41.6,22.5l1.6,0l0.8-1.3l-1.5,0l1.5-2.7l-1.5,0l-1.2,2l-1.6-2.7l-0.4,0.7l-0.7,0l1.6,2.7l-2.4,0l-0.8,1.4H40
		l-0.8,1.3l1.6,0L41.6,22.5z M39.6,15.1l1.6,2.7l0.4-0.7l4.7,0.1l-1.6,2.7l1.6,0l-2.4,4.1l-1.6,0l-0.8,1.4l-4.7,0l0.8-1.3l-3.1,0
		l2.3-4.1h0.8l-1.6-2.7l2.4,0L39.6,15.1z M77.4,89.4l1.4,0.8l1.3-0.8l-1.3-0.8l2.7-1.6l-1.3-0.8l-2,1.2v-3.1l-0.7,0.4l-0.7-0.4v3.1
		l-2.1-1.2l-1.4,0.8l2.7,1.6l-1.4,0.8l1.4,0.8L77.4,89.4z M79.4,82v3.1l0.7-0.4l4,2.4l-2.7,1.5l1.4,0.8l-4.1,2.4L77.3,91L76,91.8
		l-4.1-2.4l1.3-0.8l-2.7-1.6l4-2.4l0.7,0.4V82l2.1,1.2L79.4,82z M44.1,89.4l1.4,0.8l1.3-0.8l-1.3-0.8l2.6-1.6l-1.3-0.8l-2,1.2v-3.1
		l-0.7,0.4l-0.7-0.4v3.1l-2.1-1.2L40,87.1l2.7,1.6l-1.4,0.8l1.4,0.8L44.1,89.4z M46.2,82v3.1l0.7-0.4l4,2.4l-2.7,1.5l1.4,0.8
		l-4.1,2.4L44.1,91l-1.4,0.8l-4.1-2.4l1.3-0.8l-2.7-1.6l4-2.4l0.7,0.4V82l2.1,1.2L46.2,82z M40.2,62.3l0,17.7l20.4-11.8L81.1,80
		V49.6l-8.1,0l-2.7-4.7l0-12.8l-4-7.2v-4l-2.6,4.5l1.6,2.7h-3.2l-1.4,2.5h7.1l0,15l2.3,4l-3.6,0L60.7,53l-5.9-3.4V43L50,34.8h8.4
		l1,1.6l6.1,0l0-2.4l-4.7,0l-1-1.6H48.7l-1.5,2.5l5.1,8.9v5.9l-11.9,0l-2.9-5.2h-6.6l-1.4,2.5H36l4.2,7.1l0,3.4l-4-6.9l-2.6,4.5l0,8
		l-10.9,0l0-7l-3.1-5.5l-5.1,8.9v2.8l-1.6,2.7l0-7.7l5.9-10.2h5.7l-1.4-2.4h-5.8l-6.9,11.9v12.8l-2.6,4.4l2.7,4.6l0,25.2l7.4,0
		l0-8.6l-0.8-0.5l0-7.6l-2.5-1.4v8.6l0.9,0.5l0,6.7l-2.5,0V77.3l-2.2-3.9l1-1.6l1.2,2.1v-4.3l4.1-7v-2.9l2.6-4.5l0.6,1.1V63h-1.6
		l0,14.2l0.9-0.5l0,31.1l2.5-4.5l0-28l2.6-1.5l2.6,4.6l1.4-0.8l0,25.7h2.5l0-27.1l2.5-1.4l0,13l-0.8,0.5l0,13l3.5,2h5l-6-3.5l0-12.1
		l0.7-0.5l0-13.9l1-0.6v-9.8h-0.9v-7.7L40.2,62.3z M71.3,35.3v2.9l4.9,2.8l2.3-4.2l-4.8-8.4v-4.2l-4.1-7.1l-8,0l-6.5,3.7l-4,0
		L45.6,24l2.5,4.2l2.9,0l1.4-2.5l-2.9,0L49.1,25l2.8-1.7h4l6.4-3.7l5.9,0l3,5.3v4.1l4.5,7.7l-0.4,0.8L71.3,35.3z M57.9,30.7l1.5-2.5
		l0-5l-2.9,5.1h-3.6l-1.4,2.5H57.9z M45.4,55.4v2.3h2.1v8h2.4v-3.9h3.4v3.9h2.4v-6.3h-5.8v-2.4h5.8v-1.5L45.4,55.4z M44.6,59.3h1.6
		v4h-1.6V59.3z M65.9,55.4v2.3H68v8h2.4v-3.9h3.4v3.9h2.4v-6.3h-5.8v-2.4h5.8v-1.5L65.9,55.4z M65.1,59.3h1.6v4h-1.6V59.3z
		 M56.4,100.9c1.2,0,2.3-1,2.3-2.3c0-1.2-1-2.3-2.3-2.3s-2.3,1-2.3,2.3C54.1,99.9,55.1,100.9,56.4,100.9 M60.7,101.3
		c0.7,0,1.3-0.6,1.3-1.3c0-0.7-0.6-1.3-1.3-1.3c-0.7,0-1.3,0.6-1.3,1.3C59.4,100.7,60,101.3,60.7,101.3 M60.8,97.7
		c1.2,0,2.3-1,2.3-2.3c0-1.2-1-2.3-2.3-2.3c-1.2,0-2.3,1-2.3,2.3C58.5,96.7,59.5,97.7,60.8,97.7 M65.2,100.9c1.2,0,2.3-1,2.3-2.3
		c0-1.2-1-2.3-2.3-2.3c-1.2,0-2.3,1-2.3,2.3C62.9,99.9,63.9,100.9,65.2,100.9 M63.4,106c1.2,0,2.3-1,2.3-2.3c0-1.2-1-2.2-2.3-2.2
		c-1.2,0-2.3,1-2.3,2.2C61.2,105,62.2,106,63.4,106 M58,106c1.2,0,2.3-1,2.3-2.3c0-1.2-1-2.3-2.3-2.3c-1.2,0-2.3,1-2.3,2.3
		C55.8,105,56.8,106,58,106 M42.7,75.7V52.1H54l6.7,3.9l6.7-3.9h11.3v23.6l-18-10.3L42.7,75.7z M60.7,78.6l-4-2.3l-2.3,1.3v4.6
		l2.3-1.3l4,2.4l4-2.3l2.2,1.2v-4.6l-2.2-1.3L60.7,78.6z M60.7,75.7l4-2.3l4.7,2.8v10.2l-4.7-2.6l-4,2.3l-4-2.3L52,86.5l0-10.3
		l4.8-2.8L60.7,75.7z M60.7,87.8L39.6,100L60.7,112L81.6,100L60.7,87.8z M76.6,99.9l-15.9,9.2l-16.1-9.2l16.1-9.3L76.6,99.9z
		 M21.1,67.7l2.2,4l-2.2,1.2V67.7z M34.5,71.4l-6.2,3.5l-5.6-9.6h11.9V71.4z M24.9,36.3h1.7l0,1.6h-1.7V36.3z M25.7,40.8l0-1.2
		l2.6,0v1.2l1.7-2.8h-2.5v-1.6l2.5,0v-1.9l-1.1-0.6l-3.6,0L24,34.4l0,3.5L25.7,40.8z M28.5,45.2h-3.1l-3.8-6.5v-5.8l2.9-1.7h4.9
		l2.9,1.7v5.7L28.5,45.2z M26.8,57.4l2.5,4.3l0-6.7l3.1,0l-1.5-2.5h-1.7l-2.4-4.2l0,4.2h-2.8l1.5,2.5h1.4V57.4z M23.7,91.1l0.9-0.5
		l0-9.6l2.5-1.4v10.6l-0.8,0.5v12.7l-2.5,4.4V91.1z M96.3,34.9l-2.5,1.4l0-1.8l2.5-1.4l2.4,1.5v1.8L96.3,34.9z M89.4,57l-0.6,1.1
		l-4-7l2.1-1.2l2.5,4.4V57z M89.4,62.2l2.6-4.4h7.4l2.5,4.4l0,27l-5.7-3.3v2.9l8.1,4.7l0-33l1.6-0.9V81l2.5,1.5V55.3l-5.8,3.3
		l-0.8-1.4l0-2.8l1.7-3l0,4.8l6.6-3.8l0,4.8l2.5-1.5v-4.3h1.9l0-2.5l-3.8,2.2l-3.8-2.2l0,2.5l-1.7,1l0-3.9l-2.8-4.8l-3.3-1.9
		l2.1-3.7l0-5l-4.9-2.8l-4.9,2.8l0,5l2.5,1.4l0-1l2.4-1.4l2,1.2l-2,3.2v5l1.6-2.6l2.7,1.5l1.7,3l-2.9,5.1l0,1.7l-7.5,0l0-1.6l-3-5.1
		l1.7-3l3.2-1.9v-2.9L89,43.7l-2.8,4.9l-0.4-0.7l-4.2,2.5l5.4,9.3V103l2.5,1.4V62.2z M111.9,34.8v-5l-1.2-2.1l-1.2,2.2v4.9h-4.1
		l-3.1,5.4l3.2,1.9l3.3-1.9l-0.5-0.8h-4.5l2-3.6h3.8v12.8l1.3,0.7l1.2-0.7l0-12.8l3.8,0l2,3.6h-4.5l-0.5,0.8l3.3,1.9l3.2-1.9
		l-3.1-5.4L111.9,34.8z M104.3,95.5v9l-2.5-1.4v-9L104.3,95.5z M100.3,93.1v11.4l-2.5-1.5l0-11.4L100.3,93.1z M96.1,81.2V84l4.1,2.4
		l0-23.8l-2.5-4.3v23.9L96.1,81.2z M85.2,60.1v22.3l-2.5-1.4V55.8L85.2,60.1z"/>
	<g>
		<rect x="298" y="15" class="st0" width="1.2" height="99"/>
	</g>
	<g>
		<path class="st0" d="M139,34.9h2.6v18h8.6v2.2H139V34.9z"/>
		<path class="st0" d="M161.1,55.1l-0.2-1.8h-0.1c-0.8,1.1-2.4,2.2-4.4,2.2c-2.9,0-4.4-2.1-4.4-4.2c0-3.5,3.1-5.4,8.7-5.4v-0.3
			c0-1.2-0.3-3.4-3.3-3.3c-1.4,0-2.8,0.4-3.8,1.1l-0.6-1.8c1.2-0.8,3-1.3,4.8-1.3c4.4,0,5.5,3,5.5,5.9v5.4c0,1.2,0.1,2.5,0.2,3.5
			H161.1z M160.7,47.7c-2.9-0.1-6.1,0.5-6.1,3.3c0,1.7,1.1,2.5,2.5,2.5c1.9,0,3.1-1.2,3.5-2.4c0.1-0.3,0.1-0.6,0.1-0.8V47.7z"/>
		<path class="st0" d="M168.3,40.6l1.9,7.4c0.4,1.6,0.8,3.1,1.1,4.6h0.1c0.3-1.5,0.8-3,1.3-4.6l2.4-7.4h2.2l2.3,7.3
			c0.5,1.7,0.9,3.3,1.3,4.7h0.1c0.3-1.5,0.7-3,1.1-4.7l2.1-7.3h2.6L182,55.1h-2.4l-2.2-6.9c-0.5-1.6-0.9-3.1-1.3-4.8h-0.1
			c-0.4,1.8-0.8,3.3-1.3,4.8l-2.3,6.9H170l-4.4-14.5H168.3z"/>
		<path class="st0" d="M195.5,51.9c1.2,0.7,2.9,1.3,4.7,1.3c2.7,0,4.2-1.4,4.2-3.4c0-1.9-1.1-3-3.8-4c-3.3-1.2-5.3-2.9-5.3-5.7
			c0-3.1,2.6-5.5,6.6-5.5c2.1,0,3.6,0.5,4.5,1l-0.7,2.1c-0.6-0.4-2-1-3.8-1c-2.8,0-3.8,1.6-3.8,3c0,1.9,1.2,2.8,4,3.9
			c3.4,1.3,5.2,3,5.2,6c0,3.1-2.3,5.8-7.1,5.8c-2,0-4.1-0.6-5.2-1.3L195.5,51.9z"/>
		<path class="st0" d="M223.8,47.7c0,5.4-3.7,7.7-7.2,7.7c-3.9,0-7-2.9-7-7.5c0-4.9,3.2-7.7,7.2-7.7C221,40.3,223.8,43.3,223.8,47.7
			z M212.3,47.9c0,3.2,1.8,5.6,4.4,5.6c2.5,0,4.4-2.4,4.4-5.7c0-2.5-1.2-5.6-4.4-5.6C213.7,42.2,212.3,45.1,212.3,47.9z"/>
		<path class="st0" d="M237.5,54.6c-0.7,0.3-2.2,0.8-4.2,0.8c-4.4,0-7.2-3-7.2-7.4c0-4.5,3.1-7.7,7.8-7.7c1.6,0,3,0.4,3.7,0.8
			l-0.6,2c-0.6-0.3-1.6-0.7-3.1-0.7c-3.3,0-5.1,2.5-5.1,5.5c0,3.4,2.2,5.4,5.1,5.4c1.5,0,2.5-0.4,3.2-0.7L237.5,54.6z"/>
		<path class="st0" d="M243.6,36.5c0,0.9-0.6,1.6-1.7,1.6c-1,0-1.6-0.7-1.6-1.6c0-0.9,0.7-1.6,1.6-1.6
			C242.9,34.9,243.6,35.6,243.6,36.5z M240.6,55.1V40.6h2.6v14.5H240.6z"/>
		<path class="st0" d="M249.1,48.3c0.1,3.6,2.3,5,5,5c1.9,0,3-0.3,4-0.7l0.5,1.9c-0.9,0.4-2.5,0.9-4.8,0.9c-4.5,0-7.1-3-7.1-7.3
			c0-4.4,2.6-7.8,6.8-7.8c4.7,0,6,4.2,6,6.8c0,0.6,0,1-0.1,1.2H249.1z M256.8,46.4c0-1.7-0.7-4.3-3.6-4.3c-2.7,0-3.8,2.4-4.1,4.3
			H256.8z"/>
		<path class="st0" d="M265.8,36.4v4.2h3.8v2h-3.8v7.8c0,1.8,0.5,2.8,2,2.8c0.7,0,1.2-0.1,1.5-0.2l0.1,2c-0.5,0.2-1.3,0.4-2.4,0.4
			c-1.2,0-2.2-0.4-2.8-1.1c-0.7-0.8-1-2.1-1-3.8v-7.9H261v-2h2.2v-3.5L265.8,36.4z"/>
		<path class="st0" d="M273.8,40.6l3.2,8.6c0.3,1,0.7,2.1,0.9,3h0.1c0.3-0.9,0.6-2,0.9-3l2.9-8.5h2.8l-4,10.3c-1.9,5-3.2,7.5-5,9.1
			c-1.3,1.1-2.6,1.6-3.2,1.7l-0.7-2.2c0.7-0.2,1.5-0.6,2.3-1.3c0.7-0.6,1.6-1.6,2.2-2.9c0.1-0.3,0.2-0.5,0.2-0.6
			c0-0.1,0-0.4-0.2-0.7L271,40.6H273.8z"/>
		<path class="st0" d="M173.5,83.7c0,5.4-3.7,7.7-7.2,7.7c-3.9,0-7-2.9-7-7.5c0-4.9,3.2-7.7,7.2-7.7
			C170.6,76.3,173.5,79.3,173.5,83.7z M162,83.9c0,3.2,1.8,5.6,4.4,5.6c2.5,0,4.4-2.4,4.4-5.7c0-2.5-1.2-5.6-4.4-5.6
			C163.3,78.2,162,81.1,162,83.9z"/>
		<path class="st0" d="M177.1,91.1V78.6h-2v-2h2v-0.7c0-2,0.5-3.9,1.7-5.1c1-1,2.3-1.3,3.5-1.3c1,0,1.7,0.2,2.3,0.4l-0.3,2
			c-0.4-0.2-0.9-0.3-1.7-0.3c-2.2,0-2.8,2-2.8,4.2v0.8h3.5v2h-3.5v12.5H177.1z"/>
		<path class="st0" d="M209.3,80.8c0,6.9-4.2,10.6-9.4,10.6c-5.4,0-9.1-4.2-9.1-10.3c0-6.4,4-10.6,9.4-10.6
			C205.7,70.6,209.3,74.8,209.3,80.8z M193.6,81.1c0,4.3,2.3,8.2,6.5,8.2c4.1,0,6.5-3.8,6.5-8.4c0-4-2.1-8.2-6.4-8.2
			C195.8,72.7,193.6,76.7,193.6,81.1z"/>
		<path class="st0" d="M212.6,80.5c0-1.5,0-2.7-0.1-3.9h2.3L215,79h0.1c0.7-1.4,2.4-2.7,4.8-2.7c2,0,5.1,1.2,5.1,6.2v8.7h-2.6v-8.4
			c0-2.3-0.9-4.3-3.4-4.3c-1.7,0-3.1,1.2-3.6,2.7c-0.1,0.3-0.2,0.8-0.2,1.2v8.7h-2.6V80.5z"/>
		<path class="st0" d="M232.3,72.4v4.2h3.8v2h-3.8v7.8c0,1.8,0.5,2.8,2,2.8c0.7,0,1.2-0.1,1.5-0.2l0.1,2c-0.5,0.2-1.3,0.4-2.4,0.4
			c-1.2,0-2.2-0.4-2.8-1.1c-0.7-0.8-1-2.1-1-3.8v-7.9h-2.2v-2h2.2v-3.5L232.3,72.4z"/>
		<path class="st0" d="M247.2,91.1l-0.2-1.8h-0.1c-0.8,1.1-2.4,2.2-4.4,2.2c-2.9,0-4.4-2.1-4.4-4.2c0-3.5,3.1-5.4,8.7-5.4v-0.3
			c0-1.2-0.3-3.4-3.3-3.3c-1.4,0-2.8,0.4-3.8,1.1l-0.6-1.8c1.2-0.8,3-1.3,4.8-1.3c4.4,0,5.5,3,5.5,5.9v5.4c0,1.2,0.1,2.5,0.2,3.5
			H247.2z M246.8,83.7c-2.9-0.1-6.1,0.5-6.1,3.3c0,1.7,1.1,2.5,2.5,2.5c1.9,0,3.1-1.2,3.5-2.4c0.1-0.3,0.1-0.6,0.1-0.8V83.7z"/>
		<path class="st0" d="M253.6,81.1c0-1.7,0-3.2-0.1-4.5h2.3l0.1,2.8h0.1c0.7-1.9,2.3-3.2,4-3.2c0.3,0,0.5,0,0.7,0.1v2.5
			c-0.3-0.1-0.5-0.1-0.9-0.1c-1.9,0-3.2,1.4-3.5,3.4c-0.1,0.4-0.1,0.8-0.1,1.2v7.8h-2.6V81.1z"/>
		<path class="st0" d="M266.5,72.5c0,0.9-0.6,1.6-1.7,1.6c-1,0-1.6-0.7-1.6-1.6c0-0.9,0.7-1.6,1.6-1.6
			C265.8,70.9,266.5,71.6,266.5,72.5z M263.5,91.1V76.6h2.6v14.5H263.5z"/>
		<path class="st0" d="M283.7,83.7c0,5.4-3.7,7.7-7.2,7.7c-3.9,0-7-2.9-7-7.5c0-4.9,3.2-7.7,7.2-7.7
			C280.9,76.3,283.7,79.3,283.7,83.7z M272.2,83.9c0,3.2,1.8,5.6,4.4,5.6c2.5,0,4.4-2.4,4.4-5.7c0-2.5-1.2-5.6-4.4-5.6
			C273.5,78.2,272.2,81.1,272.2,83.9z"/>
	</g>
	<g>
		<path class="st0" d="M312.7,35.2c1.2-0.3,3-0.4,4.8-0.4c2.6,0,4.3,0.4,5.6,1.5c1,0.8,1.7,2,1.7,3.6c0,2-1.3,3.7-3.4,4.4v0.1
			c1.9,0.5,4.2,2,4.2,5.1c0,1.7-0.7,3.1-1.7,4c-1.4,1.3-3.7,1.9-7,1.9c-1.8,0-3.2-0.1-4.1-0.2V35.2z M315.3,43.4h2.4
			c2.7,0,4.4-1.5,4.4-3.4c0-2.3-1.8-3.3-4.4-3.3c-1.2,0-1.9,0.1-2.3,0.2V43.4z M315.3,53.1c0.5,0.1,1.3,0.1,2.2,0.1
			c2.7,0,5.2-1,5.2-3.9c0-2.7-2.4-3.9-5.2-3.9h-2.2V53.1z"/>
		<path class="st0" d="M337,55.1l-0.2-1.8h-0.1c-0.8,1.1-2.4,2.2-4.4,2.2c-2.9,0-4.4-2.1-4.4-4.2c0-3.5,3.1-5.4,8.7-5.4v-0.3
			c0-1.2-0.3-3.4-3.3-3.3c-1.3,0-2.8,0.4-3.8,1.1l-0.6-1.8c1.2-0.8,3-1.3,4.8-1.3c4.4,0,5.5,3,5.5,5.9v5.4c0,1.2,0.1,2.5,0.2,3.5
			H337z M336.6,47.7c-2.9-0.1-6.1,0.5-6.1,3.3c0,1.7,1.1,2.5,2.5,2.5c1.9,0,3.1-1.2,3.5-2.4c0.1-0.3,0.1-0.6,0.1-0.8V47.7z"/>
		<path class="st0" d="M343.4,45.1c0-1.7,0-3.2-0.1-4.5h2.3l0.1,2.8h0.1c0.7-1.9,2.3-3.2,4-3.2c0.3,0,0.5,0,0.7,0.1v2.5
			c-0.3-0.1-0.5-0.1-0.9-0.1c-1.9,0-3.2,1.4-3.5,3.4c-0.1,0.4-0.1,0.8-0.1,1.2v7.8h-2.6V45.1z"/>
		<path class="st0" d="M353.3,45.1c0-1.7,0-3.2-0.1-4.5h2.3l0.1,2.8h0.1c0.7-1.9,2.3-3.2,4-3.2c0.3,0,0.5,0,0.7,0.1v2.5
			c-0.3-0.1-0.5-0.1-0.9-0.1c-1.9,0-3.2,1.4-3.5,3.4c-0.1,0.4-0.1,0.8-0.1,1.2v7.8h-2.6V45.1z"/>
		<path class="st0" d="M364.3,48.3c0.1,3.6,2.3,5,5,5c1.9,0,3-0.3,4-0.7l0.5,1.9c-0.9,0.4-2.5,0.9-4.8,0.9c-4.5,0-7.1-3-7.1-7.3
			c0-4.4,2.6-7.8,6.8-7.8c4.7,0,6,4.2,6,6.8c0,0.6,0,1-0.1,1.2H364.3z M372,46.4c0-1.7-0.7-4.3-3.6-4.3c-2.7,0-3.8,2.4-4.1,4.3H372z
			"/>
		<path class="st0" d="M385.9,55.1l-0.2-1.8h-0.1c-0.8,1.1-2.4,2.2-4.4,2.2c-2.9,0-4.4-2.1-4.4-4.2c0-3.5,3.1-5.4,8.7-5.4v-0.3
			c0-1.2-0.3-3.4-3.3-3.3c-1.3,0-2.8,0.4-3.8,1.1l-0.6-1.8c1.2-0.8,3-1.3,4.8-1.3c4.4,0,5.5,3,5.5,5.9v5.4c0,1.2,0.1,2.5,0.2,3.5
			H385.9z M385.5,47.7c-2.9-0.1-6.1,0.5-6.1,3.3c0,1.7,1.1,2.5,2.5,2.5c1.9,0,3.1-1.2,3.5-2.4c0.1-0.3,0.1-0.6,0.1-0.8V47.7z"/>
		<path class="st0" d="M404.5,51.1c0,1.5,0,2.8,0.1,4h-2.3l-0.1-2.4h-0.1c-0.7,1.2-2.2,2.7-4.8,2.7c-2.3,0-5-1.3-5-6.4v-8.5h2.6v8
			c0,2.8,0.9,4.6,3.2,4.6c1.8,0,3-1.2,3.5-2.4c0.1-0.4,0.2-0.9,0.2-1.4v-8.9h2.6V51.1z"/>
		<path class="st0" d="M325.1,69.8v17.6c0,1.3,0,2.7,0.1,3.7h-2.3l-0.1-2.5h-0.1c-0.8,1.6-2.6,2.8-4.9,2.8c-3.5,0-6.2-3-6.2-7.4
			c0-4.8,3-7.8,6.5-7.8c2.2,0,3.7,1,4.4,2.2h0.1v-8.7H325.1z M322.5,82.5c0-0.3,0-0.8-0.1-1.1c-0.4-1.7-1.8-3-3.8-3
			c-2.7,0-4.4,2.4-4.4,5.6c0,2.9,1.5,5.4,4.3,5.4c1.8,0,3.4-1.2,3.9-3.2c0.1-0.3,0.1-0.7,0.1-1.1V82.5z"/>
		<path class="st0" d="M331,84.3c0.1,3.6,2.3,5,5,5c1.9,0,3-0.3,4-0.7l0.5,1.9c-0.9,0.4-2.5,0.9-4.8,0.9c-4.5,0-7.1-3-7.1-7.3
			c0-4.4,2.6-7.8,6.8-7.8c4.7,0,6,4.2,6,6.8c0,0.6,0,1-0.1,1.2H331z M338.7,82.4c0-1.7-0.7-4.3-3.6-4.3c-2.7,0-3.8,2.4-4.1,4.3
			H338.7z"/>
		<path class="st0" d="M350.9,69.8h2.6v21.3h-2.6V69.8z"/>
		<path class="st0" d="M361.5,70.6c-0.7,2.5-2,5.7-2.8,7.1l-1.7,0.2c0.7-1.8,1.4-4.9,1.8-7L361.5,70.6z"/>
		<path class="st0" d="M381,80.8c0,7-4.2,10.6-9.4,10.6c-5.3,0-9.1-4.1-9.1-10.3c0-6.4,4-10.6,9.4-10.6
			C377.4,70.6,381,74.8,381,80.8z M365.3,81.1c0,4.3,2.3,8.2,6.4,8.2c4.1,0,6.5-3.8,6.5-8.4c0-4-2.1-8.2-6.4-8.2
			C367.5,72.7,365.3,76.7,365.3,81.1z"/>
		<path class="st0" d="M384.3,80.5c0-1.5,0-2.7-0.1-3.9h2.3l0.1,2.4h0.1c0.7-1.4,2.4-2.7,4.8-2.7c2,0,5.1,1.2,5.1,6.2v8.7H394v-8.4
			c0-2.3-0.9-4.3-3.4-4.3c-1.7,0-3.1,1.2-3.5,2.7c-0.1,0.3-0.2,0.8-0.2,1.2v8.7h-2.6V80.5z"/>
		<path class="st0" d="M409,91.1l-0.2-1.8h-0.1c-0.8,1.1-2.4,2.2-4.4,2.2c-2.9,0-4.4-2.1-4.4-4.2c0-3.5,3.1-5.4,8.7-5.4v-0.3
			c0-1.2-0.3-3.4-3.3-3.4c-1.3,0-2.8,0.4-3.8,1.1l-0.6-1.7c1.2-0.8,2.9-1.3,4.8-1.3c4.4,0,5.5,3,5.5,5.9v5.4c0,1.3,0.1,2.5,0.2,3.5
			H409z M408.6,83.7c-2.9-0.1-6.2,0.5-6.2,3.3c0,1.7,1.1,2.5,2.5,2.5c1.9,0,3.1-1.2,3.5-2.4c0.1-0.3,0.2-0.6,0.2-0.8V83.7z"/>
		<path class="st0" d="M415.4,81.1c0-1.7,0-3.2-0.1-4.5h2.3l0.1,2.8h0.1c0.7-1.9,2.2-3.2,4-3.2c0.3,0,0.5,0,0.8,0.1v2.5
			c-0.3-0.1-0.5-0.1-0.9-0.1c-1.9,0-3.2,1.4-3.5,3.4c-0.1,0.4-0.1,0.8-0.1,1.2v7.7h-2.6V81.1z"/>
		<path class="st0" d="M428.3,72.5c0,0.9-0.6,1.6-1.7,1.6c-0.9,0-1.6-0.7-1.6-1.6c0-0.9,0.7-1.6,1.6-1.6
			C427.7,70.9,428.3,71.6,428.3,72.5z M425.4,91.1V76.6h2.6v14.5H425.4z"/>
		<path class="st0" d="M445.5,83.7c0,5.4-3.7,7.7-7.2,7.7c-3.9,0-7-2.9-7-7.5c0-4.9,3.2-7.7,7.2-7.7
			C442.7,76.3,445.5,79.3,445.5,83.7z M434,83.9c0,3.2,1.8,5.6,4.4,5.6c2.5,0,4.4-2.4,4.4-5.6c0-2.5-1.2-5.6-4.4-5.6
			C435.3,78.2,434,81.1,434,83.9z"/>
	</g>
</g>
</svg>
