<?xml version="1.0" encoding="utf-8"?>
<!-- Generator: Adobe Illustrator 22.0.0, SVG Export Plug-In . SVG Version: 6.00 Build 0)  -->
<svg version="1.1" xmlns="http://www.w3.org/2000/svg" xmlns:xlink="http://www.w3.org/1999/xlink" x="0px" y="0px"
	 viewBox="0 0 650 650" style="enable-background:new 0 0 650 650;" xml:space="preserve">
<style type="text/css">
	.st0{display:none;}
	.st1{display:inline;}
	.st2{fill:#FFFFFF;}
	.st3{fill:#15345F;}
	.st4{fill:#BECDD0;}
	.st5{fill:#48627F;}
	.st6{display:none;opacity:0.5;}
	.st7{opacity:0.3;fill:#92E4F7;}
	.st8{fill:#92E4F7;}
	.st9{font-family:'ArialMT';}
	.st10{font-size:11.6594px;}
	.st11{fill:none;stroke:#92E4F7;stroke-width:0.5;stroke-miterlimit:10;}
	.st12{display:inline;fill:none;stroke:#92E4F7;stroke-width:0.5;stroke-miterlimit:10;}
	.st13{opacity:0.4;fill:#92E4F7;}
	.st14{opacity:0.4;fill:#99D9EE;}
	.st15{fill:#99D9EE;}
</style>
<g id="Logo__x2B__Wordmark_white" class="st0">
	<g id="Icon_2_" class="st1">
		<path class="st2" d="M100,100h450v450H325c-124.3,0-225-100.7-225-225V100z"/>
		<g>
			<path d="M354.5,172.2h-29.3h-12.6l-5.1-5.1c-8.4-8.4-19.7-13.1-31.6-13.1h-63.6c-23.5,0-42.5,19-42.5,42.5V266
				c0,15.4,9.3,29.3,23.5,35.3c18.3,7.7,42.5,20.5,54.6,37.5c0,0-22,16.5,65.2,16.6c0.2,3.1,2.7,5.5,5.8,5.5l0,0
				c11.7,0,22.7,4.2,31.3,11.5c-22.7,11-37.1,34.1-37.1,59.4v4.2c0,34.5,28,62.4,62.4,62.4l0,0c34.5,0,62.4-28,62.4-62.4V255.8
				C438.1,209.6,400.6,172.2,354.5,172.2z"/>
			<path class="st2" d="M271.4,168.6c3.5-0.4,7.1-0.1,10.6,0.7c3.5,0.9,6.9,2.4,9.9,4.4c6.2,4,10.9,10.1,13.3,17.1
				c0.3,0.9,0.5,1.8,0.8,2.7c0.2,0.9,0.5,1.8,0.6,2.7s0.3,1.8,0.4,2.7c0,0.9,0.1,1.8,0.1,2.8c0,3.6-0.1,7-0.3,10.5
				c-0.3,7-0.7,14-1.6,20.9c-0.9-7-1.3-14-1.6-20.9c-0.2-3.5-0.2-7-0.4-10.4c-0.1-3.3-0.8-6.5-1.8-9.6s-2.6-6-4.5-8.7
				s-4.2-5.1-6.8-7.2c-2.6-2-5.5-3.8-8.7-5C278.2,169.9,274.9,169.1,271.4,168.6z"/>
			<path class="st2" d="M359.9,262.5c3.5-1.1,7.2-1.5,10.9-1.1c3.7,0.4,7.6,1.8,10.5,4.7c2.9,2.8,4.4,6.8,4.9,10.6
				c0.1,0.5,0.1,1,0.2,1.4l0.1,1.4c0.1,1,0,1.8,0,2.7v5.4l-0.1,10.8c-0.1,3.6-0.2,7.2-0.3,10.8c-0.3,7.2-0.7,14.4-1.6,21.6
				c-0.9-7.2-1.3-14.4-1.6-21.6c-0.2-3.6-0.2-7.2-0.3-10.8l-0.1-10.8v-5.4c0-1.8,0.1-3.5-0.1-5.2c-0.3-3.3-1.4-6.5-3.4-8.9
				c-2.1-2.4-5.1-4.1-8.5-4.9C367.1,262.5,363.5,262.3,359.9,262.5z"/>
			<path class="st2" d="M373.9,281c0,2.9-2.3,5.2-5.2,5.2c-2.9,0-15.7-2.3-15.7-5.2s12.8-5.2,15.7-5.2
				C371.5,275.7,373.9,278.1,373.9,281z"/>
			<path d="M438.1,332.1l68-31.3c2.4-1.1,5.2,0.7,5.2,3.3l0,0c0,5.7-2.7,11-7.3,14.2l-65.9,43.4"/>
			<g>
				<path class="st2" d="M311.9,358.9c-58.4,0-68.1-7-70-13.2c-0.9-2.8,0.2-5.3,1.6-7.2c-12.1-15.3-34.4-26.9-51.4-34.1
					c-15.6-6.6-25.6-21.7-25.6-38.5v-69.5c0-25.3,20.6-45.9,45.9-45.9H276c12.8,0,24.9,5,34,14.1l5.1,5.1c1.3,1.3,1.3,3.5,0,4.8
					s-3.5,1.3-4.8,0l-5.1-5.1c-7.8-7.8-18.1-12.1-29.1-12.1h-63.6c-21.5,0-39.1,17.5-39.1,39v69.5c0,14.1,8.4,26.7,21.4,32.2
					c18.6,7.9,43.5,21,56.1,38.7c0.5,0.7,0.7,1.7,0.6,2.6c-0.2,0.9-0.7,1.7-1.4,2.2c-0.8,0.6-1.6,1.7-1.5,2s3.4,8.4,63.5,8.4
					c1.9,0,3.4,1.5,3.4,3.4C315.3,357.4,313.8,358.9,311.9,358.9z"/>
				<polygon class="st2" points="244.6,338.9 248,207.3 251.4,338.9 				"/>
				<path class="st2" d="M375.6,501.9c-36.3,0-65.9-29.5-65.9-65.9v-4.2c0-27,15.9-51.8,40.4-63.1l2.9,6.2
					c-22.1,10.2-36.4,32.5-36.4,56.9v4.2c0,32.5,26.5,59,59,59s59-26.5,59-59V255.8c0-44.2-36-80.2-80.2-80.2h-41.9v-6.8h41.9
					c48,0,87,39,87,87v180.3C441.5,472.4,411.9,501.9,375.6,501.9z"/>
				<path class="st2" d="M371.6,437.4l-4.3-16.2c-0.4-5.4-1.4-10.7-2.6-15.9c-1.3-5.2-2.9-10.3-5.1-15c-2.1-4.7-5.1-8.9-8.7-12.6
					c-7.2-7.3-17-12-27.3-13c-1.3-0.1-2.6-0.2-3.8-0.2h-1.1c-0.5,0-1.1-0.1-1.6-0.2c-1.1-0.2-2.1-0.7-3-1.3s-1.8-1.3-2.4-2.2
					c-0.6-0.9-0.9-2-1.1-3.1c-0.1-0.5-0.1-1.1-0.1-1.6c0-0.3,0-0.5,0.1-0.8l0.1-0.6l0.3-2.1c0.7-5.5,1.5-11.1,2.5-16.6
					c0.9,5.5,1.7,11.1,2.5,16.6l0.3,2.1c0,0.1,0,0.4,0.1,0.5l0.1,0.3c0.1,0.2,0.2,0.3,0.3,0.4c0.2,0.3,0.5,0.4,0.7,0.6
					s0.3,0.5,0.6,0.6c0.2,0.2,0.5,0.3,0.8,0.3c0.1,0,0.3,0.1,0.4,0.1h0.1h0.3h0.6c1.5,0,3,0.1,4.4,0.3c11.8,1.2,23.1,6.6,31.4,15
					c4.2,4.2,7.6,9.1,10.1,14.5c2.4,5.3,4.2,10.7,5.6,16.3c0.7,2.8,1.2,5.6,1.7,8.4c0.2,1.4,0.5,2.8,0.6,4.2
					c0.2,1.4,0.3,2.8,0.6,4.2C374,426.2,373.1,431.9,371.6,437.4z"/>
				<path class="st2" d="M439.9,364.5l-3.8-5.7l65.9-43.4c3.6-2.6,5.8-6.8,5.8-11.4c0,0,0-0.1-0.1-0.2c-0.1-0.1-0.2,0-0.3,0
					l-68,31.3l-2.9-6.2l68-31.3c2.2-1,4.8-0.8,6.8,0.5c2.1,1.3,3.3,3.5,3.3,6c0,6.7-3.3,13.1-8.8,17L439.9,364.5z"/>
			</g>
		</g>
	</g>
</g>
<g id="Logo__x2B__Wordmark_black" class="st0">
	<g id="Icon_1_" class="st1">
		<path d="M100,100h450v450H325c-124.3,0-225-100.7-225-225V100z"/>
		<g>
			<path class="st2" d="M354.5,172.2h-29.3h-12.6l-5.1-5.1c-8.4-8.4-19.7-13.1-31.6-13.1h-63.6c-23.5,0-42.5,19-42.5,42.5V266
				c0,15.4,9.3,29.3,23.5,35.3c18.3,7.7,42.5,20.5,54.6,37.5c0,0-22,16.5,65.2,16.6c0.2,3.1,2.7,5.5,5.8,5.5l0,0
				c11.7,0,22.7,4.2,31.3,11.5c-22.7,11-37.1,34.1-37.1,59.4v4.2c0,34.5,28,62.4,62.4,62.4l0,0c34.5,0,62.4-28,62.4-62.4V255.8
				C438.1,209.6,400.6,172.2,354.5,172.2z"/>
			<path d="M271.4,168.6c3.5-0.4,7.1-0.1,10.6,0.7c3.5,0.9,6.9,2.4,9.9,4.4c6.2,4,10.9,10.1,13.3,17.1c0.3,0.9,0.5,1.8,0.8,2.7
				c0.2,0.9,0.5,1.8,0.6,2.7s0.3,1.8,0.4,2.7c0,0.9,0.1,1.8,0.1,2.8c0,3.6-0.1,7-0.3,10.5c-0.3,7-0.7,14-1.6,20.9
				c-0.9-7-1.3-14-1.6-20.9c-0.2-3.5-0.2-7-0.4-10.4c-0.1-3.3-0.8-6.5-1.8-9.6s-2.6-6-4.5-8.7s-4.2-5.1-6.8-7.2
				c-2.6-2-5.5-3.8-8.7-5C278.2,169.9,274.9,169.1,271.4,168.6z"/>
			<path d="M359.9,262.5c3.5-1.1,7.2-1.5,10.9-1.1c3.7,0.4,7.6,1.8,10.5,4.7c2.9,2.8,4.4,6.8,4.9,10.6c0.1,0.5,0.1,1,0.2,1.4
				l0.1,1.4c0.1,1,0,1.8,0,2.7v5.4l-0.1,10.8c-0.1,3.6-0.2,7.2-0.3,10.8c-0.3,7.2-0.7,14.4-1.6,21.6c-0.9-7.2-1.3-14.4-1.6-21.6
				c-0.2-3.6-0.2-7.2-0.3-10.8l-0.1-10.8v-5.4c0-1.8,0.1-3.5-0.1-5.2c-0.3-3.3-1.4-6.5-3.4-8.9c-2.1-2.4-5.1-4.1-8.5-4.9
				C367.1,262.5,363.5,262.3,359.9,262.5z"/>
			<path d="M373.9,281c0,2.9-2.3,5.2-5.2,5.2c-2.9,0-15.7-2.3-15.7-5.2s12.8-5.2,15.7-5.2C371.5,275.7,373.9,278.1,373.9,281z"/>
			<path class="st2" d="M438.1,332.1l68-31.3c2.4-1.1,5.2,0.7,5.2,3.3l0,0c0,5.7-2.7,11-7.3,14.2l-65.9,43.4"/>
			<g>
				<path d="M311.9,358.9c-58.4,0-68.1-7-70-13.2c-0.9-2.8,0.2-5.3,1.6-7.2c-12.1-15.3-34.4-26.9-51.4-34.1
					c-15.6-6.6-25.6-21.7-25.6-38.5v-69.5c0-25.3,20.6-45.9,45.9-45.9H276c12.8,0,24.9,5,34,14.1l5.1,5.1c1.3,1.3,1.3,3.5,0,4.8
					s-3.5,1.3-4.8,0l-5.1-5.1c-7.8-7.8-18.1-12.1-29.1-12.1h-63.6c-21.5,0-39.1,17.5-39.1,39v69.5c0,14.1,8.4,26.7,21.4,32.2
					c18.6,7.9,43.5,21,56.1,38.7c0.5,0.7,0.7,1.7,0.6,2.6c-0.2,0.9-0.7,1.7-1.4,2.2c-0.8,0.6-1.6,1.7-1.5,2s3.4,8.4,63.5,8.4
					c1.9,0,3.4,1.5,3.4,3.4C315.3,357.4,313.8,358.9,311.9,358.9z"/>
				<polygon points="244.6,338.9 248,207.3 251.4,338.9 				"/>
				<path d="M375.6,501.9c-36.3,0-65.9-29.5-65.9-65.9v-4.2c0-27,15.9-51.8,40.4-63.1l2.9,6.2c-22.1,10.2-36.4,32.5-36.4,56.9v4.2
					c0,32.5,26.5,59,59,59s59-26.5,59-59V255.8c0-44.2-36-80.2-80.2-80.2h-41.9v-6.8h41.9c48,0,87,39,87,87v180.3
					C441.5,472.4,411.9,501.9,375.6,501.9z"/>
				<path d="M371.6,437.4l-4.3-16.2c-0.4-5.4-1.4-10.7-2.6-15.9c-1.3-5.2-2.9-10.3-5.1-15c-2.1-4.7-5.1-8.9-8.7-12.6
					c-7.2-7.3-17-12-27.3-13c-1.3-0.1-2.6-0.2-3.8-0.2h-1.1c-0.5,0-1.1-0.1-1.6-0.2c-1.1-0.2-2.1-0.7-3-1.3s-1.8-1.3-2.4-2.2
					c-0.6-0.9-0.9-2-1.1-3.1c-0.1-0.5-0.1-1.1-0.1-1.6c0-0.3,0-0.5,0.1-0.8l0.1-0.6l0.3-2.1c0.7-5.5,1.5-11.1,2.5-16.6
					c0.9,5.5,1.7,11.1,2.5,16.6l0.3,2.1c0,0.1,0,0.4,0.1,0.5l0.1,0.3c0.1,0.2,0.2,0.3,0.3,0.4c0.2,0.3,0.5,0.4,0.7,0.6
					s0.3,0.5,0.6,0.6c0.2,0.2,0.5,0.3,0.8,0.3c0.1,0,0.3,0.1,0.4,0.1h0.1h0.3h0.6c1.5,0,3,0.1,4.4,0.3c11.8,1.2,23.1,6.6,31.4,15
					c4.2,4.2,7.6,9.1,10.1,14.5c2.4,5.3,4.2,10.7,5.6,16.3c0.7,2.8,1.2,5.6,1.7,8.4c0.2,1.4,0.5,2.8,0.6,4.2
					c0.2,1.4,0.3,2.8,0.6,4.2C374,426.2,373.1,431.9,371.6,437.4z"/>
				<path d="M439.9,364.5l-3.8-5.7l65.9-43.4c3.6-2.6,5.8-6.8,5.8-11.4c0,0,0-0.1-0.1-0.2c-0.1-0.1-0.2,0-0.3,0l-68,31.3l-2.9-6.2
					l68-31.3c2.2-1,4.8-0.8,6.8,0.5c2.1,1.3,3.3,3.5,3.3,6c0,6.7-3.3,13.1-8.8,17L439.9,364.5z"/>
			</g>
		</g>
	</g>
</g>
<g id="Logo__x2B__Wordmark_colour">
	<g id="Icon">
		<path class="st3" d="M100,100h450v450H325c-124.3,0-225-100.7-225-225V100z"/>
		<g>
			<path class="st4" d="M354.5,172.2h-29.3h-12.6l-5.1-5.1c-8.4-8.4-19.7-13.1-31.6-13.1h-63.6c-23.5,0-42.5,19-42.5,42.5V266
				c0,15.4,9.3,29.3,23.5,35.3c18.3,7.7,42.5,20.5,54.6,37.5c0,0-22,16.5,65.2,16.6c0.2,3.1,2.7,5.5,5.8,5.5l0,0
				c11.7,0,22.7,4.2,31.3,11.5c-22.7,11-37.1,34.1-37.1,59.4v4.2c0,34.5,28,62.4,62.4,62.4l0,0c34.5,0,62.4-28,62.4-62.4V255.8
				C438.1,209.6,400.6,172.2,354.5,172.2z"/>
			<path class="st3" d="M271.4,168.6c3.5-0.4,7.1-0.1,10.6,0.7c3.5,0.9,6.9,2.4,9.9,4.4c6.2,4,10.9,10.1,13.3,17.1
				c0.3,0.9,0.5,1.8,0.8,2.7c0.2,0.9,0.5,1.8,0.6,2.7s0.3,1.8,0.4,2.7c0,0.9,0.1,1.8,0.1,2.8c0,3.6-0.1,7-0.3,10.5
				c-0.3,7-0.7,14-1.6,20.9c-0.9-7-1.3-14-1.6-20.9c-0.2-3.5-0.2-7-0.4-10.4c-0.1-3.3-0.8-6.5-1.8-9.6s-2.6-6-4.5-8.7
				s-4.2-5.1-6.8-7.2c-2.6-2-5.5-3.8-8.7-5C278.2,169.9,274.9,169.1,271.4,168.6z"/>
			<path class="st3" d="M359.9,262.5c3.5-1.1,7.2-1.5,10.9-1.1c3.7,0.4,7.6,1.8,10.5,4.7c2.9,2.8,4.4,6.8,4.9,10.6
				c0.1,0.5,0.1,1,0.2,1.4l0.1,1.4c0.1,1,0,1.8,0,2.7v5.4l-0.1,10.8c-0.1,3.6-0.2,7.2-0.3,10.8c-0.3,7.2-0.7,14.4-1.6,21.6
				c-0.9-7.2-1.3-14.4-1.6-21.6c-0.2-3.6-0.2-7.2-0.3-10.8l-0.1-10.8v-5.4c0-1.8,0.1-3.5-0.1-5.2c-0.3-3.3-1.4-6.5-3.4-8.9
				c-2.1-2.4-5.1-4.1-8.5-4.9C367.1,262.5,363.5,262.3,359.9,262.5z"/>
			<path class="st3" d="M373.9,281c0,2.9-2.3,5.2-5.2,5.2c-2.9,0-15.7-2.3-15.7-5.2s12.8-5.2,15.7-5.2
				C371.5,275.7,373.9,278.1,373.9,281z"/>
			<path class="st4" d="M438.1,332.1l68-31.3c2.4-1.1,5.2,0.7,5.2,3.3l0,0c0,5.7-2.7,11-7.3,14.2l-65.9,43.4"/>
			<g>
				<path class="st3" d="M311.9,358.9c-58.4,0-68.1-7-70-13.2c-0.9-2.8,0.2-5.3,1.6-7.2c-12.1-15.3-34.4-26.9-51.4-34.1
					c-15.6-6.6-25.6-21.7-25.6-38.5v-69.5c0-25.3,20.6-45.9,45.9-45.9H276c12.8,0,24.9,5,34,14.1l5.1,5.1c1.3,1.3,1.3,3.5,0,4.8
					s-3.5,1.3-4.8,0l-5.1-5.1c-7.8-7.8-18.1-12.1-29.1-12.1h-63.6c-21.5,0-39.1,17.5-39.1,39v69.5c0,14.1,8.4,26.7,21.4,32.2
					c18.6,7.9,43.5,21,56.1,38.7c0.5,0.7,0.7,1.7,0.6,2.6c-0.2,0.9-0.7,1.7-1.4,2.2c-0.8,0.6-1.6,1.7-1.5,2s3.4,8.4,63.5,8.4
					c1.9,0,3.4,1.5,3.4,3.4C315.3,357.4,313.8,358.9,311.9,358.9z"/>
				<polygon class="st3" points="244.6,338.9 248,207.3 251.4,338.9 				"/>
				<path class="st3" d="M375.6,501.9c-36.3,0-65.9-29.5-65.9-65.9v-4.2c0-27,15.9-51.8,40.4-63.1l2.9,6.2
					c-22.1,10.2-36.4,32.5-36.4,56.9v4.2c0,32.5,26.5,59,59,59s59-26.5,59-59V255.8c0-44.2-36-80.2-80.2-80.2h-41.9v-6.8h41.9
					c48,0,87,39,87,87v180.3C441.5,472.4,411.9,501.9,375.6,501.9z"/>
				<path class="st3" d="M371.6,437.4l-4.3-16.2c-0.4-5.4-1.4-10.7-2.6-15.9c-1.3-5.2-2.9-10.3-5.1-15c-2.1-4.7-5.1-8.9-8.7-12.6
					c-7.2-7.3-17-12-27.3-13c-1.3-0.1-2.6-0.2-3.8-0.2h-1.1c-0.5,0-1.1-0.1-1.6-0.2c-1.1-0.2-2.1-0.7-3-1.3s-1.8-1.3-2.4-2.2
					c-0.6-0.9-0.9-2-1.1-3.1c-0.1-0.5-0.1-1.1-0.1-1.6c0-0.3,0-0.5,0.1-0.8l0.1-0.6l0.3-2.1c0.7-5.5,1.5-11.1,2.5-16.6
					c0.9,5.5,1.7,11.1,2.5,16.6l0.3,2.1c0,0.1,0,0.4,0.1,0.5l0.1,0.3c0.1,0.2,0.2,0.3,0.3,0.4c0.2,0.3,0.5,0.4,0.7,0.6
					s0.3,0.5,0.6,0.6c0.2,0.2,0.5,0.3,0.8,0.3c0.1,0,0.3,0.1,0.4,0.1h0.1h0.3h0.6c1.5,0,3,0.1,4.4,0.3c11.8,1.2,23.1,6.6,31.4,15
					c4.2,4.2,7.6,9.1,10.1,14.5c2.4,5.3,4.2,10.7,5.6,16.3c0.7,2.8,1.2,5.6,1.7,8.4c0.2,1.4,0.5,2.8,0.6,4.2
					c0.2,1.4,0.3,2.8,0.6,4.2C374,426.2,373.1,431.9,371.6,437.4z"/>
				<path class="st3" d="M439.9,364.5l-3.8-5.7l65.9-43.4c3.6-2.6,5.8-6.8,5.8-11.4c0,0,0-0.1-0.1-0.2c-0.1-0.1-0.2,0-0.3,0
					l-68,31.3l-2.9-6.2l68-31.3c2.2-1,4.8-0.8,6.8,0.5c2.1,1.3,3.3,3.5,3.3,6c0,6.7-3.3,13.1-8.8,17L439.9,364.5z"/>
			</g>
		</g>
	</g>
</g>
<g id="Safe_Area" class="st6">
	<g class="st1">
		<rect class="st7" width="100" height="100"/>
		<g>
			<text transform="matrix(1 0 0 1 35.7388 53.1098)" class="st8 st9 st10">100 x</text>
		</g>
		<rect class="st11" width="100" height="100"/>
	</g>
	<g class="st1">
		<rect y="550" class="st7" width="100" height="100"/>
		<g>
			<text transform="matrix(1 0 0 1 35.7388 603.1107)" class="st8 st9 st10">100 x</text>
		</g>
		<rect y="550" class="st11" width="100" height="100"/>
	</g>
	<g class="st1">
		<rect y="550" class="st7" width="100" height="100"/>
		<g>
			<text transform="matrix(1 0 0 1 35.7388 603.1107)" class="st8 st9 st10">100 x</text>
		</g>
		<rect y="550" class="st11" width="100" height="100"/>
	</g>
	<g class="st1">
		<rect x="550" y="550" class="st7" width="100" height="100"/>
		<g>
			<text transform="matrix(1 0 0 1 585.7389 603.1107)" class="st8 st9 st10">100 x</text>
		</g>
		<rect x="550" y="550" class="st11" width="100" height="100"/>
	</g>
	<g class="st1">
		<rect x="550" class="st7" width="100" height="100"/>
		<g>
			<text transform="matrix(1 0 0 1 585.7389 53.1098)" class="st8 st9 st10">100 x</text>
		</g>
		<rect x="550" class="st11" width="100" height="100"/>
	</g>
	<rect x="100" y="100" class="st12" width="450" height="450"/>
</g>
<g id="Schematic" class="st0">
	<rect x="100" y="100" class="st12" width="450" height="450"/>
	<g class="st1">
		<rect x="100" y="70" class="st13" width="450" height="14.9"/>
		<g>
			<text transform="matrix(1 0 0 1 310.7141 59.9894)" class="st8 st9 st10">450 x</text>
		</g>
	</g>
	<g class="st1">
		<rect x="65.1" y="100" class="st14" width="14.9" height="450"/>
		<g>
			<text transform="matrix(1 0 0 1 26.739 328.1096)" class="st15 st9 st10">450 x</text>
		</g>
	</g>
</g>
</svg>
