<?xml version="1.0" encoding="utf-8"?>
<!-- Generator: Adobe Illustrator 22.0.0, SVG Export Plug-In . SVG Version: 6.00 Build 0)  -->
<svg version="1.1" xmlns="http://www.w3.org/2000/svg" xmlns:xlink="http://www.w3.org/1999/xlink" x="0px" y="0px"
	 viewBox="0 0 1700 650" style="enable-background:new 0 0 1700 650;" xml:space="preserve">
<style type="text/css">
	.st0{display:none;}
	.st1{display:inline;}
	.st2{fill:#FFFFFF;}
	.st3{fill:#15345F;}
	.st4{fill:#BECDD0;}
	.st5{fill:#48627F;}
	.st6{display:none;opacity:0.5;}
	.st7{opacity:0.3;fill:#92E4F7;}
	.st8{fill:none;stroke:#92E4F7;stroke-width:0.5;stroke-miterlimit:10;}
	.st9{display:inline;fill:none;stroke:#92E4F7;stroke-width:0.5;stroke-miterlimit:10;}
	.st10{fill:#92E4F7;}
	.st11{font-family:'ArialMT';}
	.st12{font-size:11.6594px;}
	.st13{opacity:0.4;fill:#92E4F7;}
	.st14{opacity:0.4;fill:#99D9EE;}
	.st15{fill:#99D9EE;}
</style>
<g id="Logo__x2B__Wordmark_white" class="st0">
	<g id="WordmarkIcon_2_" class="st1">
		<g>
			<path class="st2" d="M100,100h450v450H325c-124.3,0-225-100.7-225-225V100z"/>
			<g>
				<path d="M354.5,172.2h-29.3h-12.6l-5.1-5.1c-8.4-8.4-19.7-13.1-31.6-13.1h-63.6c-23.5,0-42.5,19-42.5,42.5V266
					c0,15.4,9.3,29.3,23.5,35.3c18.3,7.7,42.5,20.5,54.6,37.5c0,0-22,16.5,65.2,16.6c0.2,3.1,2.7,5.5,5.8,5.5l0,0
					c11.7,0,22.7,4.2,31.3,11.5c-22.7,11-37.1,34.1-37.1,59.4v4.2c0,34.5,28,62.4,62.4,62.4l0,0c34.5,0,62.4-28,62.4-62.4V255.8
					C438.1,209.6,400.6,172.2,354.5,172.2z"/>
				<path class="st2" d="M271.4,168.6c3.5-0.4,7.1-0.1,10.6,0.7c3.5,0.9,6.9,2.4,9.9,4.4c6.2,4,10.9,10.1,13.3,17.1
					c0.3,0.9,0.5,1.8,0.8,2.7c0.2,0.9,0.5,1.8,0.6,2.7s0.3,1.8,0.4,2.7c0,0.9,0.1,1.8,0.1,2.8c0,3.6-0.1,7-0.3,10.5
					c-0.3,7-0.7,14-1.6,20.9c-0.9-7-1.3-14-1.6-20.9c-0.2-3.5-0.2-7-0.4-10.4c-0.1-3.3-0.8-6.5-1.8-9.6s-2.6-6-4.5-8.7
					s-4.2-5.1-6.8-7.2c-2.6-2-5.5-3.8-8.7-5C278.2,169.9,274.9,169.1,271.4,168.6z"/>
				<path class="st2" d="M359.9,262.5c3.5-1.1,7.2-1.5,10.9-1.1c3.7,0.4,7.6,1.8,10.5,4.7c2.9,2.8,4.4,6.8,4.9,10.6
					c0.1,0.5,0.1,1,0.2,1.4l0.1,1.4c0.1,1,0,1.8,0,2.7v5.4l-0.1,10.8c-0.1,3.6-0.2,7.2-0.3,10.8c-0.3,7.2-0.7,14.4-1.6,21.6
					c-0.9-7.2-1.3-14.4-1.6-21.6c-0.2-3.6-0.2-7.2-0.3-10.8l-0.1-10.8v-5.4c0-1.8,0.1-3.5-0.1-5.2c-0.3-3.3-1.4-6.5-3.4-8.9
					c-2.1-2.4-5.1-4.1-8.5-4.9C367.1,262.5,363.5,262.3,359.9,262.5z"/>
				<path class="st2" d="M373.9,281c0,2.9-2.3,5.2-5.2,5.2c-2.9,0-15.7-2.3-15.7-5.2s12.8-5.2,15.7-5.2
					C371.5,275.7,373.9,278.1,373.9,281z"/>
				<path d="M438.1,332.1l68-31.3c2.4-1.1,5.2,0.7,5.2,3.3l0,0c0,5.7-2.7,11-7.3,14.2l-65.9,43.4"/>
				<g>
					<path class="st2" d="M311.9,358.9c-58.4,0-68.1-7-70-13.2c-0.9-2.8,0.2-5.3,1.6-7.2c-12.1-15.3-34.4-26.9-51.4-34.1
						c-15.6-6.6-25.6-21.7-25.6-38.5v-69.5c0-25.3,20.6-45.9,45.9-45.9H276c12.8,0,24.9,5,34,14.1l5.1,5.1c1.3,1.3,1.3,3.5,0,4.8
						s-3.5,1.3-4.8,0l-5.1-5.1c-7.8-7.8-18.1-12.1-29.1-12.1h-63.6c-21.5,0-39.1,17.5-39.1,39v69.5c0,14.1,8.4,26.7,21.4,32.2
						c18.6,7.9,43.5,21,56.1,38.7c0.5,0.7,0.7,1.7,0.6,2.6c-0.2,0.9-0.7,1.7-1.4,2.2c-0.8,0.6-1.6,1.7-1.5,2s3.4,8.4,63.5,8.4
						c1.9,0,3.4,1.5,3.4,3.4C315.3,357.4,313.8,358.9,311.9,358.9z"/>
					<polygon class="st2" points="244.6,338.9 248,207.3 251.4,338.9 					"/>
					<path class="st2" d="M375.6,501.9c-36.3,0-65.9-29.5-65.9-65.9v-4.2c0-27,15.9-51.8,40.4-63.1l2.9,6.2
						c-22.1,10.2-36.4,32.5-36.4,56.9v4.2c0,32.5,26.5,59,59,59s59-26.5,59-59V255.8c0-44.2-36-80.2-80.2-80.2h-41.9v-6.8h41.9
						c48,0,87,39,87,87v180.3C441.5,472.4,411.9,501.9,375.6,501.9z"/>
					<path class="st2" d="M371.6,437.4l-4.3-16.2c-0.4-5.4-1.4-10.7-2.6-15.9c-1.3-5.2-2.9-10.3-5.1-15c-2.1-4.7-5.1-8.9-8.7-12.6
						c-7.2-7.3-17-12-27.3-13c-1.3-0.1-2.6-0.2-3.8-0.2h-1.1c-0.5,0-1.1-0.1-1.6-0.2c-1.1-0.2-2.1-0.7-3-1.3s-1.8-1.3-2.4-2.2
						c-0.6-0.9-0.9-2-1.1-3.1c-0.1-0.5-0.1-1.1-0.1-1.6c0-0.3,0-0.5,0.1-0.8l0.1-0.6l0.3-2.1c0.7-5.5,1.5-11.1,2.5-16.6
						c0.9,5.5,1.7,11.1,2.5,16.6l0.3,2.1c0,0.1,0,0.4,0.1,0.5l0.1,0.3c0.1,0.2,0.2,0.3,0.3,0.4c0.2,0.3,0.5,0.4,0.7,0.6
						s0.3,0.5,0.6,0.6c0.2,0.2,0.5,0.3,0.8,0.3c0.1,0,0.3,0.1,0.4,0.1h0.1h0.3h0.6c1.5,0,3,0.1,4.4,0.3c11.8,1.2,23.1,6.6,31.4,15
						c4.2,4.2,7.6,9.1,10.1,14.5c2.4,5.3,4.2,10.7,5.6,16.3c0.7,2.8,1.2,5.6,1.7,8.4c0.2,1.4,0.5,2.8,0.6,4.2
						c0.2,1.4,0.3,2.8,0.6,4.2C374,426.2,373.1,431.9,371.6,437.4z"/>
					<path class="st2" d="M439.9,364.5l-3.8-5.7l65.9-43.4c3.6-2.6,5.8-6.8,5.8-11.4c0,0,0-0.1-0.1-0.2c-0.1-0.1-0.2,0-0.3,0
						l-68,31.3l-2.9-6.2l68-31.3c2.2-1,4.8-0.8,6.8,0.5c2.1,1.3,3.3,3.5,3.3,6c0,6.7-3.3,13.1-8.8,17L439.9,364.5z"/>
				</g>
			</g>
		</g>
		<g>
			<path class="st2" d="M637.2,289.1c-2.7-1.4-2.9-2.1-2.9-7.4c0-9.8,0.8-17.6,1-20.7c0.2-2.1,0.6-3.1,1.6-3.1
				c1.2,0,1.4,0.6,1.4,2.1c0,1.8,0,4.5,0.6,7.2c2.9,14.4,15.8,19.9,28.9,19.9c18.7,0,27.9-13.5,27.9-25.9c0-13.5-5.7-21.3-22.4-35.1
				l-8.8-7.2c-20.7-17-25.4-29.1-25.4-42.3c0-20.9,15.6-35.1,40.4-35.1c7.6,0,13.3,0.8,18.1,2c3.7,0.8,5.3,1,6.8,1
				c1.6,0,2,0.4,2,1.4c0,1-0.8,7.4-0.8,20.7c0,3.1-0.4,4.5-1.4,4.5c-1.2,0-1.4-1-1.6-2.5c-0.2-2.3-1.4-7.6-2.5-9.8
				c-1.2-2.1-6.4-10.3-24.4-10.3c-13.5,0-24,8.4-24,22.6c0,11.1,5.1,18.1,23.8,32.8l5.5,4.3c23,18.1,28.5,30.2,28.5,45.8
				c0,8-3.1,22.8-16.6,32.4c-8.4,5.8-18.9,8.2-29.4,8.2C654.2,294.3,645.2,293,637.2,289.1z"/>
			<path class="st2" d="M811.5,141.5c43.9,0,76.6,27.7,76.6,73.1c0,43.7-30.8,79.8-77.8,79.8c-53.4,0-75.7-41.5-75.7-76.6
				C734.7,186.1,757.7,141.5,811.5,141.5z M815.6,286.9c17.6,0,53.8-10.1,53.8-66.9c0-46.8-28.5-72-59.3-72
				c-32.6,0-56.9,21.5-56.9,64.2C753.2,257.7,780.5,286.9,815.6,286.9z"/>
			<path class="st2" d="M934.8,265.1c0.4,16,2.3,21.1,7.6,22.6c3.7,1,8,1.2,9.8,1.2c1,0,1.6,0.4,1.6,1.2c0,1.2-1.2,1.6-3.5,1.6
				c-11.1,0-18.9-0.6-20.7-0.6c-1.8,0-9.9,0.6-18.7,0.6c-2,0-3.1-0.2-3.1-1.6c0-0.8,0.6-1.2,1.6-1.2c1.6,0,5.1-0.2,8-1.2
				c4.9-1.4,5.9-7,5.9-24.8l0.2-111.7c0-7.6,0.6-9.8,2.1-9.8c1.6,0,4.9,4.3,6.8,6.2c2.9,3.3,32,34.7,62,66.9
				c19.3,20.7,40.6,44.5,46.8,50.9l-2.1-99.1c-0.2-12.7-1.6-17-7.6-18.5c-3.5-0.8-8-1-9.6-1c-1.4,0-1.6-0.6-1.6-1.4
				c0-1.2,1.6-1.4,3.9-1.4c8.8,0,18.1,0.6,20.3,0.6c2.1,0,8.6-0.6,16.6-0.6c2.1,0,3.5,0.2,3.5,1.4c0,0.8-0.8,1.4-2.1,1.4
				c-1,0-2.3,0-4.7,0.6c-6.4,1.4-7.2,5.7-7.2,17.4l-0.4,114.3c0,12.9-0.4,13.8-1.8,13.8c-1.6,0-3.9-2.1-14.2-12.5
				c-2.1-2-30.2-30.6-50.9-52.8c-22.6-24.4-44.7-48.9-50.9-56L934.8,265.1z"/>
			<path class="st2" d="M1110.3,200.7c0-30.4,0-35.9-0.4-42.1c-0.4-6.6-2-9.8-8.4-11.1c-1.6-0.4-4.9-0.6-6.6-0.6
				c-0.8,0-1.6-0.4-1.6-1.2c0-1.2,1-1.6,3.1-1.6c8.8,0,21.1,0.6,22,0.6c2.3,0,14.6-0.6,26.3-0.6c19.3,0,55-1.8,78.2,22.2
				c9.8,10.1,18.9,26.3,18.9,49.5c0,24.6-10.1,43.5-21.1,55c-8.4,8.8-25.9,22.4-59.1,22.4c-8.4,0-18.7-0.6-27.1-1.2
				c-8.6-0.6-15.2-1.2-16.2-1.2c-0.4,0-3.7,0-7.8,0.2c-3.9,0-8.4,0.4-11.3,0.4c-2.1,0-3.1-0.4-3.1-1.6c0-0.6,0.4-1.2,1.6-1.2
				c1.8,0,4.1-0.4,5.9-0.8c3.9-0.8,4.9-5.1,5.7-10.7c1-8.2,1-23.6,1-42.3V200.7z M1126.7,221.8c0,20.7,0.2,38.6,0.4,42.3
				c0.2,4.9,0.6,12.7,2.1,14.8c2.5,3.7,10.1,7.8,33.2,7.8c18.1,0,34.9-6.6,46.4-18.1c10.1-9.9,15.6-28.7,15.6-46.6
				c0-24.8-10.7-40.8-18.7-49.1c-18.3-19.3-40.6-22-63.8-22c-3.9,0-11.1,0.6-12.7,1.4c-1.8,0.8-2.3,1.8-2.3,3.9
				c-0.2,6.6-0.2,26.5-0.2,41.5V221.8z"/>
			<path class="st2" d="M1401,235.1c0,18.7,0,34.1,1,42.3c0.6,5.7,1.8,9.9,7.6,10.7c2.7,0.4,7,0.8,8.8,0.8c1.2,0,1.6,0.6,1.6,1.2
				c0,1-1,1.6-3.1,1.6c-10.7,0-23-0.6-24-0.6c-1,0-13.3,0.6-19.1,0.6c-2.1,0-3.1-0.4-3.1-1.6c0-0.6,0.4-1.2,1.6-1.2
				c1.8,0,4.1-0.4,5.9-0.8c3.9-0.8,4.9-5.1,5.7-10.7c1-8.2,1-23.6,1-42.3v-20.5c0-0.8-0.6-1.2-1.2-1.2h-82.7c-0.6,0-1.2,0.2-1.2,1.2
				v20.5c0,18.7,0,34.1,1,42.3c0.6,5.7,1.8,9.9,7.6,10.7c2.7,0.4,7,0.8,8.8,0.8c1.2,0,1.6,0.6,1.6,1.2c0,1-1,1.6-3.1,1.6
				c-10.7,0-23-0.6-24-0.6c-1,0-13.3,0.6-19.1,0.6c-2.1,0-3.1-0.4-3.1-1.6c0-0.6,0.4-1.2,1.6-1.2c1.8,0,4.1-0.4,5.9-0.8
				c3.9-0.8,4.9-5.1,5.7-10.7c1-8.2,1-23.6,1-42.3v-34.3c0-30.4,0-35.9-0.4-42.1c-0.4-6.6-2-9.8-8.4-11.1c-1.6-0.4-4.9-0.6-6.6-0.6
				c-0.8,0-1.6-0.4-1.6-1.2c0-1.2,1-1.6,3.1-1.6c8.8,0,21.1,0.6,22,0.6c1,0,13.3-0.6,19.1-0.6c2.1,0,3.1,0.4,3.1,1.6
				c0,0.8-0.8,1.2-1.6,1.2c-1.4,0-2.5,0.2-4.9,0.6c-5.3,1-6.8,4.3-7.2,11.1c-0.4,6.2-0.4,11.7-0.4,42.1v4.1c0,1,0.6,1.2,1.2,1.2
				h82.7c0.6,0,1.2-0.2,1.2-1.2v-4.1c0-30.4,0-35.9-0.4-42.1c-0.4-6.6-2-9.8-8.4-11.1c-1.6-0.4-4.9-0.6-6.6-0.6
				c-0.8,0-1.6-0.4-1.6-1.2c0-1.2,1-1.6,3.1-1.6c8.8,0,21.1,0.6,22,0.6c1,0,13.3-0.6,19.1-0.6c2.1,0,3.1,0.4,3.1,1.6
				c0,0.8-0.8,1.2-1.6,1.2c-1.4,0-2.5,0.2-4.9,0.6c-5.3,1-6.8,4.3-7.2,11.1c-0.4,6.2-0.4,11.7-0.4,42.1V235.1z"/>
			<path class="st2" d="M1482.9,235.1c0,18.7,0,34.1,1,42.3c0.6,5.7,1.8,9.9,7.6,10.7c2.7,0.4,7,0.8,8.8,0.8c1.2,0,1.6,0.6,1.6,1.2
				c0,1-1,1.6-3.1,1.6c-10.7,0-23-0.6-24-0.6c-1,0-13.3,0.6-19.1,0.6c-2.1,0-3.1-0.4-3.1-1.6c0-0.6,0.4-1.2,1.6-1.2
				c1.8,0,4.1-0.4,5.9-0.8c3.9-0.8,4.9-5.1,5.7-10.7c1-8.2,1-23.6,1-42.3v-34.3c0-30.4,0-35.9-0.4-42.1c-0.4-6.6-2.3-9.9-6.6-10.9
				c-2.1-0.6-4.7-0.8-6-0.8c-0.8,0-1.6-0.4-1.6-1.2c0-1.2,1-1.6,3.1-1.6c6.4,0,18.7,0.6,19.7,0.6c1,0,13.3-0.6,19.1-0.6
				c2.1,0,3.1,0.4,3.1,1.6c0,0.8-0.8,1.2-1.6,1.2c-1.4,0-2.5,0.2-4.9,0.6c-5.3,1-6.8,4.3-7.2,11.1c-0.4,6.2-0.4,11.7-0.4,42.1V235.1
				z"/>
		</g>
		<g>
			<path class="st2" d="M649.7,420.9c0-30.4,0-35.9-0.4-42.1c-0.4-6.6-2-9.8-8.4-11.1c-1.6-0.4-4.9-0.6-6.6-0.6
				c-0.8,0-1.6-0.4-1.6-1.2c0-1.2,1-1.6,3.1-1.6c8.8,0,21.1,0.6,22,0.6c2.3,0,14.6-0.6,26.3-0.6c19.3,0,55-1.8,78.2,22.2
				c9.8,10.1,18.9,26.3,18.9,49.5c0,24.6-10.1,43.5-21.1,55c-8.4,8.8-25.9,22.4-59.1,22.4c-8.4,0-18.7-0.6-27.1-1.2
				c-8.6-0.6-15.2-1.2-16.2-1.2c-0.4,0-3.7,0-7.8,0.2c-3.9,0-8.4,0.4-11.3,0.4c-2.1,0-3.1-0.4-3.1-1.6c0-0.6,0.4-1.2,1.6-1.2
				c1.8,0,4.1-0.4,5.9-0.8c3.9-0.8,4.9-5.1,5.7-10.7c1-8.2,1-23.6,1-42.3V420.9z M666.1,441.9c0,20.7,0.2,38.6,0.4,42.3
				c0.2,4.9,0.6,12.7,2.1,14.8c2.5,3.7,10.1,7.8,33.2,7.8c18.1,0,34.9-6.6,46.4-18.1c10.1-9.9,15.6-28.7,15.6-46.6
				c0-24.8-10.7-40.8-18.7-49.1c-18.3-19.3-40.6-22-63.8-22c-3.9,0-11.1,0.6-12.7,1.4c-1.8,0.8-2.3,1.8-2.3,3.9
				c-0.2,6.6-0.2,26.5-0.2,41.5V441.9z"/>
			<path class="st2" d="M826.5,420.9c0-30.4,0-35.9-0.4-42.1c-0.4-6.6-2-9.8-8.4-11.1c-1.6-0.4-4.9-0.6-6.6-0.6
				c-0.8,0-1.6-0.4-1.6-1.2c0-1.2,1-1.6,3.1-1.6c4.5,0,9.8,0,14,0.2l8,0.4c1.4,0,40.2,0,44.7-0.2c3.7-0.2,6.8-0.6,8.4-1
				c1-0.2,1.8-1,2.7-1c0.6,0,0.8,0.8,0.8,1.8c0,1.4-1,3.7-1.6,9.2c-0.2,2-0.6,10.5-1,12.9c-0.2,1-0.6,2.1-1.4,2.1
				c-1.2,0-1.6-1-1.6-2.5c0-1.4-0.2-4.7-1.2-7c-1.4-3.1-3.3-5.5-13.8-6.6c-3.3-0.4-24.6-0.6-26.7-0.6c-0.8,0-1.2,0.6-1.2,2v53.8
				c0,1.4,0.2,2,1.2,2c2.5,0,26.5,0,31-0.4c4.7-0.4,7.4-0.8,9.2-2.7c1.4-1.6,2.1-2.5,2.9-2.5c0.6,0,1,0.4,1,1.6s-1,4.5-1.6,10.9
				c-0.4,3.9-0.8,11.1-0.8,12.5c0,1.6,0,3.7-1.4,3.7c-1,0-1.4-0.8-1.4-1.8c0-2,0-3.9-0.8-6.4c-0.8-2.7-2.5-6-10.1-6.8
				c-5.3-0.6-24.6-1-27.9-1c-1,0-1.4,0.6-1.4,1.4v17.2c0,6.6-0.2,29.3,0,33.3c0.6,13.5,3.5,16,22.6,16c5.1,0,13.7,0,18.7-2.1
				c5.1-2.1,7.4-6,8.8-14c0.4-2.1,0.8-2.9,1.8-2.9c1.2,0,1.2,1.6,1.2,2.9c0,1.6-1.6,14.8-2.5,18.9c-1.4,5.1-2.9,5.1-10.5,5.1
				c-14.6,0-25.4-0.4-33-0.6c-7.6-0.4-12.3-0.6-15.2-0.6c-0.4,0-3.7,0-7.8,0.2c-3.9,0-8.4,0.4-11.3,0.4c-2.1,0-3.1-0.4-3.1-1.6
				c0-0.6,0.4-1.2,1.6-1.2c1.8,0,4.1-0.4,5.9-0.8c3.9-0.8,4.9-5.1,5.7-10.7c1-8.2,1-23.6,1-42.3V420.9z"/>
			<path class="st2" d="M953.3,420.9c0-30.4,0-35.9-0.4-42.1c-0.4-6.6-2-9.8-8.4-11.1c-1.6-0.4-4.9-0.6-6.6-0.6
				c-0.8,0-1.6-0.4-1.6-1.2c0-1.2,1-1.6,3.1-1.6c4.5,0,9.8,0,14,0.2l8,0.2c3.9,0,43.5,0.2,48,0c3.7-0.2,6.8-0.2,8.6-0.8
				c1.2-0.4,1.9-1.2,2.7-1.2s1.2,0.8,1.2,1.8c0,1.4-1,3.7-1.6,9.2c-0.2,2-0.6,10.5-1,12.9c-0.2,1-0.6,2.1-1.6,2.1s-1.4-1-1.4-2.3
				c0-1.6-0.6-4.9-1.8-7.4s-5.7-6-13.3-6.2l-30-0.6c-1.2,0-1.8,0.6-1.8,2.1v53.8c0,1.2,0.2,1.8,1.4,1.8l25-0.2c3.3,0,6,0,8.8-0.2
				c4.7-0.4,7.2-1,9-3.5c0.8-1,1.4-2,2.1-2s1,0.6,1,1.6c0,1.2-1,4.5-1.6,10.9c-0.4,3.9-0.8,11.7-0.8,13.1c0,1.8,0,3.7-1.4,3.7
				c-1,0-1.4-0.8-1.4-1.8c-0.2-2-0.4-4.7-1.2-7c-1-2.7-4.1-6.2-10.1-7c-4.9-0.6-26.1-0.6-29.4-0.6c-1,0-1.4,0.4-1.4,1.8v16.6
				c0,18.7,0,34.1,1,42.3c0.6,5.7,1.8,9.9,7.6,10.7c2.7,0.4,7,0.8,8.8,0.8c1.2,0,1.6,0.6,1.6,1.2c0,1-1,1.6-3.1,1.6
				c-10.7,0-23-0.6-24-0.6c-1,0-13.3,0.6-19.1,0.6c-2.1,0-3.1-0.4-3.1-1.6c0-0.6,0.4-1.2,1.6-1.2c1.8,0,4.1-0.4,5.9-0.8
				c3.9-0.8,4.9-5.1,5.7-10.7c1-8.2,1-23.6,1-42.3V420.9z"/>
			<path class="st2" d="M1072.6,420.9c0-30.4,0-35.9-0.4-42.1c-0.4-6.6-2-9.8-8.4-11.1c-1.6-0.4-4.9-0.6-6.6-0.6
				c-0.8,0-1.6-0.4-1.6-1.2c0-1.2,1-1.6,3.1-1.6c4.5,0,9.8,0,14,0.2l8,0.4c1.4,0,40.2,0,44.7-0.2c3.7-0.2,6.8-0.6,8.4-1
				c1-0.2,1.8-1,2.7-1c0.6,0,0.8,0.8,0.8,1.8c0,1.4-1,3.7-1.6,9.2c-0.2,2-0.6,10.5-1,12.9c-0.2,1-0.6,2.1-1.4,2.1
				c-1.2,0-1.6-1-1.6-2.5c0-1.4-0.2-4.7-1.2-7c-1.4-3.1-3.3-5.5-13.8-6.6c-3.3-0.4-24.6-0.6-26.7-0.6c-0.8,0-1.2,0.6-1.2,2v53.8
				c0,1.4,0.2,2,1.2,2c2.5,0,26.5,0,31-0.4c4.7-0.4,7.4-0.8,9.2-2.7c1.4-1.6,2.1-2.5,2.9-2.5c0.6,0,1,0.4,1,1.6s-1,4.5-1.6,10.9
				c-0.4,3.9-0.8,11.1-0.8,12.5c0,1.6,0,3.7-1.4,3.7c-1,0-1.4-0.8-1.4-1.8c0-2,0-3.9-0.8-6.4c-0.8-2.7-2.5-6-10.1-6.8
				c-5.3-0.6-24.6-1-27.9-1c-1,0-1.4,0.6-1.4,1.4v17.2c0,6.6-0.2,29.3,0,33.3c0.6,13.5,3.5,16,22.6,16c5.1,0,13.7,0,18.7-2.1
				c5.1-2.1,7.4-6,8.8-14c0.4-2.1,0.8-2.9,1.8-2.9c1.2,0,1.2,1.6,1.2,2.9c0,1.6-1.6,14.8-2.5,18.9c-1.4,5.1-2.9,5.1-10.5,5.1
				c-14.6,0-25.4-0.4-33-0.6c-7.6-0.4-12.3-0.6-15.2-0.6c-0.4,0-3.7,0-7.8,0.2c-3.9,0-8.4,0.4-11.3,0.4c-2.1,0-3.1-0.4-3.1-1.6
				c0-0.6,0.4-1.2,1.6-1.2c1.8,0,4.1-0.4,5.9-0.8c3.9-0.8,4.9-5.1,5.7-10.7c1-8.2,1-23.6,1-42.3V420.9z"/>
			<path class="st2" d="M1200.7,485.2c0.4,16,2.3,21.1,7.6,22.6c3.7,1,8,1.2,9.8,1.2c1,0,1.6,0.4,1.6,1.2c0,1.2-1.2,1.6-3.5,1.6
				c-11.1,0-18.9-0.6-20.7-0.6c-1.8,0-9.9,0.6-18.7,0.6c-1.9,0-3.1-0.2-3.1-1.6c0-0.8,0.6-1.2,1.6-1.2c1.6,0,5.1-0.2,8-1.2
				c4.9-1.4,5.9-7,5.9-24.8l0.2-111.7c0-7.6,0.6-9.8,2.1-9.8c1.6,0,4.9,4.3,6.8,6.2c2.9,3.3,32,34.7,62,66.9
				c19.3,20.7,40.6,44.5,46.8,50.9l-2.1-99.1c-0.2-12.7-1.6-17-7.6-18.5c-3.5-0.8-8-1-9.6-1c-1.4,0-1.6-0.6-1.6-1.4
				c0-1.2,1.6-1.4,3.9-1.4c8.8,0,18.1,0.6,20.3,0.6c2.1,0,8.6-0.6,16.6-0.6c2.1,0,3.5,0.2,3.5,1.4c0,0.8-0.8,1.4-2.1,1.4
				c-1,0-2.3,0-4.7,0.6c-6.4,1.4-7.2,5.7-7.2,17.4l-0.4,114.3c0,12.9-0.4,13.8-1.8,13.8c-1.6,0-3.9-2.1-14.2-12.5
				c-2.1-2-30.2-30.6-50.9-52.8c-22.6-24.4-44.7-48.9-50.9-56L1200.7,485.2z"/>
			<path class="st2" d="M1378.6,493.4c-18.9-17-23.6-39.2-23.6-57.7c0-13.1,4.5-35.9,21.8-53.2c11.7-11.7,29.4-20.9,59.5-20.9
				c7.8,0,18.7,0.6,28.3,2.3c7.4,1.4,13.7,2.5,19.9,2.9c2.1,0.2,2.5,1,2.5,2.1c0,1.6-0.6,3.9-1,10.9c-0.4,6.4-0.4,17.2-0.6,20.1
				s-0.6,4.1-1.8,4.1c-1.4,0-1.6-1.4-1.6-4.1c0-7.6-3.1-15.6-8.2-19.9c-6.8-5.9-21.8-11.1-39-11.1c-25.9,0-38,7.6-44.9,14.2
				c-14.2,13.7-17.6,31-17.6,50.9c0,37.2,28.7,71.4,70.4,71.4c14.6,0,26.1-1.8,33.9-9.8c4.1-4.3,6.6-12.9,7.2-16.4
				c0.4-2.1,0.8-2.9,2-2.9c1,0,1.4,1.4,1.4,2.9c0,1.4-2.3,18.3-4.3,25c-1.2,3.7-1.6,4.1-5.1,5.7c-7.8,3.1-22.6,4.5-35.1,4.5
				C1413.7,514.5,1394,507.2,1378.6,493.4z"/>
			<path class="st2" d="M1534.2,420.9c0-30.4,0-35.9-0.4-42.1c-0.4-6.6-2-9.8-8.4-11.1c-1.6-0.4-4.9-0.6-6.6-0.6
				c-0.8,0-1.6-0.4-1.6-1.2c0-1.2,1-1.6,3.1-1.6c4.5,0,9.8,0,14,0.2l8,0.4c1.4,0,40.2,0,44.7-0.2c3.7-0.2,6.8-0.6,8.4-1
				c1-0.2,1.8-1,2.7-1c0.6,0,0.8,0.8,0.8,1.8c0,1.4-1,3.7-1.6,9.2c-0.2,2-0.6,10.5-1,12.9c-0.2,1-0.6,2.1-1.4,2.1
				c-1.2,0-1.6-1-1.6-2.5c0-1.4-0.2-4.7-1.2-7c-1.4-3.1-3.3-5.5-13.8-6.6c-3.3-0.4-24.6-0.6-26.7-0.6c-0.8,0-1.2,0.6-1.2,2v53.8
				c0,1.4,0.2,2,1.2,2c2.5,0,26.5,0,31-0.4c4.7-0.4,7.4-0.8,9.2-2.7c1.4-1.6,2.1-2.5,2.9-2.5c0.6,0,1,0.4,1,1.6s-1,4.5-1.6,10.9
				c-0.4,3.9-0.8,11.1-0.8,12.5c0,1.6,0,3.7-1.4,3.7c-1,0-1.4-0.8-1.4-1.8c0-2,0-3.9-0.8-6.4c-0.8-2.7-2.5-6-10.1-6.8
				c-5.3-0.6-24.6-1-27.9-1c-1,0-1.4,0.6-1.4,1.4v17.2c0,6.6-0.2,29.3,0,33.3c0.6,13.5,3.5,16,22.6,16c5.1,0,13.7,0,18.7-2.1
				c5.1-2.1,7.4-6,8.8-14c0.4-2.1,0.8-2.9,1.8-2.9c1.2,0,1.2,1.6,1.2,2.9c0,1.6-1.6,14.8-2.5,18.9c-1.4,5.1-2.9,5.1-10.5,5.1
				c-14.6,0-25.4-0.4-33-0.6c-7.6-0.4-12.3-0.6-15.2-0.6c-0.4,0-3.7,0-7.8,0.2c-3.9,0-8.4,0.4-11.3,0.4c-2.1,0-3.1-0.4-3.1-1.6
				c0-0.6,0.4-1.2,1.6-1.2c1.8,0,4.1-0.4,5.9-0.8c3.9-0.8,4.9-5.1,5.7-10.7c1-8.2,1-23.6,1-42.3V420.9z"/>
		</g>
	</g>
</g>
<g id="Logo__x2B__Wordmark_black" class="st0">
	<g id="WordmarkIcon_1_" class="st1">
		<g>
			<path d="M100,100h450v450H325c-124.3,0-225-100.7-225-225V100z"/>
			<g>
				<path class="st2" d="M354.5,172.2h-29.3h-12.6l-5.1-5.1c-8.4-8.4-19.7-13.1-31.6-13.1h-63.6c-23.5,0-42.5,19-42.5,42.5V266
					c0,15.4,9.3,29.3,23.5,35.3c18.3,7.7,42.5,20.5,54.6,37.5c0,0-22,16.5,65.2,16.6c0.2,3.1,2.7,5.5,5.8,5.5l0,0
					c11.7,0,22.7,4.2,31.3,11.5c-22.7,11-37.1,34.1-37.1,59.4v4.2c0,34.5,28,62.4,62.4,62.4l0,0c34.5,0,62.4-28,62.4-62.4V255.8
					C438.1,209.6,400.6,172.2,354.5,172.2z"/>
				<path d="M271.4,168.6c3.5-0.4,7.1-0.1,10.6,0.7c3.5,0.9,6.9,2.4,9.9,4.4c6.2,4,10.9,10.1,13.3,17.1c0.3,0.9,0.5,1.8,0.8,2.7
					c0.2,0.9,0.5,1.8,0.6,2.7s0.3,1.8,0.4,2.7c0,0.9,0.1,1.8,0.1,2.8c0,3.6-0.1,7-0.3,10.5c-0.3,7-0.7,14-1.6,20.9
					c-0.9-7-1.3-14-1.6-20.9c-0.2-3.5-0.2-7-0.4-10.4c-0.1-3.3-0.8-6.5-1.8-9.6s-2.6-6-4.5-8.7s-4.2-5.1-6.8-7.2
					c-2.6-2-5.5-3.8-8.7-5C278.2,169.9,274.9,169.1,271.4,168.6z"/>
				<path d="M359.9,262.5c3.5-1.1,7.2-1.5,10.9-1.1c3.7,0.4,7.6,1.8,10.5,4.7c2.9,2.8,4.4,6.8,4.9,10.6c0.1,0.5,0.1,1,0.2,1.4
					l0.1,1.4c0.1,1,0,1.8,0,2.7v5.4l-0.1,10.8c-0.1,3.6-0.2,7.2-0.3,10.8c-0.3,7.2-0.7,14.4-1.6,21.6c-0.9-7.2-1.3-14.4-1.6-21.6
					c-0.2-3.6-0.2-7.2-0.3-10.8l-0.1-10.8v-5.4c0-1.8,0.1-3.5-0.1-5.2c-0.3-3.3-1.4-6.5-3.4-8.9c-2.1-2.4-5.1-4.1-8.5-4.9
					C367.1,262.5,363.5,262.3,359.9,262.5z"/>
				<path d="M373.9,281c0,2.9-2.3,5.2-5.2,5.2c-2.9,0-15.7-2.3-15.7-5.2s12.8-5.2,15.7-5.2C371.5,275.7,373.9,278.1,373.9,281z"/>
				<path class="st2" d="M438.1,332.1l68-31.3c2.4-1.1,5.2,0.7,5.2,3.3l0,0c0,5.7-2.7,11-7.3,14.2l-65.9,43.4"/>
				<g>
					<path d="M311.9,358.9c-58.4,0-68.1-7-70-13.2c-0.9-2.8,0.2-5.3,1.6-7.2c-12.1-15.3-34.4-26.9-51.4-34.1
						c-15.6-6.6-25.6-21.7-25.6-38.5v-69.5c0-25.3,20.6-45.9,45.9-45.9H276c12.8,0,24.9,5,34,14.1l5.1,5.1c1.3,1.3,1.3,3.5,0,4.8
						s-3.5,1.3-4.8,0l-5.1-5.1c-7.8-7.8-18.1-12.1-29.1-12.1h-63.6c-21.5,0-39.1,17.5-39.1,39v69.5c0,14.1,8.4,26.7,21.4,32.2
						c18.6,7.9,43.5,21,56.1,38.7c0.5,0.7,0.7,1.7,0.6,2.6c-0.2,0.9-0.7,1.7-1.4,2.2c-0.8,0.6-1.6,1.7-1.5,2s3.4,8.4,63.5,8.4
						c1.9,0,3.4,1.5,3.4,3.4C315.3,357.4,313.8,358.9,311.9,358.9z"/>
					<polygon points="244.6,338.9 248,207.3 251.4,338.9 					"/>
					<path d="M375.6,501.9c-36.3,0-65.9-29.5-65.9-65.9v-4.2c0-27,15.9-51.8,40.4-63.1l2.9,6.2c-22.1,10.2-36.4,32.5-36.4,56.9v4.2
						c0,32.5,26.5,59,59,59s59-26.5,59-59V255.8c0-44.2-36-80.2-80.2-80.2h-41.9v-6.8h41.9c48,0,87,39,87,87v180.3
						C441.5,472.4,411.9,501.9,375.6,501.9z"/>
					<path d="M371.6,437.4l-4.3-16.2c-0.4-5.4-1.4-10.7-2.6-15.9c-1.3-5.2-2.9-10.3-5.1-15c-2.1-4.7-5.1-8.9-8.7-12.6
						c-7.2-7.3-17-12-27.3-13c-1.3-0.1-2.6-0.2-3.8-0.2h-1.1c-0.5,0-1.1-0.1-1.6-0.2c-1.1-0.2-2.1-0.7-3-1.3s-1.8-1.3-2.4-2.2
						c-0.6-0.9-0.9-2-1.1-3.1c-0.1-0.5-0.1-1.1-0.1-1.6c0-0.3,0-0.5,0.1-0.8l0.1-0.6l0.3-2.1c0.7-5.5,1.5-11.1,2.5-16.6
						c0.9,5.5,1.7,11.1,2.5,16.6l0.3,2.1c0,0.1,0,0.4,0.1,0.5l0.1,0.3c0.1,0.2,0.2,0.3,0.3,0.4c0.2,0.3,0.5,0.4,0.7,0.6
						s0.3,0.5,0.6,0.6c0.2,0.2,0.5,0.3,0.8,0.3c0.1,0,0.3,0.1,0.4,0.1h0.1h0.3h0.6c1.5,0,3,0.1,4.4,0.3c11.8,1.2,23.1,6.6,31.4,15
						c4.2,4.2,7.6,9.1,10.1,14.5c2.4,5.3,4.2,10.7,5.6,16.3c0.7,2.8,1.2,5.6,1.7,8.4c0.2,1.4,0.5,2.8,0.6,4.2
						c0.2,1.4,0.3,2.8,0.6,4.2C374,426.2,373.1,431.9,371.6,437.4z"/>
					<path d="M439.9,364.5l-3.8-5.7l65.9-43.4c3.6-2.6,5.8-6.8,5.8-11.4c0,0,0-0.1-0.1-0.2c-0.1-0.1-0.2,0-0.3,0l-68,31.3l-2.9-6.2
						l68-31.3c2.2-1,4.8-0.8,6.8,0.5c2.1,1.3,3.3,3.5,3.3,6c0,6.7-3.3,13.1-8.8,17L439.9,364.5z"/>
				</g>
			</g>
		</g>
		<g>
			<path d="M637.2,289.1c-2.7-1.4-2.9-2.1-2.9-7.4c0-9.8,0.8-17.6,1-20.7c0.2-2.1,0.6-3.1,1.6-3.1c1.2,0,1.4,0.6,1.4,2.1
				c0,1.8,0,4.5,0.6,7.2c2.9,14.4,15.8,19.9,28.9,19.9c18.7,0,27.9-13.5,27.9-25.9c0-13.5-5.7-21.3-22.4-35.1l-8.8-7.2
				c-20.7-17-25.4-29.1-25.4-42.3c0-20.9,15.6-35.1,40.4-35.1c7.6,0,13.3,0.8,18.1,2c3.7,0.8,5.3,1,6.8,1c1.6,0,2,0.4,2,1.4
				c0,1-0.8,7.4-0.8,20.7c0,3.1-0.4,4.5-1.4,4.5c-1.2,0-1.4-1-1.6-2.5c-0.2-2.3-1.4-7.6-2.5-9.8c-1.2-2.1-6.4-10.3-24.4-10.3
				c-13.5,0-24,8.4-24,22.6c0,11.1,5.1,18.1,23.8,32.8l5.5,4.3c23,18.1,28.5,30.2,28.5,45.8c0,8-3.1,22.8-16.6,32.4
				c-8.4,5.8-18.9,8.2-29.4,8.2C654.2,294.3,645.2,293,637.2,289.1z"/>
			<path d="M811.5,141.5c43.9,0,76.6,27.7,76.6,73.1c0,43.7-30.8,79.8-77.8,79.8c-53.4,0-75.7-41.5-75.7-76.6
				C734.7,186.1,757.7,141.5,811.5,141.5z M815.6,286.9c17.6,0,53.8-10.1,53.8-66.9c0-46.8-28.5-72-59.3-72
				c-32.6,0-56.9,21.5-56.9,64.2C753.2,257.7,780.5,286.9,815.6,286.9z"/>
			<path d="M934.8,265.1c0.4,16,2.3,21.1,7.6,22.6c3.7,1,8,1.2,9.8,1.2c1,0,1.6,0.4,1.6,1.2c0,1.2-1.2,1.6-3.5,1.6
				c-11.1,0-18.9-0.6-20.7-0.6c-1.8,0-9.9,0.6-18.7,0.6c-2,0-3.1-0.2-3.1-1.6c0-0.8,0.6-1.2,1.6-1.2c1.6,0,5.1-0.2,8-1.2
				c4.9-1.4,5.9-7,5.9-24.8l0.2-111.7c0-7.6,0.6-9.8,2.1-9.8c1.6,0,4.9,4.3,6.8,6.2c2.9,3.3,32,34.7,62,66.9
				c19.3,20.7,40.6,44.5,46.8,50.9l-2.1-99.1c-0.2-12.7-1.6-17-7.6-18.5c-3.5-0.8-8-1-9.6-1c-1.4,0-1.6-0.6-1.6-1.4
				c0-1.2,1.6-1.4,3.9-1.4c8.8,0,18.1,0.6,20.3,0.6c2.1,0,8.6-0.6,16.6-0.6c2.1,0,3.5,0.2,3.5,1.4c0,0.8-0.8,1.4-2.1,1.4
				c-1,0-2.3,0-4.7,0.6c-6.4,1.4-7.2,5.7-7.2,17.4l-0.4,114.3c0,12.9-0.4,13.8-1.8,13.8c-1.6,0-3.9-2.1-14.2-12.5
				c-2.1-2-30.2-30.6-50.9-52.8c-22.6-24.4-44.7-48.9-50.9-56L934.8,265.1z"/>
			<path d="M1110.3,200.7c0-30.4,0-35.9-0.4-42.1c-0.4-6.6-2-9.8-8.4-11.1c-1.6-0.4-4.9-0.6-6.6-0.6c-0.8,0-1.6-0.4-1.6-1.2
				c0-1.2,1-1.6,3.1-1.6c8.8,0,21.1,0.6,22,0.6c2.3,0,14.6-0.6,26.3-0.6c19.3,0,55-1.8,78.2,22.2c9.8,10.1,18.9,26.3,18.9,49.5
				c0,24.6-10.1,43.5-21.1,55c-8.4,8.8-25.9,22.4-59.1,22.4c-8.4,0-18.7-0.6-27.1-1.2c-8.6-0.6-15.2-1.2-16.2-1.2
				c-0.4,0-3.7,0-7.8,0.2c-3.9,0-8.4,0.4-11.3,0.4c-2.1,0-3.1-0.4-3.1-1.6c0-0.6,0.4-1.2,1.6-1.2c1.8,0,4.1-0.4,5.9-0.8
				c3.9-0.8,4.9-5.1,5.7-10.7c1-8.2,1-23.6,1-42.3V200.7z M1126.7,221.8c0,20.7,0.2,38.6,0.4,42.3c0.2,4.9,0.6,12.7,2.1,14.8
				c2.5,3.7,10.1,7.8,33.2,7.8c18.1,0,34.9-6.6,46.4-18.1c10.1-9.9,15.6-28.7,15.6-46.6c0-24.8-10.7-40.8-18.7-49.1
				c-18.3-19.3-40.6-22-63.8-22c-3.9,0-11.1,0.6-12.7,1.4c-1.8,0.8-2.3,1.8-2.3,3.9c-0.2,6.6-0.2,26.5-0.2,41.5V221.8z"/>
			<path d="M1401,235.1c0,18.7,0,34.1,1,42.3c0.6,5.7,1.8,9.9,7.6,10.7c2.7,0.4,7,0.8,8.8,0.8c1.2,0,1.6,0.6,1.6,1.2
				c0,1-1,1.6-3.1,1.6c-10.7,0-23-0.6-24-0.6c-1,0-13.3,0.6-19.1,0.6c-2.1,0-3.1-0.4-3.1-1.6c0-0.6,0.4-1.2,1.6-1.2
				c1.8,0,4.1-0.4,5.9-0.8c3.9-0.8,4.9-5.1,5.7-10.7c1-8.2,1-23.6,1-42.3v-20.5c0-0.8-0.6-1.2-1.2-1.2h-82.7c-0.6,0-1.2,0.2-1.2,1.2
				v20.5c0,18.7,0,34.1,1,42.3c0.6,5.7,1.8,9.9,7.6,10.7c2.7,0.4,7,0.8,8.8,0.8c1.2,0,1.6,0.6,1.6,1.2c0,1-1,1.6-3.1,1.6
				c-10.7,0-23-0.6-24-0.6c-1,0-13.3,0.6-19.1,0.6c-2.1,0-3.1-0.4-3.1-1.6c0-0.6,0.4-1.2,1.6-1.2c1.8,0,4.1-0.4,5.9-0.8
				c3.9-0.8,4.9-5.1,5.7-10.7c1-8.2,1-23.6,1-42.3v-34.3c0-30.4,0-35.9-0.4-42.1c-0.4-6.6-2-9.8-8.4-11.1c-1.6-0.4-4.9-0.6-6.6-0.6
				c-0.8,0-1.6-0.4-1.6-1.2c0-1.2,1-1.6,3.1-1.6c8.8,0,21.1,0.6,22,0.6c1,0,13.3-0.6,19.1-0.6c2.1,0,3.1,0.4,3.1,1.6
				c0,0.8-0.8,1.2-1.6,1.2c-1.4,0-2.5,0.2-4.9,0.6c-5.3,1-6.8,4.3-7.2,11.1c-0.4,6.2-0.4,11.7-0.4,42.1v4.1c0,1,0.6,1.2,1.2,1.2
				h82.7c0.6,0,1.2-0.2,1.2-1.2v-4.1c0-30.4,0-35.9-0.4-42.1c-0.4-6.6-2-9.8-8.4-11.1c-1.6-0.4-4.9-0.6-6.6-0.6
				c-0.8,0-1.6-0.4-1.6-1.2c0-1.2,1-1.6,3.1-1.6c8.8,0,21.1,0.6,22,0.6c1,0,13.3-0.6,19.1-0.6c2.1,0,3.1,0.4,3.1,1.6
				c0,0.8-0.8,1.2-1.6,1.2c-1.4,0-2.5,0.2-4.9,0.6c-5.3,1-6.8,4.3-7.2,11.1c-0.4,6.2-0.4,11.7-0.4,42.1V235.1z"/>
			<path d="M1482.9,235.1c0,18.7,0,34.1,1,42.3c0.6,5.7,1.8,9.9,7.6,10.7c2.7,0.4,7,0.8,8.8,0.8c1.2,0,1.6,0.6,1.6,1.2
				c0,1-1,1.6-3.1,1.6c-10.7,0-23-0.6-24-0.6c-1,0-13.3,0.6-19.1,0.6c-2.1,0-3.1-0.4-3.1-1.6c0-0.6,0.4-1.2,1.6-1.2
				c1.8,0,4.1-0.4,5.9-0.8c3.9-0.8,4.9-5.1,5.7-10.7c1-8.2,1-23.6,1-42.3v-34.3c0-30.4,0-35.9-0.4-42.1c-0.4-6.6-2.3-9.9-6.6-10.9
				c-2.1-0.6-4.7-0.8-6-0.8c-0.8,0-1.6-0.4-1.6-1.2c0-1.2,1-1.6,3.1-1.6c6.4,0,18.7,0.6,19.7,0.6c1,0,13.3-0.6,19.1-0.6
				c2.1,0,3.1,0.4,3.1,1.6c0,0.8-0.8,1.2-1.6,1.2c-1.4,0-2.5,0.2-4.9,0.6c-5.3,1-6.8,4.3-7.2,11.1c-0.4,6.2-0.4,11.7-0.4,42.1V235.1
				z"/>
		</g>
		<g>
			<path d="M649.7,420.9c0-30.4,0-35.9-0.4-42.1c-0.4-6.6-2-9.8-8.4-11.1c-1.6-0.4-4.9-0.6-6.6-0.6c-0.8,0-1.6-0.4-1.6-1.2
				c0-1.2,1-1.6,3.1-1.6c8.8,0,21.1,0.6,22,0.6c2.3,0,14.6-0.6,26.3-0.6c19.3,0,55-1.8,78.2,22.2c9.8,10.1,18.9,26.3,18.9,49.5
				c0,24.6-10.1,43.5-21.1,55c-8.4,8.8-25.9,22.4-59.1,22.4c-8.4,0-18.7-0.6-27.1-1.2c-8.6-0.6-15.2-1.2-16.2-1.2
				c-0.4,0-3.7,0-7.8,0.2c-3.9,0-8.4,0.4-11.3,0.4c-2.1,0-3.1-0.4-3.1-1.6c0-0.6,0.4-1.2,1.6-1.2c1.8,0,4.1-0.4,5.9-0.8
				c3.9-0.8,4.9-5.1,5.7-10.7c1-8.2,1-23.6,1-42.3V420.9z M666.1,441.9c0,20.7,0.2,38.6,0.4,42.3c0.2,4.9,0.6,12.7,2.1,14.8
				c2.5,3.7,10.1,7.8,33.2,7.8c18.1,0,34.9-6.6,46.4-18.1c10.1-9.9,15.6-28.7,15.6-46.6c0-24.8-10.7-40.8-18.7-49.1
				c-18.3-19.3-40.6-22-63.8-22c-3.9,0-11.1,0.6-12.7,1.4c-1.8,0.8-2.3,1.8-2.3,3.9c-0.2,6.6-0.2,26.5-0.2,41.5V441.9z"/>
			<path d="M826.5,420.9c0-30.4,0-35.9-0.4-42.1c-0.4-6.6-2-9.8-8.4-11.1c-1.6-0.4-4.9-0.6-6.6-0.6c-0.8,0-1.6-0.4-1.6-1.2
				c0-1.2,1-1.6,3.1-1.6c4.5,0,9.8,0,14,0.2l8,0.4c1.4,0,40.2,0,44.7-0.2c3.7-0.2,6.8-0.6,8.4-1c1-0.2,1.8-1,2.7-1
				c0.6,0,0.8,0.8,0.8,1.8c0,1.4-1,3.7-1.6,9.2c-0.2,2-0.6,10.5-1,12.9c-0.2,1-0.6,2.1-1.4,2.1c-1.2,0-1.6-1-1.6-2.5
				c0-1.4-0.2-4.7-1.2-7c-1.4-3.1-3.3-5.5-13.8-6.6c-3.3-0.4-24.6-0.6-26.7-0.6c-0.8,0-1.2,0.6-1.2,2v53.8c0,1.4,0.2,2,1.2,2
				c2.5,0,26.5,0,31-0.4c4.7-0.4,7.4-0.8,9.2-2.7c1.4-1.6,2.1-2.5,2.9-2.5c0.6,0,1,0.4,1,1.6s-1,4.5-1.6,10.9
				c-0.4,3.9-0.8,11.1-0.8,12.5c0,1.6,0,3.7-1.4,3.7c-1,0-1.4-0.8-1.4-1.8c0-2,0-3.9-0.8-6.4c-0.8-2.7-2.5-6-10.1-6.8
				c-5.3-0.6-24.6-1-27.9-1c-1,0-1.4,0.6-1.4,1.4v17.2c0,6.6-0.2,29.3,0,33.3c0.6,13.5,3.5,16,22.6,16c5.1,0,13.7,0,18.7-2.1
				c5.1-2.1,7.4-6,8.8-14c0.4-2.1,0.8-2.9,1.8-2.9c1.2,0,1.2,1.6,1.2,2.9c0,1.6-1.6,14.8-2.5,18.9c-1.4,5.1-2.9,5.1-10.5,5.1
				c-14.6,0-25.4-0.4-33-0.6c-7.6-0.4-12.3-0.6-15.2-0.6c-0.4,0-3.7,0-7.8,0.2c-3.9,0-8.4,0.4-11.3,0.4c-2.1,0-3.1-0.4-3.1-1.6
				c0-0.6,0.4-1.2,1.6-1.2c1.8,0,4.1-0.4,5.9-0.8c3.9-0.8,4.9-5.1,5.7-10.7c1-8.2,1-23.6,1-42.3V420.9z"/>
			<path d="M953.3,420.9c0-30.4,0-35.9-0.4-42.1c-0.4-6.6-2-9.8-8.4-11.1c-1.6-0.4-4.9-0.6-6.6-0.6c-0.8,0-1.6-0.4-1.6-1.2
				c0-1.2,1-1.6,3.1-1.6c4.5,0,9.8,0,14,0.2l8,0.2c3.9,0,43.5,0.2,48,0c3.7-0.2,6.8-0.2,8.6-0.8c1.2-0.4,1.9-1.2,2.7-1.2
				s1.2,0.8,1.2,1.8c0,1.4-1,3.7-1.6,9.2c-0.2,2-0.6,10.5-1,12.9c-0.2,1-0.6,2.1-1.6,2.1s-1.4-1-1.4-2.3c0-1.6-0.6-4.9-1.8-7.4
				s-5.7-6-13.3-6.2l-30-0.6c-1.2,0-1.8,0.6-1.8,2.1v53.8c0,1.2,0.2,1.8,1.4,1.8l25-0.2c3.3,0,6,0,8.8-0.2c4.7-0.4,7.2-1,9-3.5
				c0.8-1,1.4-2,2.1-2s1,0.6,1,1.6c0,1.2-1,4.5-1.6,10.9c-0.4,3.9-0.8,11.7-0.8,13.1c0,1.8,0,3.7-1.4,3.7c-1,0-1.4-0.8-1.4-1.8
				c-0.2-2-0.4-4.7-1.2-7c-1-2.7-4.1-6.2-10.1-7c-4.9-0.6-26.1-0.6-29.4-0.6c-1,0-1.4,0.4-1.4,1.8v16.6c0,18.7,0,34.1,1,42.3
				c0.6,5.7,1.8,9.9,7.6,10.7c2.7,0.4,7,0.8,8.8,0.8c1.2,0,1.6,0.6,1.6,1.2c0,1-1,1.6-3.1,1.6c-10.7,0-23-0.6-24-0.6
				c-1,0-13.3,0.6-19.1,0.6c-2.1,0-3.1-0.4-3.1-1.6c0-0.6,0.4-1.2,1.6-1.2c1.8,0,4.1-0.4,5.9-0.8c3.9-0.8,4.9-5.1,5.7-10.7
				c1-8.2,1-23.6,1-42.3V420.9z"/>
			<path d="M1072.6,420.9c0-30.4,0-35.9-0.4-42.1c-0.4-6.6-2-9.8-8.4-11.1c-1.6-0.4-4.9-0.6-6.6-0.6c-0.8,0-1.6-0.4-1.6-1.2
				c0-1.2,1-1.6,3.1-1.6c4.5,0,9.8,0,14,0.2l8,0.4c1.4,0,40.2,0,44.7-0.2c3.7-0.2,6.8-0.6,8.4-1c1-0.2,1.8-1,2.7-1
				c0.6,0,0.8,0.8,0.8,1.8c0,1.4-1,3.7-1.6,9.2c-0.2,2-0.6,10.5-1,12.9c-0.2,1-0.6,2.1-1.4,2.1c-1.2,0-1.6-1-1.6-2.5
				c0-1.4-0.2-4.7-1.2-7c-1.4-3.1-3.3-5.5-13.8-6.6c-3.3-0.4-24.6-0.6-26.7-0.6c-0.8,0-1.2,0.6-1.2,2v53.8c0,1.4,0.2,2,1.2,2
				c2.5,0,26.5,0,31-0.4c4.7-0.4,7.4-0.8,9.2-2.7c1.4-1.6,2.1-2.5,2.9-2.5c0.6,0,1,0.4,1,1.6s-1,4.5-1.6,10.9
				c-0.4,3.9-0.8,11.1-0.8,12.5c0,1.6,0,3.7-1.4,3.7c-1,0-1.4-0.8-1.4-1.8c0-2,0-3.9-0.8-6.4c-0.8-2.7-2.5-6-10.1-6.8
				c-5.3-0.6-24.6-1-27.9-1c-1,0-1.4,0.6-1.4,1.4v17.2c0,6.6-0.2,29.3,0,33.3c0.6,13.5,3.5,16,22.6,16c5.1,0,13.7,0,18.7-2.1
				c5.1-2.1,7.4-6,8.8-14c0.4-2.1,0.8-2.9,1.8-2.9c1.2,0,1.2,1.6,1.2,2.9c0,1.6-1.6,14.8-2.5,18.9c-1.4,5.1-2.9,5.1-10.5,5.1
				c-14.6,0-25.4-0.4-33-0.6c-7.6-0.4-12.3-0.6-15.2-0.6c-0.4,0-3.7,0-7.8,0.2c-3.9,0-8.4,0.4-11.3,0.4c-2.1,0-3.1-0.4-3.1-1.6
				c0-0.6,0.4-1.2,1.6-1.2c1.8,0,4.1-0.4,5.9-0.8c3.9-0.8,4.9-5.1,5.7-10.7c1-8.2,1-23.6,1-42.3V420.9z"/>
			<path d="M1200.7,485.2c0.4,16,2.3,21.1,7.6,22.6c3.7,1,8,1.2,9.8,1.2c1,0,1.6,0.4,1.6,1.2c0,1.2-1.2,1.6-3.5,1.6
				c-11.1,0-18.9-0.6-20.7-0.6c-1.8,0-9.9,0.6-18.7,0.6c-1.9,0-3.1-0.2-3.1-1.6c0-0.8,0.6-1.2,1.6-1.2c1.6,0,5.1-0.2,8-1.2
				c4.9-1.4,5.9-7,5.9-24.8l0.2-111.7c0-7.6,0.6-9.8,2.1-9.8c1.6,0,4.9,4.3,6.8,6.2c2.9,3.3,32,34.7,62,66.9
				c19.3,20.7,40.6,44.5,46.8,50.9l-2.1-99.1c-0.2-12.7-1.6-17-7.6-18.5c-3.5-0.8-8-1-9.6-1c-1.4,0-1.6-0.6-1.6-1.4
				c0-1.2,1.6-1.4,3.9-1.4c8.8,0,18.1,0.6,20.3,0.6c2.1,0,8.6-0.6,16.6-0.6c2.1,0,3.5,0.2,3.5,1.4c0,0.8-0.8,1.4-2.1,1.4
				c-1,0-2.3,0-4.7,0.6c-6.4,1.4-7.2,5.7-7.2,17.4l-0.4,114.3c0,12.9-0.4,13.8-1.8,13.8c-1.6,0-3.9-2.1-14.2-12.5
				c-2.1-2-30.2-30.6-50.9-52.8c-22.6-24.4-44.7-48.9-50.9-56L1200.7,485.2z"/>
			<path d="M1378.6,493.4c-18.9-17-23.6-39.2-23.6-57.7c0-13.1,4.5-35.9,21.8-53.2c11.7-11.7,29.4-20.9,59.5-20.9
				c7.8,0,18.7,0.6,28.3,2.3c7.4,1.4,13.7,2.5,19.9,2.9c2.1,0.2,2.5,1,2.5,2.1c0,1.6-0.6,3.9-1,10.9c-0.4,6.4-0.4,17.2-0.6,20.1
				s-0.6,4.1-1.8,4.1c-1.4,0-1.6-1.4-1.6-4.1c0-7.6-3.1-15.6-8.2-19.9c-6.8-5.9-21.8-11.1-39-11.1c-25.9,0-38,7.6-44.9,14.2
				c-14.2,13.7-17.6,31-17.6,50.9c0,37.2,28.7,71.4,70.4,71.4c14.6,0,26.1-1.8,33.9-9.8c4.1-4.3,6.6-12.9,7.2-16.4
				c0.4-2.1,0.8-2.9,2-2.9c1,0,1.4,1.4,1.4,2.9c0,1.4-2.3,18.3-4.3,25c-1.2,3.7-1.6,4.1-5.1,5.7c-7.8,3.1-22.6,4.5-35.1,4.5
				C1413.7,514.5,1394,507.2,1378.6,493.4z"/>
			<path d="M1534.2,420.9c0-30.4,0-35.9-0.4-42.1c-0.4-6.6-2-9.8-8.4-11.1c-1.6-0.4-4.9-0.6-6.6-0.6c-0.8,0-1.6-0.4-1.6-1.2
				c0-1.2,1-1.6,3.1-1.6c4.5,0,9.8,0,14,0.2l8,0.4c1.4,0,40.2,0,44.7-0.2c3.7-0.2,6.8-0.6,8.4-1c1-0.2,1.8-1,2.7-1
				c0.6,0,0.8,0.8,0.8,1.8c0,1.4-1,3.7-1.6,9.2c-0.2,2-0.6,10.5-1,12.9c-0.2,1-0.6,2.1-1.4,2.1c-1.2,0-1.6-1-1.6-2.5
				c0-1.4-0.2-4.7-1.2-7c-1.4-3.1-3.3-5.5-13.8-6.6c-3.3-0.4-24.6-0.6-26.7-0.6c-0.8,0-1.2,0.6-1.2,2v53.8c0,1.4,0.2,2,1.2,2
				c2.5,0,26.5,0,31-0.4c4.7-0.4,7.4-0.8,9.2-2.7c1.4-1.6,2.1-2.5,2.9-2.5c0.6,0,1,0.4,1,1.6s-1,4.5-1.6,10.9
				c-0.4,3.9-0.8,11.1-0.8,12.5c0,1.6,0,3.7-1.4,3.7c-1,0-1.4-0.8-1.4-1.8c0-2,0-3.9-0.8-6.4c-0.8-2.7-2.5-6-10.1-6.8
				c-5.3-0.6-24.6-1-27.9-1c-1,0-1.4,0.6-1.4,1.4v17.2c0,6.6-0.2,29.3,0,33.3c0.6,13.5,3.5,16,22.6,16c5.1,0,13.7,0,18.7-2.1
				c5.1-2.1,7.4-6,8.8-14c0.4-2.1,0.8-2.9,1.8-2.9c1.2,0,1.2,1.6,1.2,2.9c0,1.6-1.6,14.8-2.5,18.9c-1.4,5.1-2.9,5.1-10.5,5.1
				c-14.6,0-25.4-0.4-33-0.6c-7.6-0.4-12.3-0.6-15.2-0.6c-0.4,0-3.7,0-7.8,0.2c-3.9,0-8.4,0.4-11.3,0.4c-2.1,0-3.1-0.4-3.1-1.6
				c0-0.6,0.4-1.2,1.6-1.2c1.8,0,4.1-0.4,5.9-0.8c3.9-0.8,4.9-5.1,5.7-10.7c1-8.2,1-23.6,1-42.3V420.9z"/>
		</g>
	</g>
</g>
<g id="Logo__x2B__Wordmark_colour">
	<g id="WordmarkIcon">
		<g>
			<path class="st3" d="M100,100h450v450H325c-124.3,0-225-100.7-225-225V100z"/>
			<g>
				<path class="st4" d="M354.5,172.2h-29.3h-12.6l-5.1-5.1c-8.4-8.4-19.7-13.1-31.6-13.1h-63.6c-23.5,0-42.5,19-42.5,42.5V266
					c0,15.4,9.3,29.3,23.5,35.3c18.3,7.7,42.5,20.5,54.6,37.5c0,0-22,16.5,65.2,16.6c0.2,3.1,2.7,5.5,5.8,5.5l0,0
					c11.7,0,22.7,4.2,31.3,11.5c-22.7,11-37.1,34.1-37.1,59.4v4.2c0,34.5,28,62.4,62.4,62.4l0,0c34.5,0,62.4-28,62.4-62.4V255.8
					C438.1,209.6,400.6,172.2,354.5,172.2z"/>
				<path class="st3" d="M271.4,168.6c3.5-0.4,7.1-0.1,10.6,0.7c3.5,0.9,6.9,2.4,9.9,4.4c6.2,4,10.9,10.1,13.3,17.1
					c0.3,0.9,0.5,1.8,0.8,2.7c0.2,0.9,0.5,1.8,0.6,2.7s0.3,1.8,0.4,2.7c0,0.9,0.1,1.8,0.1,2.8c0,3.6-0.1,7-0.3,10.5
					c-0.3,7-0.7,14-1.6,20.9c-0.9-7-1.3-14-1.6-20.9c-0.2-3.5-0.2-7-0.4-10.4c-0.1-3.3-0.8-6.5-1.8-9.6s-2.6-6-4.5-8.7
					s-4.2-5.1-6.8-7.2c-2.6-2-5.5-3.8-8.7-5C278.2,169.9,274.9,169.1,271.4,168.6z"/>
				<path class="st3" d="M359.9,262.5c3.5-1.1,7.2-1.5,10.9-1.1c3.7,0.4,7.6,1.8,10.5,4.7c2.9,2.8,4.4,6.8,4.9,10.6
					c0.1,0.5,0.1,1,0.2,1.4l0.1,1.4c0.1,1,0,1.8,0,2.7v5.4l-0.1,10.8c-0.1,3.6-0.2,7.2-0.3,10.8c-0.3,7.2-0.7,14.4-1.6,21.6
					c-0.9-7.2-1.3-14.4-1.6-21.6c-0.2-3.6-0.2-7.2-0.3-10.8l-0.1-10.8v-5.4c0-1.8,0.1-3.5-0.1-5.2c-0.3-3.3-1.4-6.5-3.4-8.9
					c-2.1-2.4-5.1-4.1-8.5-4.9C367.1,262.5,363.5,262.3,359.9,262.5z"/>
				<path class="st3" d="M373.9,281c0,2.9-2.3,5.2-5.2,5.2c-2.9,0-15.7-2.3-15.7-5.2s12.8-5.2,15.7-5.2
					C371.5,275.7,373.9,278.1,373.9,281z"/>
				<path class="st4" d="M438.1,332.1l68-31.3c2.4-1.1,5.2,0.7,5.2,3.3l0,0c0,5.7-2.7,11-7.3,14.2l-65.9,43.4"/>
				<g>
					<path class="st3" d="M311.9,358.9c-58.4,0-68.1-7-70-13.2c-0.9-2.8,0.2-5.3,1.6-7.2c-12.1-15.3-34.4-26.9-51.4-34.1
						c-15.6-6.6-25.6-21.7-25.6-38.5v-69.5c0-25.3,20.6-45.9,45.9-45.9H276c12.8,0,24.9,5,34,14.1l5.1,5.1c1.3,1.3,1.3,3.5,0,4.8
						s-3.5,1.3-4.8,0l-5.1-5.1c-7.8-7.8-18.1-12.1-29.1-12.1h-63.6c-21.5,0-39.1,17.5-39.1,39v69.5c0,14.1,8.4,26.7,21.4,32.2
						c18.6,7.9,43.5,21,56.1,38.7c0.5,0.7,0.7,1.7,0.6,2.6c-0.2,0.9-0.7,1.7-1.4,2.2c-0.8,0.6-1.6,1.7-1.5,2s3.4,8.4,63.5,8.4
						c1.9,0,3.4,1.5,3.4,3.4C315.3,357.4,313.8,358.9,311.9,358.9z"/>
					<polygon class="st3" points="244.6,338.9 248,207.3 251.4,338.9 					"/>
					<path class="st3" d="M375.6,501.9c-36.3,0-65.9-29.5-65.9-65.9v-4.2c0-27,15.9-51.8,40.4-63.1l2.9,6.2
						c-22.1,10.2-36.4,32.5-36.4,56.9v4.2c0,32.5,26.5,59,59,59s59-26.5,59-59V255.8c0-44.2-36-80.2-80.2-80.2h-41.9v-6.8h41.9
						c48,0,87,39,87,87v180.3C441.5,472.4,411.9,501.9,375.6,501.9z"/>
					<path class="st3" d="M371.6,437.4l-4.3-16.2c-0.4-5.4-1.4-10.7-2.6-15.9c-1.3-5.2-2.9-10.3-5.1-15c-2.1-4.7-5.1-8.9-8.7-12.6
						c-7.2-7.3-17-12-27.3-13c-1.3-0.1-2.6-0.2-3.8-0.2h-1.1c-0.5,0-1.1-0.1-1.6-0.2c-1.1-0.2-2.1-0.7-3-1.3s-1.8-1.3-2.4-2.2
						c-0.6-0.9-0.9-2-1.1-3.1c-0.1-0.5-0.1-1.1-0.1-1.6c0-0.3,0-0.5,0.1-0.8l0.1-0.6l0.3-2.1c0.7-5.5,1.5-11.1,2.5-16.6
						c0.9,5.5,1.7,11.1,2.5,16.6l0.3,2.1c0,0.1,0,0.4,0.1,0.5l0.1,0.3c0.1,0.2,0.2,0.3,0.3,0.4c0.2,0.3,0.5,0.4,0.7,0.6
						s0.3,0.5,0.6,0.6c0.2,0.2,0.5,0.3,0.8,0.3c0.1,0,0.3,0.1,0.4,0.1h0.1h0.3h0.6c1.5,0,3,0.1,4.4,0.3c11.8,1.2,23.1,6.6,31.4,15
						c4.2,4.2,7.6,9.1,10.1,14.5c2.4,5.3,4.2,10.7,5.6,16.3c0.7,2.8,1.2,5.6,1.7,8.4c0.2,1.4,0.5,2.8,0.6,4.2
						c0.2,1.4,0.3,2.8,0.6,4.2C374,426.2,373.1,431.9,371.6,437.4z"/>
					<path class="st3" d="M439.9,364.5l-3.8-5.7l65.9-43.4c3.6-2.6,5.8-6.8,5.8-11.4c0,0,0-0.1-0.1-0.2c-0.1-0.1-0.2,0-0.3,0
						l-68,31.3l-2.9-6.2l68-31.3c2.2-1,4.8-0.8,6.8,0.5c2.1,1.3,3.3,3.5,3.3,6c0,6.7-3.3,13.1-8.8,17L439.9,364.5z"/>
				</g>
			</g>
		</g>
		<g>
			<g>
				<path class="st5" d="M637.2,289.1c-2.7-1.4-2.9-2.1-2.9-7.4c0-9.8,0.8-17.6,1-20.7c0.2-2.1,0.6-3.1,1.6-3.1
					c1.2,0,1.4,0.6,1.4,2.1c0,1.8,0,4.5,0.6,7.2c2.9,14.4,15.8,19.9,28.9,19.9c18.7,0,27.9-13.5,27.9-25.9
					c0-13.5-5.7-21.3-22.4-35.1l-8.8-7.2c-20.7-17-25.4-29.1-25.4-42.3c0-20.9,15.6-35.1,40.4-35.1c7.6,0,13.3,0.8,18.1,2
					c3.7,0.8,5.3,1,6.8,1c1.6,0,2,0.4,2,1.4c0,1-0.8,7.4-0.8,20.7c0,3.1-0.4,4.5-1.4,4.5c-1.2,0-1.4-1-1.6-2.5
					c-0.2-2.3-1.4-7.6-2.5-9.8c-1.2-2.1-6.4-10.3-24.4-10.3c-13.5,0-24,8.4-24,22.6c0,11.1,5.1,18.1,23.8,32.8l5.5,4.3
					c23,18.1,28.5,30.2,28.5,45.8c0,8-3.1,22.8-16.6,32.4c-8.4,5.8-18.9,8.2-29.4,8.2C654.2,294.3,645.2,293,637.2,289.1z"/>
				<path class="st5" d="M811.5,141.5c43.9,0,76.6,27.7,76.6,73.1c0,43.7-30.8,79.8-77.8,79.8c-53.4,0-75.7-41.5-75.7-76.6
					C734.7,186.1,757.7,141.5,811.5,141.5z M815.6,286.9c17.6,0,53.8-10.1,53.8-66.9c0-46.8-28.5-72-59.3-72
					c-32.6,0-56.9,21.5-56.9,64.2C753.2,257.7,780.5,286.9,815.6,286.9z"/>
				<path class="st5" d="M934.8,265.1c0.4,16,2.3,21.1,7.6,22.6c3.7,1,8,1.2,9.8,1.2c1,0,1.6,0.4,1.6,1.2c0,1.2-1.2,1.6-3.5,1.6
					c-11.1,0-18.9-0.6-20.7-0.6c-1.8,0-9.9,0.6-18.7,0.6c-2,0-3.1-0.2-3.1-1.6c0-0.8,0.6-1.2,1.6-1.2c1.6,0,5.1-0.2,8-1.2
					c4.9-1.4,5.9-7,5.9-24.8l0.2-111.7c0-7.6,0.6-9.8,2.1-9.8c1.6,0,4.9,4.3,6.8,6.2c2.9,3.3,32,34.7,62,66.9
					c19.3,20.7,40.6,44.5,46.8,50.9l-2.1-99.1c-0.2-12.7-1.6-17-7.6-18.5c-3.5-0.8-8-1-9.6-1c-1.4,0-1.6-0.6-1.6-1.4
					c0-1.2,1.6-1.4,3.9-1.4c8.8,0,18.1,0.6,20.3,0.6c2.1,0,8.6-0.6,16.6-0.6c2.1,0,3.5,0.2,3.5,1.4c0,0.8-0.8,1.4-2.1,1.4
					c-1,0-2.3,0-4.7,0.6c-6.4,1.4-7.2,5.7-7.2,17.4l-0.4,114.3c0,12.9-0.4,13.8-1.8,13.8c-1.6,0-3.9-2.1-14.2-12.5
					c-2.1-2-30.2-30.6-50.9-52.8c-22.6-24.4-44.7-48.9-50.9-56L934.8,265.1z"/>
				<path class="st5" d="M1110.3,200.7c0-30.4,0-35.9-0.4-42.1c-0.4-6.6-2-9.8-8.4-11.1c-1.6-0.4-4.9-0.6-6.6-0.6
					c-0.8,0-1.6-0.4-1.6-1.2c0-1.2,1-1.6,3.1-1.6c8.8,0,21.1,0.6,22,0.6c2.3,0,14.6-0.6,26.3-0.6c19.3,0,55-1.8,78.2,22.2
					c9.8,10.1,18.9,26.3,18.9,49.5c0,24.6-10.1,43.5-21.1,55c-8.4,8.8-25.9,22.4-59.1,22.4c-8.4,0-18.7-0.6-27.1-1.2
					c-8.6-0.6-15.2-1.2-16.2-1.2c-0.4,0-3.7,0-7.8,0.2c-3.9,0-8.4,0.4-11.3,0.4c-2.1,0-3.1-0.4-3.1-1.6c0-0.6,0.4-1.2,1.6-1.2
					c1.8,0,4.1-0.4,5.9-0.8c3.9-0.8,4.9-5.1,5.7-10.7c1-8.2,1-23.6,1-42.3V200.7z M1126.7,221.8c0,20.7,0.2,38.6,0.4,42.3
					c0.2,4.9,0.6,12.7,2.1,14.8c2.5,3.7,10.1,7.8,33.2,7.8c18.1,0,34.9-6.6,46.4-18.1c10.1-9.9,15.6-28.7,15.6-46.6
					c0-24.8-10.7-40.8-18.7-49.1c-18.3-19.3-40.6-22-63.8-22c-3.9,0-11.1,0.6-12.7,1.4c-1.8,0.8-2.3,1.8-2.3,3.9
					c-0.2,6.6-0.2,26.5-0.2,41.5V221.8z"/>
				<path class="st5" d="M1401,235.1c0,18.7,0,34.1,1,42.3c0.6,5.7,1.8,9.9,7.6,10.7c2.7,0.4,7,0.8,8.8,0.8c1.2,0,1.6,0.6,1.6,1.2
					c0,1-1,1.6-3.1,1.6c-10.7,0-23-0.6-24-0.6c-1,0-13.3,0.6-19.1,0.6c-2.1,0-3.1-0.4-3.1-1.6c0-0.6,0.4-1.2,1.6-1.2
					c1.8,0,4.1-0.4,5.9-0.8c3.9-0.8,4.9-5.1,5.7-10.7c1-8.2,1-23.6,1-42.3v-20.5c0-0.8-0.6-1.2-1.2-1.2h-82.7
					c-0.6,0-1.2,0.2-1.2,1.2v20.5c0,18.7,0,34.1,1,42.3c0.6,5.7,1.8,9.9,7.6,10.7c2.7,0.4,7,0.8,8.8,0.8c1.2,0,1.6,0.6,1.6,1.2
					c0,1-1,1.6-3.1,1.6c-10.7,0-23-0.6-24-0.6c-1,0-13.3,0.6-19.1,0.6c-2.1,0-3.1-0.4-3.1-1.6c0-0.6,0.4-1.2,1.6-1.2
					c1.8,0,4.1-0.4,5.9-0.8c3.9-0.8,4.9-5.1,5.7-10.7c1-8.2,1-23.6,1-42.3v-34.3c0-30.4,0-35.9-0.4-42.1c-0.4-6.6-2-9.8-8.4-11.1
					c-1.6-0.4-4.9-0.6-6.6-0.6c-0.8,0-1.6-0.4-1.6-1.2c0-1.2,1-1.6,3.1-1.6c8.8,0,21.1,0.6,22,0.6c1,0,13.3-0.6,19.1-0.6
					c2.1,0,3.1,0.4,3.1,1.6c0,0.8-0.8,1.2-1.6,1.2c-1.4,0-2.5,0.2-4.9,0.6c-5.3,1-6.8,4.3-7.2,11.1c-0.4,6.2-0.4,11.7-0.4,42.1v4.1
					c0,1,0.6,1.2,1.2,1.2h82.7c0.6,0,1.2-0.2,1.2-1.2v-4.1c0-30.4,0-35.9-0.4-42.1c-0.4-6.6-2-9.8-8.4-11.1
					c-1.6-0.4-4.9-0.6-6.6-0.6c-0.8,0-1.6-0.4-1.6-1.2c0-1.2,1-1.6,3.1-1.6c8.8,0,21.1,0.6,22,0.6c1,0,13.3-0.6,19.1-0.6
					c2.1,0,3.1,0.4,3.1,1.6c0,0.8-0.8,1.2-1.6,1.2c-1.4,0-2.5,0.2-4.9,0.6c-5.3,1-6.8,4.3-7.2,11.1c-0.4,6.2-0.4,11.7-0.4,42.1
					V235.1z"/>
				<path class="st5" d="M1482.9,235.1c0,18.7,0,34.1,1,42.3c0.6,5.7,1.8,9.9,7.6,10.7c2.7,0.4,7,0.8,8.8,0.8c1.2,0,1.6,0.6,1.6,1.2
					c0,1-1,1.6-3.1,1.6c-10.7,0-23-0.6-24-0.6c-1,0-13.3,0.6-19.1,0.6c-2.1,0-3.1-0.4-3.1-1.6c0-0.6,0.4-1.2,1.6-1.2
					c1.8,0,4.1-0.4,5.9-0.8c3.9-0.8,4.9-5.1,5.7-10.7c1-8.2,1-23.6,1-42.3v-34.3c0-30.4,0-35.9-0.4-42.1c-0.4-6.6-2.3-9.9-6.6-10.9
					c-2.1-0.6-4.7-0.8-6-0.8c-0.8,0-1.6-0.4-1.6-1.2c0-1.2,1-1.6,3.1-1.6c6.4,0,18.7,0.6,19.7,0.6c1,0,13.3-0.6,19.1-0.6
					c2.1,0,3.1,0.4,3.1,1.6c0,0.8-0.8,1.2-1.6,1.2c-1.4,0-2.5,0.2-4.9,0.6c-5.3,1-6.8,4.3-7.2,11.1c-0.4,6.2-0.4,11.7-0.4,42.1
					V235.1z"/>
			</g>
		</g>
		<g>
			<g>
				<path class="st5" d="M649.7,420.9c0-30.4,0-35.9-0.4-42.1c-0.4-6.6-2-9.8-8.4-11.1c-1.6-0.4-4.9-0.6-6.6-0.6
					c-0.8,0-1.6-0.4-1.6-1.2c0-1.2,1-1.6,3.1-1.6c8.8,0,21.1,0.6,22,0.6c2.3,0,14.6-0.6,26.3-0.6c19.3,0,55-1.8,78.2,22.2
					c9.8,10.1,18.9,26.3,18.9,49.5c0,24.6-10.1,43.5-21.1,55c-8.4,8.8-25.9,22.4-59.1,22.4c-8.4,0-18.7-0.6-27.1-1.2
					c-8.6-0.6-15.2-1.2-16.2-1.2c-0.4,0-3.7,0-7.8,0.2c-3.9,0-8.4,0.4-11.3,0.4c-2.1,0-3.1-0.4-3.1-1.6c0-0.6,0.4-1.2,1.6-1.2
					c1.8,0,4.1-0.4,5.9-0.8c3.9-0.8,4.9-5.1,5.7-10.7c1-8.2,1-23.6,1-42.3V420.9z M666.1,441.9c0,20.7,0.2,38.6,0.4,42.3
					c0.2,4.9,0.6,12.7,2.1,14.8c2.5,3.7,10.1,7.8,33.2,7.8c18.1,0,34.9-6.6,46.4-18.1c10.1-9.9,15.6-28.7,15.6-46.6
					c0-24.8-10.7-40.8-18.7-49.1c-18.3-19.3-40.6-22-63.8-22c-3.9,0-11.1,0.6-12.7,1.4c-1.8,0.8-2.3,1.8-2.3,3.9
					c-0.2,6.6-0.2,26.5-0.2,41.5V441.9z"/>
				<path class="st5" d="M826.5,420.9c0-30.4,0-35.9-0.4-42.1c-0.4-6.6-2-9.8-8.4-11.1c-1.6-0.4-4.9-0.6-6.6-0.6
					c-0.8,0-1.6-0.4-1.6-1.2c0-1.2,1-1.6,3.1-1.6c4.5,0,9.8,0,14,0.2l8,0.4c1.4,0,40.2,0,44.7-0.2c3.7-0.2,6.8-0.6,8.4-1
					c1-0.2,1.8-1,2.7-1c0.6,0,0.8,0.8,0.8,1.8c0,1.4-1,3.7-1.6,9.2c-0.2,2-0.6,10.5-1,12.9c-0.2,1-0.6,2.1-1.4,2.1
					c-1.2,0-1.6-1-1.6-2.5c0-1.4-0.2-4.7-1.2-7c-1.4-3.1-3.3-5.5-13.8-6.6c-3.3-0.4-24.6-0.6-26.7-0.6c-0.8,0-1.2,0.6-1.2,2v53.8
					c0,1.4,0.2,2,1.2,2c2.5,0,26.5,0,31-0.4c4.7-0.4,7.4-0.8,9.2-2.7c1.4-1.6,2.1-2.5,2.9-2.5c0.6,0,1,0.4,1,1.6s-1,4.5-1.6,10.9
					c-0.4,3.9-0.8,11.1-0.8,12.5c0,1.6,0,3.7-1.4,3.7c-1,0-1.4-0.8-1.4-1.8c0-2,0-3.9-0.8-6.4c-0.8-2.7-2.5-6-10.1-6.8
					c-5.3-0.6-24.6-1-27.9-1c-1,0-1.4,0.6-1.4,1.4v17.2c0,6.6-0.2,29.3,0,33.3c0.6,13.5,3.5,16,22.6,16c5.1,0,13.7,0,18.7-2.1
					c5.1-2.1,7.4-6,8.8-14c0.4-2.1,0.8-2.9,1.8-2.9c1.2,0,1.2,1.6,1.2,2.9c0,1.6-1.6,14.8-2.5,18.9c-1.4,5.1-2.9,5.1-10.5,5.1
					c-14.6,0-25.4-0.4-33-0.6c-7.6-0.4-12.3-0.6-15.2-0.6c-0.4,0-3.7,0-7.8,0.2c-3.9,0-8.4,0.4-11.3,0.4c-2.1,0-3.1-0.4-3.1-1.6
					c0-0.6,0.4-1.2,1.6-1.2c1.8,0,4.1-0.4,5.9-0.8c3.9-0.8,4.9-5.1,5.7-10.7c1-8.2,1-23.6,1-42.3V420.9z"/>
				<path class="st5" d="M953.3,420.9c0-30.4,0-35.9-0.4-42.1c-0.4-6.6-2-9.8-8.4-11.1c-1.6-0.4-4.9-0.6-6.6-0.6
					c-0.8,0-1.6-0.4-1.6-1.2c0-1.2,1-1.6,3.1-1.6c4.5,0,9.8,0,14,0.2l8,0.2c3.9,0,43.5,0.2,48,0c3.7-0.2,6.8-0.2,8.6-0.8
					c1.2-0.4,1.9-1.2,2.7-1.2s1.2,0.8,1.2,1.8c0,1.4-1,3.7-1.6,9.2c-0.2,2-0.6,10.5-1,12.9c-0.2,1-0.6,2.1-1.6,2.1s-1.4-1-1.4-2.3
					c0-1.6-0.6-4.9-1.8-7.4s-5.7-6-13.3-6.2l-30-0.6c-1.2,0-1.8,0.6-1.8,2.1v53.8c0,1.2,0.2,1.8,1.4,1.8l25-0.2c3.3,0,6,0,8.8-0.2
					c4.7-0.4,7.2-1,9-3.5c0.8-1,1.4-2,2.1-2s1,0.6,1,1.6c0,1.2-1,4.5-1.6,10.9c-0.4,3.9-0.8,11.7-0.8,13.1c0,1.8,0,3.7-1.4,3.7
					c-1,0-1.4-0.8-1.4-1.8c-0.2-2-0.4-4.7-1.2-7c-1-2.7-4.1-6.2-10.1-7c-4.9-0.6-26.1-0.6-29.4-0.6c-1,0-1.4,0.4-1.4,1.8v16.6
					c0,18.7,0,34.1,1,42.3c0.6,5.7,1.8,9.9,7.6,10.7c2.7,0.4,7,0.8,8.8,0.8c1.2,0,1.6,0.6,1.6,1.2c0,1-1,1.6-3.1,1.6
					c-10.7,0-23-0.6-24-0.6c-1,0-13.3,0.6-19.1,0.6c-2.1,0-3.1-0.4-3.1-1.6c0-0.6,0.4-1.2,1.6-1.2c1.8,0,4.1-0.4,5.9-0.8
					c3.9-0.8,4.9-5.1,5.7-10.7c1-8.2,1-23.6,1-42.3V420.9z"/>
				<path class="st5" d="M1072.6,420.9c0-30.4,0-35.9-0.4-42.1c-0.4-6.6-2-9.8-8.4-11.1c-1.6-0.4-4.9-0.6-6.6-0.6
					c-0.8,0-1.6-0.4-1.6-1.2c0-1.2,1-1.6,3.1-1.6c4.5,0,9.8,0,14,0.2l8,0.4c1.4,0,40.2,0,44.7-0.2c3.7-0.2,6.8-0.6,8.4-1
					c1-0.2,1.8-1,2.7-1c0.6,0,0.8,0.8,0.8,1.8c0,1.4-1,3.7-1.6,9.2c-0.2,2-0.6,10.5-1,12.9c-0.2,1-0.6,2.1-1.4,2.1
					c-1.2,0-1.6-1-1.6-2.5c0-1.4-0.2-4.7-1.2-7c-1.4-3.1-3.3-5.5-13.8-6.6c-3.3-0.4-24.6-0.6-26.7-0.6c-0.8,0-1.2,0.6-1.2,2v53.8
					c0,1.4,0.2,2,1.2,2c2.5,0,26.5,0,31-0.4c4.7-0.4,7.4-0.8,9.2-2.7c1.4-1.6,2.1-2.5,2.9-2.5c0.6,0,1,0.4,1,1.6s-1,4.5-1.6,10.9
					c-0.4,3.9-0.8,11.1-0.8,12.5c0,1.6,0,3.7-1.4,3.7c-1,0-1.4-0.8-1.4-1.8c0-2,0-3.9-0.8-6.4c-0.8-2.7-2.5-6-10.1-6.8
					c-5.3-0.6-24.6-1-27.9-1c-1,0-1.4,0.6-1.4,1.4v17.2c0,6.6-0.2,29.3,0,33.3c0.6,13.5,3.5,16,22.6,16c5.1,0,13.7,0,18.7-2.1
					c5.1-2.1,7.4-6,8.8-14c0.4-2.1,0.8-2.9,1.8-2.9c1.2,0,1.2,1.6,1.2,2.9c0,1.6-1.6,14.8-2.5,18.9c-1.4,5.1-2.9,5.1-10.5,5.1
					c-14.6,0-25.4-0.4-33-0.6c-7.6-0.4-12.3-0.6-15.2-0.6c-0.4,0-3.7,0-7.8,0.2c-3.9,0-8.4,0.4-11.3,0.4c-2.1,0-3.1-0.4-3.1-1.6
					c0-0.6,0.4-1.2,1.6-1.2c1.8,0,4.1-0.4,5.9-0.8c3.9-0.8,4.9-5.1,5.7-10.7c1-8.2,1-23.6,1-42.3V420.9z"/>
				<path class="st5" d="M1200.7,485.2c0.4,16,2.3,21.1,7.6,22.6c3.7,1,8,1.2,9.8,1.2c1,0,1.6,0.4,1.6,1.2c0,1.2-1.2,1.6-3.5,1.6
					c-11.1,0-18.9-0.6-20.7-0.6c-1.8,0-9.9,0.6-18.7,0.6c-1.9,0-3.1-0.2-3.1-1.6c0-0.8,0.6-1.2,1.6-1.2c1.6,0,5.1-0.2,8-1.2
					c4.9-1.4,5.9-7,5.9-24.8l0.2-111.7c0-7.6,0.6-9.8,2.1-9.8c1.6,0,4.9,4.3,6.8,6.2c2.9,3.3,32,34.7,62,66.9
					c19.3,20.7,40.6,44.5,46.8,50.9l-2.1-99.1c-0.2-12.7-1.6-17-7.6-18.5c-3.5-0.8-8-1-9.6-1c-1.4,0-1.6-0.6-1.6-1.4
					c0-1.2,1.6-1.4,3.9-1.4c8.8,0,18.1,0.6,20.3,0.6c2.1,0,8.6-0.6,16.6-0.6c2.1,0,3.5,0.2,3.5,1.4c0,0.8-0.8,1.4-2.1,1.4
					c-1,0-2.3,0-4.7,0.6c-6.4,1.4-7.2,5.7-7.2,17.4l-0.4,114.3c0,12.9-0.4,13.8-1.8,13.8c-1.6,0-3.9-2.1-14.2-12.5
					c-2.1-2-30.2-30.6-50.9-52.8c-22.6-24.4-44.7-48.9-50.9-56L1200.7,485.2z"/>
				<path class="st5" d="M1378.6,493.4c-18.9-17-23.6-39.2-23.6-57.7c0-13.1,4.5-35.9,21.8-53.2c11.7-11.7,29.4-20.9,59.5-20.9
					c7.8,0,18.7,0.6,28.3,2.3c7.4,1.4,13.7,2.5,19.9,2.9c2.1,0.2,2.5,1,2.5,2.1c0,1.6-0.6,3.9-1,10.9c-0.4,6.4-0.4,17.2-0.6,20.1
					s-0.6,4.1-1.8,4.1c-1.4,0-1.6-1.4-1.6-4.1c0-7.6-3.1-15.6-8.2-19.9c-6.8-5.9-21.8-11.1-39-11.1c-25.9,0-38,7.6-44.9,14.2
					c-14.2,13.7-17.6,31-17.6,50.9c0,37.2,28.7,71.4,70.4,71.4c14.6,0,26.1-1.8,33.9-9.8c4.1-4.3,6.6-12.9,7.2-16.4
					c0.4-2.1,0.8-2.9,2-2.9c1,0,1.4,1.4,1.4,2.9c0,1.4-2.3,18.3-4.3,25c-1.2,3.7-1.6,4.1-5.1,5.7c-7.8,3.1-22.6,4.5-35.1,4.5
					C1413.7,514.5,1394,507.2,1378.6,493.4z"/>
				<path class="st5" d="M1534.2,420.9c0-30.4,0-35.9-0.4-42.1c-0.4-6.6-2-9.8-8.4-11.1c-1.6-0.4-4.9-0.6-6.6-0.6
					c-0.8,0-1.6-0.4-1.6-1.2c0-1.2,1-1.6,3.1-1.6c4.5,0,9.8,0,14,0.2l8,0.4c1.4,0,40.2,0,44.7-0.2c3.7-0.2,6.8-0.6,8.4-1
					c1-0.2,1.8-1,2.7-1c0.6,0,0.8,0.8,0.8,1.8c0,1.4-1,3.7-1.6,9.2c-0.2,2-0.6,10.5-1,12.9c-0.2,1-0.6,2.1-1.4,2.1
					c-1.2,0-1.6-1-1.6-2.5c0-1.4-0.2-4.7-1.2-7c-1.4-3.1-3.3-5.5-13.8-6.6c-3.3-0.4-24.6-0.6-26.7-0.6c-0.8,0-1.2,0.6-1.2,2v53.8
					c0,1.4,0.2,2,1.2,2c2.5,0,26.5,0,31-0.4c4.7-0.4,7.4-0.8,9.2-2.7c1.4-1.6,2.1-2.5,2.9-2.5c0.6,0,1,0.4,1,1.6s-1,4.5-1.6,10.9
					c-0.4,3.9-0.8,11.1-0.8,12.5c0,1.6,0,3.7-1.4,3.7c-1,0-1.4-0.8-1.4-1.8c0-2,0-3.9-0.8-6.4c-0.8-2.7-2.5-6-10.1-6.8
					c-5.3-0.6-24.6-1-27.9-1c-1,0-1.4,0.6-1.4,1.4v17.2c0,6.6-0.2,29.3,0,33.3c0.6,13.5,3.5,16,22.6,16c5.1,0,13.7,0,18.7-2.1
					c5.1-2.1,7.4-6,8.8-14c0.4-2.1,0.8-2.9,1.8-2.9c1.2,0,1.2,1.6,1.2,2.9c0,1.6-1.6,14.8-2.5,18.9c-1.4,5.1-2.9,5.1-10.5,5.1
					c-14.6,0-25.4-0.4-33-0.6c-7.6-0.4-12.3-0.6-15.2-0.6c-0.4,0-3.7,0-7.8,0.2c-3.9,0-8.4,0.4-11.3,0.4c-2.1,0-3.1-0.4-3.1-1.6
					c0-0.6,0.4-1.2,1.6-1.2c1.8,0,4.1-0.4,5.9-0.8c3.9-0.8,4.9-5.1,5.7-10.7c1-8.2,1-23.6,1-42.3V420.9z"/>
			</g>
		</g>
	</g>
</g>
<g id="Safe_Area" class="st6">
	<rect x="100" y="100" class="st9" width="1500" height="450"/>
	<g class="st1">
		<rect class="st7" width="100" height="100"/>
		<g>
			<text transform="matrix(1 0 0 1 35.7388 53.1098)" class="st10 st11 st12">100 x</text>
		</g>
		<rect class="st8" width="100" height="100"/>
	</g>
	<g class="st1">
		<rect y="550" class="st7" width="100" height="100"/>
		<g>
			<text transform="matrix(1 0 0 1 35.7388 603.1107)" class="st10 st11 st12">100 x</text>
		</g>
		<rect y="550" class="st8" width="100" height="100"/>
	</g>
	<g class="st1">
		<rect y="550" class="st7" width="100" height="100"/>
		<g>
			<text transform="matrix(1 0 0 1 35.7388 603.1107)" class="st10 st11 st12">100 x</text>
		</g>
		<rect y="550" class="st8" width="100" height="100"/>
	</g>
	<g class="st1">
		<rect x="1600" y="550" class="st7" width="100" height="100"/>
		<g>
			<text transform="matrix(1 0 0 1 1635.7389 603.1107)" class="st10 st11 st12">100 x</text>
		</g>
		<rect x="1600" y="550" class="st8" width="100" height="100"/>
	</g>
	<g class="st1">
		<rect x="1600" class="st7" width="100" height="100"/>
		<g>
			<text transform="matrix(1 0 0 1 1635.7389 53.1098)" class="st10 st11 st12">100 x</text>
		</g>
		<rect x="1600" class="st8" width="100" height="100"/>
	</g>
</g>
<g id="Schematic" class="st0">
	<rect x="100" y="100" class="st9" width="1500" height="450"/>
	<rect x="550" y="100" class="st9" width="85" height="450"/>
	<g class="st1">
		<rect x="550" y="55.1" class="st13" width="85" height="14.9"/>
		<g>
			<text transform="matrix(1 0 0 1 578.2139 45.1415)" class="st10 st11 st12">125 x</text>
		</g>
	</g>
	<g class="st1">
		<rect x="100" y="70" class="st13" width="450" height="14.9"/>
		<g>
			<text transform="matrix(1 0 0 1 310.7141 59.9894)" class="st10 st11 st12">450 x</text>
		</g>
	</g>
	<g class="st1">
		<rect x="635" y="70" class="st13" width="965" height="14.9"/>
		<g>
			<text transform="matrix(1 0 0 1 1103.2142 59.9894)" class="st10 st11 st12">965 x</text>
		</g>
	</g>
	<rect x="635" y="100" class="st9" width="965" height="40"/>
	<rect x="635" y="510" class="st9" width="965" height="40"/>
	<g class="st1">
		<rect x="1620" y="510" class="st13" width="14.9" height="40"/>
		<g>
			<text transform="matrix(1 0 0 1 1647.9744 533.1105)" class="st10 st11 st12">40 x</text>
		</g>
	</g>
	<g class="st1">
		<rect x="1620" y="100" class="st13" width="14.9" height="40"/>
		<g>
			<text transform="matrix(1 0 0 1 1647.9744 123.1102)" class="st10 st11 st12">40 x</text>
		</g>
	</g>
	<g class="st1">
		<rect x="65.1" y="100" class="st14" width="14.9" height="450"/>
		<g>
			<text transform="matrix(1 0 0 1 26.739 328.1097)" class="st15 st11 st12">450 x</text>
		</g>
	</g>
	<g class="st1">
		<rect x="100" y="570" class="st14" width="1500" height="14.9"/>
		<g>
			<text transform="matrix(1 0 0 1 832.4717 604.076)" class="st15 st11 st12">1500 x</text>
		</g>
	</g>
</g>
</svg>
