<?xml version="1.0" encoding="utf-8"?>
<!-- Generator: Adobe Illustrator 22.0.0, SVG Export Plug-In . SVG Version: 6.00 Build 0)  -->
<svg version="1.1" id="Layer_1" xmlns="http://www.w3.org/2000/svg" xmlns:xlink="http://www.w3.org/1999/xlink" x="0px" y="0px"
	 viewBox="0 0 1920 1280" style="enable-background:new 0 0 1920 1280;" xml:space="preserve">
<style type="text/css">
	.st0{fill:#15345F;}
	.st1{opacity:5.000000e-02;}
	.st2{clip-path:url(#SVGID_2_);fill:#BECDD0;}
	.st3{clip-path:url(#SVGID_4_);}
	.st4{fill:#BECDD0;}
</style>
<g id="Screen_1">
	<rect id="BG_1_" class="st0" width="1920" height="1280"/>
	<g id="BG" class="st1">
		<g>
			<g>
				<defs>
					<rect id="SVGID_1_" width="1920" height="1280"/>
				</defs>
				<clipPath id="SVGID_2_">
					<use xlink:href="#SVGID_1_"  style="overflow:visible;"/>
				</clipPath>
				<path class="st2" d="M552.8,196.8H446.5h-45.7l-18.5-18.5c-30.5-30.5-71.5-47.6-114.7-47.6h-231c-85.3,0-154.3,69-154.3,154.3
					v252.3c0,55.9,33.8,106.4,85.3,128.1c66.4,28,154.3,74.4,198.2,136.1c0,0-79.9,59.9,236.7,60.3c0.7,11.3,9.8,20,21.1,20l0,0
					c42.5,0,82.4,15.2,113.6,41.7c-82.4,39.9-134.7,123.8-134.7,215.6v15.2c0,125.2,101.6,226.5,226.5,226.5l0,0
					c125.2,0,226.5-101.6,226.5-226.5V500.2C856.3,332.5,720.2,196.8,552.8,196.8z"/>
			</g>
			<g>
				<defs>
					<rect id="SVGID_3_" width="1920" height="1280"/>
				</defs>
				<clipPath id="SVGID_4_">
					<use xlink:href="#SVGID_3_"  style="overflow:visible;"/>
				</clipPath>
				<g class="st3">
					<path class="st0" d="M398.2,874.5c-212,0-247.2-25.4-254.1-47.9c-3.3-10.2,0.7-19.2,5.8-26.1C106,744.9,25,702.8-36.7,676.7
						c-56.6-24-92.9-78.8-92.9-139.8V284.6C-129.6,192.8-54.9,118,37,118h230.9c46.5,0,90.4,18.2,123.4,51.2l18.5,18.5
						c4.7,4.7,4.7,12.7,0,17.4s-12.7,4.7-17.4,0l-18.5-18.5c-28.3-28.3-65.7-43.9-105.6-43.9H37.4c-78,0-141.9,63.5-141.9,141.6
						v252.3c0,51.2,30.5,96.9,77.7,116.9c67.5,28.7,157.9,76.2,203.6,140.5c1.8,2.5,2.5,6.2,2.2,9.4c-0.7,3.3-2.5,6.2-5.1,8
						c-2.9,2.2-5.8,6.2-5.4,7.3c0.4,1.1,12.3,30.5,230.5,30.5c6.9,0,12.3,5.4,12.3,12.3C410.5,869.1,405.1,874.5,398.2,874.5z"/>
					<polygon class="st0" points="153.9,801.9 166.2,324.2 178.6,801.9 					"/>
					<path class="st0" d="M629.4,1393.6c-131.8,0-239.2-107.1-239.2-239.2v-15.2c0-98,57.7-188,146.7-229.1l10.5,22.5
						c-80.2,37-132.1,118-132.1,206.6v15.2c0,118,96.2,214.2,214.2,214.2s214.2-96.2,214.2-214.2V500.2
						c0-160.4-130.7-291.1-291.1-291.1H400.4v-24.7h152.1c174.2,0,315.8,141.6,315.8,315.8v654.5
						C868.6,1286.5,761.2,1393.6,629.4,1393.6z"/>
					<path class="st0" d="M614.9,1159.5l-15.6-58.8c-1.5-19.6-5.1-38.8-9.4-57.7c-4.7-18.9-10.5-37.4-18.5-54.5
						c-7.6-17.1-18.5-32.3-31.6-45.7c-26.1-26.5-61.7-43.6-99.1-47.2c-4.7-0.4-9.4-0.7-13.8-0.7h-4c-1.8,0-4-0.4-5.8-0.7
						c-4-0.7-7.6-2.5-10.9-4.7s-6.5-4.7-8.7-8s-3.3-7.3-4-11.3c-0.4-1.8-0.4-4-0.4-5.8c0-1.1,0-1.8,0.4-2.9l0.4-2.2l1.1-7.6
						c2.5-20,5.4-40.3,9.1-60.3c3.3,20,6.2,40.3,9.1,60.3l1.1,7.6c0,0.4,0,1.5,0.4,1.8l0.4,1.1c0.4,0.7,0.7,1.1,1.1,1.5
						c0.7,1.1,1.8,1.5,2.5,2.2s1.1,1.8,2.2,2.2c0.7,0.7,1.8,1.1,2.9,1.1c0.4,0,1.1,0.4,1.5,0.4h0.4h1.1h2.2c5.4,0,10.9,0.4,16,1.1
						c42.8,4.4,83.9,24,114,54.5c15.2,15.2,27.6,33,36.7,52.6c8.7,19.2,15.2,38.8,20.3,59.2c2.5,10.2,4.4,20.3,6.2,30.5
						c0.7,5.1,1.8,10.2,2.2,15.2c0.7,5.1,1.1,10.2,2.2,15.2C623.6,1118.8,620.3,1139.5,614.9,1159.5z"/>
					<path class="st0" d="M862.8,894.8L849,874.1l239.2-157.5c13.1-9.4,21.1-24.7,21.1-41.4c0,0,0-0.4-0.4-0.7c-0.4-0.4-0.7,0-1.1,0
						L861,788.1l-10.5-22.5L1097.3,652c8-3.6,17.4-2.9,24.7,1.8c7.6,4.7,12,12.7,12,21.8c0,24.3-12,47.6-31.9,61.7L862.8,894.8z"/>
				</g>
			</g>
		</g>
		<path class="st0" d="M251.2,183.7c12.7-1.5,25.8-0.4,38.5,2.5c12.7,3.3,25,8.7,35.9,16c22.5,14.5,39.6,36.7,48.3,62.1
			c1.1,3.3,1.8,6.5,2.9,9.8c0.7,3.3,1.8,6.5,2.2,9.8s1.1,6.5,1.5,9.8c0,3.3,0.4,6.5,0.4,10.2c0,13.1-0.4,25.4-1.1,38.1
			c-1.1,25.4-2.5,50.8-5.8,75.9c-3.3-25.4-4.7-50.8-5.8-75.9c-0.7-12.7-0.7-25.4-1.5-37.8c-0.4-12-2.9-23.6-6.5-34.8
			c-3.6-11.3-9.4-21.8-16.3-31.6s-15.2-18.5-24.7-26.1c-9.4-7.3-20-13.8-31.6-18.2C275.8,188.4,263.9,185.5,251.2,183.7z"/>
		<path class="st0" d="M572.4,524.6c12.7-4,26.1-5.4,39.6-4c13.4,1.5,27.6,6.5,38.1,17.1c10.5,10.2,16,24.7,17.8,38.5
			c0.4,1.8,0.4,3.6,0.7,5.1l0.4,5.1c0.4,3.6,0,6.5,0,9.8v19.6l-0.4,39.2c-0.4,13.1-0.7,26.1-1.1,39.2c-1.1,26.1-2.5,52.3-5.8,78.4
			c-3.3-26.1-4.7-52.3-5.8-78.4c-0.7-13.1-0.7-26.1-1.1-39.2l-0.4-39.2v-19.6c0-6.5,0.4-12.7-0.4-18.9c-1.1-12-5.1-23.6-12.3-32.3
			c-7.6-8.7-18.5-14.9-30.9-17.8C598.6,524.6,585.5,523.8,572.4,524.6z"/>
		<path class="st0" d="M623.2,591.7c0,10.5-8.3,18.9-18.9,18.9c-10.5,0-57-8.3-57-18.9s46.5-18.9,57-18.9
			C614.5,572.5,623.2,581.2,623.2,591.7z"/>
		<path class="st4" d="M856.3,777.2l246.8-113.6c8.7-4,18.9,2.5,18.9,12l0,0c0,20.7-9.8,39.9-26.5,51.5L856.3,884.7"/>
	</g>
</g>
</svg>
